<?xml version="1.0" encoding="UTF-8"?>
<svg xmlns="http://www.w3.org/2000/svg" xmlns:xlink="http://www.w3.org/1999/xlink" width="365pt" height="167.98pt" viewBox="0 0 365 167.98" version="1.2">
<defs>
<g>
<symbol overflow="visible" id="glyph0-0">
<path style="stroke:none;" d=""/>
</symbol>
<symbol overflow="visible" id="glyph0-1">
<path style="stroke:none;" d="M 5.4375 -1.234375 L 5.28125 -1.34375 C 4.671875 -0.578125 4.515625 -0.4375 4.328125 -0.4375 C 4.25 -0.4375 4.203125 -0.5 4.203125 -0.625 C 4.203125 -0.703125 4.203125 -0.703125 4.421875 -1.515625 L 5.328125 -4.953125 L 4.484375 -4.953125 C 3.859375 -3.25 3.734375 -2.984375 3.21875 -2.15625 C 2.53125 -1.0625 1.96875 -0.484375 1.609375 -0.484375 C 1.453125 -0.484375 1.359375 -0.59375 1.359375 -0.765625 C 1.359375 -0.8125 1.359375 -0.84375 1.375 -0.875 L 2.421875 -5.03125 L 2.375 -5.046875 C 1.734375 -4.90625 1.3125 -4.828125 0.671875 -4.734375 L 0.671875 -4.578125 C 1.09375 -4.578125 1.125 -4.5625 1.21875 -4.515625 C 1.296875 -4.484375 1.34375 -4.390625 1.34375 -4.3125 C 1.34375 -4.21875 1.296875 -3.921875 1.1875 -3.53125 L 0.765625 -1.90625 C 0.546875 -1.078125 0.484375 -0.71875 0.484375 -0.5 C 0.484375 -0.078125 0.6875 0.125 1.09375 0.125 C 1.90625 0.125 2.515625 -0.5 3.828125 -2.703125 C 3.484375 -1.4375 3.3125 -0.703125 3.3125 -0.453125 C 3.3125 -0.09375 3.515625 0.109375 3.859375 0.109375 C 4.390625 0.109375 4.65625 -0.109375 5.4375 -1.234375 Z M 5.4375 -1.234375 "/>
</symbol>
<symbol overflow="visible" id="glyph1-0">
<path style="stroke:none;" d=""/>
</symbol>
<symbol overflow="visible" id="glyph1-1">
<path style="stroke:none;" d="M 3.921875 0 L 3.921875 -0.15625 C 3.140625 -0.15625 2.984375 -0.265625 2.984375 -0.734375 L 2.984375 -6.71875 L 2.90625 -6.734375 L 1.109375 -5.828125 L 1.109375 -5.6875 C 1.21875 -5.734375 1.328125 -5.78125 1.375 -5.796875 C 1.5625 -5.875 1.71875 -5.90625 1.828125 -5.90625 C 2.03125 -5.90625 2.125 -5.765625 2.125 -5.4375 L 2.125 -0.921875 C 2.125 -0.59375 2.046875 -0.375 1.890625 -0.28125 C 1.734375 -0.1875 1.59375 -0.15625 1.171875 -0.15625 L 1.171875 0 Z M 3.921875 0 "/>
</symbol>
<symbol overflow="visible" id="glyph2-0">
<path style="stroke:none;" d=""/>
</symbol>
<symbol overflow="visible" id="glyph2-1">
<path style="stroke:none;" d="M 4.96875 -1.046875 L 4.84375 -1.15625 L 4.5625 -0.859375 C 4.234375 -0.515625 4.109375 -0.421875 4.015625 -0.421875 C 3.9375 -0.421875 3.875 -0.484375 3.875 -0.5625 C 3.875 -0.78125 4.3125 -2.578125 4.796875 -4.359375 C 4.828125 -4.46875 4.84375 -4.484375 4.859375 -4.578125 L 4.78125 -4.609375 L 4.15625 -4.53125 L 4.125 -4.5 L 4 -4 C 3.921875 -4.390625 3.609375 -4.609375 3.171875 -4.609375 C 1.78125 -4.609375 0.171875 -2.703125 0.171875 -1.046875 C 0.171875 -0.3125 0.578125 0.109375 1.25 0.109375 C 1.96875 0.109375 2.421875 -0.234375 3.34375 -1.53125 C 3.125 -0.671875 3.109375 -0.578125 3.109375 -0.328125 C 3.109375 -0.015625 3.234375 0.109375 3.515625 0.109375 C 3.9375 0.109375 4.1875 -0.09375 4.96875 -1.046875 Z M 3.8125 -3.75 C 3.8125 -2.859375 3.28125 -1.625 2.578125 -0.859375 C 2.328125 -0.578125 1.96875 -0.390625 1.65625 -0.390625 C 1.28125 -0.390625 1.0625 -0.6875 1.0625 -1.171875 C 1.0625 -1.734375 1.421875 -2.765625 1.859375 -3.421875 C 2.296875 -4.0625 2.796875 -4.40625 3.234375 -4.375 C 3.578125 -4.359375 3.8125 -4.109375 3.8125 -3.75 Z M 3.8125 -3.75 "/>
</symbol>
<symbol overflow="visible" id="glyph2-2">
<path style="stroke:none;" d="M 4.96875 -3.453125 C 4.96875 -5.59375 4.03125 -7.0625 2.65625 -7.0625 C 2.078125 -7.0625 1.640625 -6.890625 1.25 -6.515625 C 0.640625 -5.9375 0.25 -4.734375 0.25 -3.515625 C 0.25 -2.375 0.59375 -1.15625 1.09375 -0.5625 C 1.46875 -0.109375 2 0.140625 2.609375 0.140625 C 3.140625 0.140625 3.59375 -0.03125 3.96875 -0.390625 C 4.578125 -0.96875 4.96875 -2.1875 4.96875 -3.453125 Z M 3.96875 -3.421875 C 3.96875 -1.25 3.515625 -0.125 2.609375 -0.125 C 1.71875 -0.125 1.25 -1.25 1.25 -3.421875 C 1.25 -5.640625 1.71875 -6.796875 2.625 -6.796875 C 3.5 -6.796875 3.96875 -5.609375 3.96875 -3.421875 Z M 3.96875 -3.421875 "/>
</symbol>
<symbol overflow="visible" id="glyph2-3">
<path style="stroke:none;" d="M 4.9375 -3.359375 C 4.9375 -4.09375 4.4375 -4.609375 3.734375 -4.609375 C 3 -4.609375 2.453125 -4.1875 1.71875 -3.03125 L 2.796875 -7.09375 L 2.75 -7.140625 C 2.21875 -7.046875 1.84375 -6.984375 1.15625 -6.90625 L 1.15625 -6.71875 C 1.765625 -6.703125 1.828125 -6.671875 1.828125 -6.4375 C 1.828125 -6.34375 1.8125 -6.234375 1.734375 -5.984375 L 1.6875 -5.796875 L 1.65625 -5.71875 L 0.234375 -0.484375 L 0.234375 -0.4375 C 0.234375 -0.203125 1.03125 0.109375 1.625 0.109375 C 3.203125 0.109375 4.9375 -1.703125 4.9375 -3.359375 Z M 4.0625 -3.203125 C 4.0625 -2.515625 3.53125 -1.390625 2.90625 -0.734375 C 2.515625 -0.34375 2.0625 -0.125 1.625 -0.125 C 1.296875 -0.125 1.140625 -0.234375 1.140625 -0.484375 C 1.140625 -1.109375 1.453125 -2.109375 1.890625 -2.890625 C 2.359375 -3.703125 2.828125 -4.09375 3.328125 -4.09375 C 3.78125 -4.09375 4.0625 -3.75 4.0625 -3.203125 Z M 4.0625 -3.203125 "/>
</symbol>
<symbol overflow="visible" id="glyph2-4">
<path style="stroke:none;" d="M 1.890625 -0.453125 C 1.890625 -0.78125 1.625 -1.046875 1.3125 -1.046875 C 1 -1.046875 0.734375 -0.78125 0.734375 -0.453125 C 0.734375 -0.140625 1 0.109375 1.296875 0.109375 C 1.625 0.109375 1.890625 -0.140625 1.890625 -0.453125 Z M 1.890625 -0.453125 "/>
</symbol>
<symbol overflow="visible" id="glyph2-5">
<path style="stroke:none;" d="M 4.890625 -2.296875 C 4.890625 -3.625 4.125 -4.46875 2.921875 -4.46875 C 2.46875 -4.46875 2.25 -4.40625 1.59375 -4 C 1.875 -5.578125 3.046875 -6.71875 4.6875 -6.984375 L 4.65625 -7.15625 C 3.46875 -7.046875 2.859375 -6.84375 2.09375 -6.3125 C 0.96875 -5.515625 0.359375 -4.3125 0.359375 -2.921875 C 0.359375 -2 0.640625 -1.09375 1.09375 -0.5625 C 1.484375 -0.109375 2.046875 0.140625 2.703125 0.140625 C 4 0.140625 4.890625 -0.84375 4.890625 -2.296875 Z M 3.953125 -1.9375 C 3.953125 -0.78125 3.546875 -0.140625 2.8125 -0.140625 C 1.890625 -0.140625 1.328125 -1.125 1.328125 -2.75 C 1.328125 -3.28125 1.40625 -3.578125 1.625 -3.734375 C 1.84375 -3.90625 2.15625 -4 2.53125 -4 C 3.421875 -4 3.953125 -3.234375 3.953125 -1.9375 Z M 3.953125 -1.9375 "/>
</symbol>
<symbol overflow="visible" id="glyph2-6">
<path style="stroke:none;" d="M 4.4375 -3.765625 C 4.4375 -4.25 3.984375 -4.609375 3.34375 -4.609375 C 1.78125 -4.609375 0.3125 -3.078125 0.3125 -1.453125 C 0.3125 -0.453125 0.875 0.109375 1.84375 0.109375 C 2.640625 0.109375 3.1875 -0.203125 3.828125 -1 L 3.65625 -1.109375 C 3.078125 -0.484375 2.671875 -0.265625 2.15625 -0.265625 C 1.5625 -0.265625 1.21875 -0.703125 1.21875 -1.453125 C 1.21875 -2.34375 1.578125 -3.265625 2.15625 -3.890625 C 2.46875 -4.203125 2.890625 -4.390625 3.296875 -4.390625 C 3.546875 -4.390625 3.6875 -4.3125 3.6875 -4.1875 C 3.6875 -4.125 3.671875 -4.078125 3.625 -3.984375 C 3.546875 -3.84375 3.53125 -3.78125 3.53125 -3.671875 C 3.53125 -3.421875 3.6875 -3.28125 3.9375 -3.28125 C 4.234375 -3.28125 4.4375 -3.484375 4.4375 -3.765625 Z M 4.4375 -3.765625 "/>
</symbol>
<symbol overflow="visible" id="glyph2-7">
<path style="stroke:none;" d="M 4.125 0 L 4.125 -0.15625 C 3.296875 -0.171875 3.125 -0.265625 3.125 -0.78125 L 3.125 -7.046875 L 3.046875 -7.0625 L 1.15625 -6.109375 L 1.15625 -5.96875 C 1.28125 -6.015625 1.40625 -6.0625 1.4375 -6.078125 C 1.625 -6.15625 1.8125 -6.203125 1.90625 -6.203125 C 2.125 -6.203125 2.21875 -6.046875 2.21875 -5.703125 L 2.21875 -0.96875 C 2.21875 -0.625 2.140625 -0.390625 1.96875 -0.296875 C 1.8125 -0.203125 1.671875 -0.171875 1.234375 -0.15625 L 1.234375 0 Z M 4.125 0 "/>
</symbol>
<symbol overflow="visible" id="glyph2-8">
<path style="stroke:none;" d="M 4.96875 -1.4375 L 4.828125 -1.484375 C 4.4375 -0.890625 4.3125 -0.796875 3.84375 -0.796875 L 1.34375 -0.796875 L 3.09375 -2.640625 C 4.03125 -3.609375 4.4375 -4.40625 4.4375 -5.21875 C 4.4375 -6.265625 3.578125 -7.0625 2.5 -7.0625 C 1.921875 -7.0625 1.375 -6.84375 1 -6.421875 C 0.65625 -6.0625 0.5 -5.734375 0.328125 -4.984375 L 0.546875 -4.9375 C 0.96875 -5.953125 1.34375 -6.296875 2.0625 -6.296875 C 2.9375 -6.296875 3.53125 -5.703125 3.53125 -4.8125 C 3.53125 -4 3.046875 -3.03125 2.171875 -2.09375 L 0.3125 -0.125 L 0.3125 0 L 4.390625 0 Z M 4.96875 -1.4375 "/>
</symbol>
<symbol overflow="visible" id="glyph2-9">
<path style="stroke:none;" d="M 5.875 -3.234375 L 5.6875 -3.328125 C 5.421875 -2.796875 5.046875 -2.640625 4.6875 -2.53125 C 4.609375 -2.515625 4.53125 -2.5 4.453125 -2.5 C 4.125 -2.5 3.796875 -2.6875 3.484375 -2.859375 C 3.078125 -3.0625 2.671875 -3.265625 2.21875 -3.265625 C 2.109375 -3.265625 2 -3.25 1.875 -3.21875 C 1.421875 -3.09375 1.1875 -2.65625 0.84375 -2 L 1.03125 -1.890625 C 1.296875 -2.421875 1.65625 -2.59375 2.03125 -2.703125 C 2.09375 -2.71875 2.171875 -2.734375 2.265625 -2.734375 C 2.59375 -2.734375 2.921875 -2.546875 3.234375 -2.375 C 3.609375 -2.15625 4.046875 -1.96875 4.46875 -1.96875 C 4.59375 -1.96875 4.71875 -1.96875 4.828125 -2 C 5.296875 -2.125 5.53125 -2.578125 5.875 -3.234375 Z M 5.875 -3.234375 "/>
</symbol>
<symbol overflow="visible" id="glyph2-10">
<path style="stroke:none;" d="M 6.125 0.15625 L 6.125 -0.453125 L 1.53125 -2.609375 L 6.125 -4.78125 L 6.125 -5.390625 L 0.84375 -2.890625 L 0.84375 -2.34375 Z M 6.125 0.15625 "/>
</symbol>
<symbol overflow="visible" id="glyph2-11">
<path style="stroke:none;" d="M 6.109375 -3.140625 L 6.109375 -3.671875 L 0.84375 -5.890625 L 0.84375 -5.3125 L 5.359375 -3.40625 L 0.84375 -1.5 L 0.84375 -0.921875 Z M 6.109375 0.5625 L 6.109375 0.015625 L 0.84375 0.015625 L 0.84375 0.5625 Z M 6.109375 0.5625 "/>
</symbol>
<symbol overflow="visible" id="glyph3-0">
<path style="stroke:none;" d="M 1.046875 1.25 L 9.40625 1.25 L 9.40625 -9.203125 L 1.046875 -9.203125 Z M 5.234375 -4.40625 L 1.90625 -8.671875 L 8.546875 -8.671875 Z M 5.5625 -3.96875 L 8.890625 -8.25 L 8.890625 0.296875 Z M 1.90625 0.734375 L 5.234375 -3.546875 L 8.546875 0.734375 Z M 1.5625 -8.25 L 4.890625 -3.96875 L 1.5625 0.296875 Z M 1.5625 -8.25 "/>
</symbol>
<symbol overflow="visible" id="glyph3-1">
<path style="stroke:none;" d="M 2.421875 -4.5 C 2.796875 -4.5 3.078125 -4.796875 3.078125 -5.140625 C 3.078125 -5.515625 2.796875 -5.796875 2.421875 -5.796875 C 2.03125 -5.796875 1.75 -5.515625 1.75 -5.140625 C 1.75 -4.796875 2.03125 -4.5 2.421875 -4.5 Z M 2.421875 -0.359375 C 2.796875 -0.359375 3.078125 -0.671875 3.078125 -1.015625 C 3.078125 -1.375 2.796875 -1.671875 2.421875 -1.671875 C 2.03125 -1.671875 1.75 -1.375 1.75 -1.015625 C 1.75 -0.671875 2.03125 -0.359375 2.421875 -0.359375 Z M 2.421875 -0.359375 "/>
</symbol>
<symbol overflow="visible" id="glyph3-2">
<path style="stroke:none;" d="M 3.359375 -6.3125 L 2.9375 -6.3125 L 2.9375 -8.328125 C 3.1875 -8.375 3.265625 -8.46875 3.296875 -8.625 L 2.265625 -8.75 L 2.265625 -6.3125 L 0.5 -6.3125 L 0.578125 -6.015625 L 2.078125 -6.015625 C 1.734375 -4.46875 1.15625 -2.84375 0.328125 -1.625 L 0.46875 -1.5 C 1.21875 -2.3125 1.8125 -3.265625 2.265625 -4.3125 L 2.265625 0.8125 L 2.40625 0.8125 C 2.640625 0.8125 2.9375 0.640625 2.9375 0.546875 L 2.9375 -4.84375 C 3.359375 -4.390625 3.859375 -3.734375 4 -3.203125 C 4.6875 -2.71875 5.21875 -4.140625 2.9375 -5.046875 L 2.9375 -6.015625 L 4.375 -6.015625 C 4.53125 -6.015625 4.625 -6.0625 4.65625 -6.171875 C 4.34375 -6.484375 3.8125 -6.921875 3.8125 -6.921875 Z M 5.640625 -0.484375 L 5.640625 -2.734375 L 8.796875 -2.734375 L 8.796875 -0.484375 Z M 8.796875 -5.21875 L 8.796875 -3.046875 L 5.640625 -3.046875 L 5.640625 -5.21875 Z M 8.796875 -7.65625 L 8.796875 -5.53125 L 5.640625 -5.53125 L 5.640625 -7.65625 Z M 9.078125 -8.390625 L 8.6875 -7.9375 L 5.671875 -7.9375 L 4.9375 -8.296875 L 4.9375 0.734375 L 5.0625 0.734375 C 5.390625 0.734375 5.640625 0.5625 5.640625 0.46875 L 5.640625 -0.203125 L 8.796875 -0.203125 L 8.796875 0.703125 L 8.890625 0.703125 C 9.140625 0.703125 9.453125 0.515625 9.46875 0.453125 L 9.46875 -7.5 C 9.671875 -7.546875 9.859375 -7.625 9.9375 -7.71875 Z M 9.078125 -8.390625 "/>
</symbol>
<symbol overflow="visible" id="glyph3-3">
<path style="stroke:none;" d="M 4.59375 -3.765625 L 1.0625 -3.765625 L 1.15625 -3.453125 L 4.5625 -3.453125 C 4.21875 -2.859375 3.703125 -2 3.3125 -1.390625 C 2.921875 -1.671875 2.421875 -1.9375 1.765625 -2.21875 L 1.640625 -2.09375 C 2.484375 -1.46875 3.609375 -0.359375 3.9375 0.515625 C 4.59375 0.90625 4.921875 -0.125 3.5 -1.25 C 4.109375 -1.875 4.9375 -2.796875 5.359375 -3.34375 C 5.578125 -3.359375 5.71875 -3.359375 5.796875 -3.453125 L 5.03125 -4.203125 Z M 2.640625 -6.015625 C 3.015625 -5.59375 3.453125 -4.875 3.546875 -4.3125 C 4.1875 -3.796875 4.78125 -5.1875 2.765625 -6.109375 Z M 3.546875 -8.296875 C 3.828125 -8.3125 3.9375 -8.375 3.96875 -8.484375 L 2.9375 -8.859375 C 2.515625 -7.40625 1.40625 -5.234375 0.265625 -4.015625 L 0.421875 -3.90625 C 1.703125 -4.96875 2.828125 -6.71875 3.453125 -8.109375 C 4.21875 -7.375 5.15625 -6.28125 5.421875 -5.453125 C 6.203125 -4.9375 6.578125 -6.671875 3.546875 -8.296875 Z M 9.34375 -8.390625 L 8.890625 -7.9375 L 7.125 -7.9375 L 6.328125 -8.359375 L 6.328125 0.828125 L 6.4375 0.828125 C 6.78125 0.828125 7 0.640625 7 0.578125 L 7 -7.640625 L 8.921875 -7.640625 C 8.640625 -6.75 8.1875 -5.421875 7.890625 -4.71875 C 8.828125 -3.875 9.1875 -3.03125 9.1875 -2.21875 C 9.1875 -1.765625 9.078125 -1.546875 8.859375 -1.421875 C 8.765625 -1.375 8.6875 -1.375 8.578125 -1.375 L 7.5625 -1.375 L 7.5625 -1.1875 C 7.875 -1.15625 8.125 -1.109375 8.21875 -1.03125 C 8.3125 -0.9375 8.359375 -0.71875 8.359375 -0.484375 C 9.484375 -0.546875 9.890625 -1.03125 9.875 -2.0625 C 9.875 -2.9375 9.421875 -3.875 8.15625 -4.75 C 8.640625 -5.4375 9.328125 -6.75 9.671875 -7.453125 C 9.9375 -7.46875 10.078125 -7.484375 10.15625 -7.578125 Z M 9.34375 -8.390625 "/>
</symbol>
<symbol overflow="visible" id="glyph3-4">
<path style="stroke:none;" d="M 5.9375 -5.984375 L 4.046875 -5.984375 L 4.046875 -7.671875 L 5.9375 -7.671875 Z M 8.484375 -7.984375 L 0.484375 -7.984375 L 0.578125 -7.671875 L 3.40625 -7.671875 L 3.40625 -5.984375 L 1.890625 -5.984375 L 1.15625 -6.34375 L 1.15625 0.828125 L 1.265625 0.828125 C 1.5625 0.828125 1.8125 0.640625 1.8125 0.5625 L 1.8125 -5.671875 L 3.40625 -5.671875 C 3.375 -4.25 3.15625 -2.59375 2.046875 -1.1875 L 2.1875 -1.0625 C 3.296875 -2 3.75 -3.203125 3.9375 -4.359375 C 4.28125 -3.796875 4.625 -3.078125 4.65625 -2.515625 C 5.25 -1.96875 5.828125 -3.359375 3.96875 -4.6875 C 4.015625 -5.03125 4.03125 -5.359375 4.03125 -5.671875 L 5.9375 -5.671875 C 5.921875 -4.21875 5.765625 -2.484375 4.59375 -1.0625 L 4.75 -0.9375 C 5.90625 -1.875 6.328125 -3.125 6.484375 -4.3125 C 7.015625 -3.609375 7.53125 -2.734375 7.625 -2 C 8.3125 -1.421875 8.828125 -3.0625 6.515625 -4.640625 C 6.546875 -5 6.5625 -5.34375 6.578125 -5.671875 L 8.546875 -5.671875 L 8.546875 -0.234375 C 8.546875 -0.046875 8.484375 0.015625 8.265625 0.015625 C 7.984375 0.015625 6.671875 -0.078125 6.671875 -0.078125 L 6.671875 0.09375 C 7.234375 0.15625 7.546875 0.25 7.75 0.359375 C 7.90625 0.453125 7.96875 0.625 8.03125 0.84375 C 9.109375 0.734375 9.234375 0.375 9.234375 -0.15625 L 9.234375 -5.546875 C 9.4375 -5.59375 9.609375 -5.671875 9.6875 -5.75 L 8.796875 -6.421875 L 8.453125 -5.984375 L 6.578125 -5.984375 L 6.578125 -7.671875 L 9.734375 -7.671875 C 9.875 -7.671875 9.984375 -7.71875 10 -7.84375 C 9.640625 -8.1875 9.03125 -8.640625 9.03125 -8.640625 Z M 8.484375 -7.984375 "/>
</symbol>
<symbol overflow="visible" id="glyph3-5">
<path style="stroke:none;" d="M 2.859375 -6.046875 L 4.4375 -6.046875 C 4.59375 -6.046875 4.6875 -6.09375 4.71875 -6.203125 C 4.390625 -6.515625 3.859375 -6.953125 3.859375 -6.953125 L 3.390625 -6.34375 L 2.859375 -6.34375 L 2.859375 -8.328125 C 3.125 -8.375 3.203125 -8.46875 3.234375 -8.625 L 2.1875 -8.75 L 2.1875 -6.34375 L 0.5 -6.34375 L 0.578125 -6.046875 L 2.015625 -6.046875 C 1.6875 -4.5 1.09375 -2.859375 0.28125 -1.640625 L 0.4375 -1.515625 C 1.171875 -2.328125 1.75 -3.265625 2.1875 -4.3125 L 2.1875 0.796875 L 2.328125 0.796875 C 2.578125 0.796875 2.859375 0.640625 2.859375 0.546875 L 2.859375 -5.21875 C 3.21875 -4.78125 3.609375 -4.1875 3.71875 -3.703125 C 4.390625 -3.203125 4.96875 -4.578125 2.859375 -5.421875 Z M 9.78125 -7.53125 C 9.9375 -7.53125 10.03125 -7.578125 10.0625 -7.6875 C 9.71875 -8.03125 9.140625 -8.46875 9.140625 -8.46875 L 8.671875 -7.84375 L 3.671875 -7.84375 L 3.75 -7.53125 L 6.953125 -7.53125 C 6.265625 -5.5625 4.96875 -3.609375 3.28125 -2.296875 L 3.421875 -2.15625 C 4.5625 -2.875 5.53125 -3.78125 6.296875 -4.8125 L 6.296875 0.78125 L 6.421875 0.78125 C 6.671875 0.78125 6.953125 0.609375 6.96875 0.546875 L 6.96875 -5.203125 C 7.15625 -5.234375 7.25 -5.296875 7.28125 -5.390625 L 6.8125 -5.578125 C 7.1875 -6.1875 7.5 -6.84375 7.75 -7.53125 Z M 7.40625 -5.03125 C 8.15625 -4.40625 9.15625 -3.359375 9.46875 -2.578125 C 10.3125 -2.0625 10.703125 -3.875 7.515625 -5.125 Z M 7.40625 -5.03125 "/>
</symbol>
<symbol overflow="visible" id="glyph3-6">
<path style="stroke:none;" d="M 2.875 -8.71875 C 3.265625 -8.359375 3.703125 -7.75 3.8125 -7.25 C 4.5625 -6.75 5.125 -8.265625 2.984375 -8.796875 Z M 8.53125 0.046875 L 6.265625 0.046875 L 6.265625 -2.09375 L 8.640625 -2.09375 C 8.765625 -2.09375 8.890625 -2.15625 8.90625 -2.265625 C 8.5625 -2.578125 8.03125 -3 8.03125 -3 L 7.5625 -2.40625 L 3.65625 -2.40625 C 3.96875 -2.8125 4.21875 -3.25 4.4375 -3.703125 L 9.6875 -3.703125 C 9.84375 -3.703125 9.9375 -3.75 9.96875 -3.875 C 9.609375 -4.1875 9.0625 -4.609375 9.0625 -4.609375 L 8.5625 -4 L 4.59375 -4 C 4.78125 -4.40625 4.9375 -4.84375 5.0625 -5.296875 L 8.84375 -5.296875 C 8.984375 -5.296875 9.078125 -5.359375 9.109375 -5.46875 C 8.765625 -5.78125 8.25 -6.171875 8.25 -6.171875 L 7.765625 -5.609375 L 5.140625 -5.609375 C 5.234375 -5.984375 5.328125 -6.359375 5.390625 -6.75 L 5.390625 -6.796875 L 9.484375 -6.796875 C 9.625 -6.796875 9.75 -6.84375 9.765625 -6.96875 C 9.421875 -7.28125 8.859375 -7.6875 8.859375 -7.6875 L 8.359375 -7.09375 L 6.265625 -7.09375 C 6.734375 -7.453125 7.21875 -7.921875 7.53125 -8.296875 C 7.75 -8.265625 7.875 -8.34375 7.9375 -8.46875 L 6.828125 -8.828125 C 6.625 -8.296875 6.296875 -7.59375 5.984375 -7.09375 L 1 -7.09375 L 1.09375 -6.796875 L 4.578125 -6.796875 C 4.53125 -6.390625 4.4375 -6 4.34375 -5.609375 L 1.46875 -5.609375 L 1.546875 -5.296875 L 4.265625 -5.296875 C 4.15625 -4.859375 4 -4.421875 3.8125 -4 L 0.5625 -4 L 0.65625 -3.703125 L 3.671875 -3.703125 C 3 -2.21875 1.96875 -0.9375 0.515625 0.03125 L 0.640625 0.171875 C 1.859375 -0.484375 2.828125 -1.3125 3.546875 -2.265625 L 3.59375 -2.09375 L 5.578125 -2.09375 L 5.578125 0.046875 L 2.015625 0.046875 L 2.109375 0.359375 L 9.65625 0.359375 C 9.8125 0.359375 9.921875 0.296875 9.9375 0.1875 C 9.59375 -0.140625 9.03125 -0.578125 9.03125 -0.578125 Z M 8.53125 0.046875 "/>
</symbol>
<symbol overflow="visible" id="glyph3-7">
<path style="stroke:none;" d="M 0.96875 2.046875 C 2.046875 1.53125 2.390625 0.515625 2.390625 -0.25 C 2.390625 -0.8125 2.109375 -1.234375 1.625 -1.234375 C 1.1875 -1.234375 0.9375 -0.9375 0.9375 -0.59375 C 0.9375 -0.0625 1.453125 0.109375 1.875 0.265625 C 1.84375 0.71875 1.59375 1.34375 0.796875 1.78125 Z M 0.96875 2.046875 "/>
</symbol>
<symbol overflow="visible" id="glyph3-8">
<path style="stroke:none;" d="M 4.40625 -8.765625 C 4.75 -8.546875 5.109375 -8.078125 5.21875 -7.703125 C 5.921875 -7.25 6.421875 -8.671875 4.5 -8.859375 Z M 4.765625 -6.640625 L 4.34375 -6.25 L 3.03125 -6.25 C 3.15625 -6.421875 3.265625 -6.578125 3.375 -6.75 C 3.625 -6.71875 3.703125 -6.78125 3.75 -6.875 L 2.8125 -7.15625 C 2.375 -6.140625 1.46875 -4.96875 0.546875 -4.3125 L 0.65625 -4.15625 C 0.96875 -4.3125 1.25 -4.515625 1.53125 -4.734375 C 1.8125 -4.5 2.078125 -4.125 2.15625 -3.84375 C 2.671875 -3.484375 3.078125 -4.4375 1.703125 -4.84375 C 1.921875 -5.03125 2.140625 -5.234375 2.34375 -5.453125 C 2.65625 -5.25 2.953125 -4.953125 3.078125 -4.703125 C 3.609375 -4.40625 3.9375 -5.375 2.515625 -5.609375 C 2.609375 -5.71875 2.703125 -5.828125 2.796875 -5.953125 L 4.3125 -5.953125 C 3.609375 -4.46875 2.25 -3.140625 0.453125 -2.34375 L 0.546875 -2.171875 C 2.75 -2.921875 4.234375 -4.28125 5.046875 -5.875 C 5.28125 -5.890625 5.390625 -5.921875 5.484375 -6 Z M 3.578125 -3.390625 L 6.890625 -3.390625 C 7.03125 -3.390625 7.140625 -3.4375 7.15625 -3.546875 C 6.859375 -3.84375 6.375 -4.1875 6.375 -4.1875 L 5.96875 -3.6875 L 3.484375 -3.6875 Z M 3.078125 -1.734375 C 2.640625 -1.015625 1.703125 -0.109375 0.765625 0.421875 L 0.875 0.5625 C 1.96875 0.1875 3.03125 -0.515625 3.609375 -1.125 C 3.84375 -1.09375 3.9375 -1.125 4 -1.234375 Z M 8.65625 -1.984375 C 8.796875 -1.984375 8.90625 -2.03125 8.9375 -2.15625 C 8.609375 -2.453125 8.078125 -2.828125 8.078125 -2.828125 L 7.625 -2.296875 L 1.6875 -2.296875 L 1.78125 -1.984375 L 4.875 -1.984375 L 4.875 -0.15625 C 4.875 -0.015625 4.84375 0.015625 4.65625 0.015625 C 4.4375 0.015625 3.453125 -0.046875 3.453125 -0.046875 L 3.453125 0.109375 C 3.90625 0.171875 4.171875 0.25 4.3125 0.359375 C 4.4375 0.453125 4.484375 0.625 4.5 0.8125 C 5.421875 0.734375 5.5625 0.390625 5.5625 -0.140625 L 5.5625 -1.984375 Z M 6.421875 -1.4375 C 7.25 -1 8.328125 -0.171875 8.703125 0.515625 C 9.5625 0.875 9.71875 -0.90625 6.515625 -1.5625 Z M 7.9375 -5.96875 C 7.75 -5.59375 7.453125 -5.15625 7.203125 -4.8125 C 6.8125 -5.15625 6.453125 -5.546875 6.203125 -5.96875 Z M 8.71875 -6.359375 L 8.796875 -6.3125 C 9.078125 -6.53125 9.453125 -6.890625 9.671875 -7.171875 C 9.859375 -7.1875 9.96875 -7.1875 10.0625 -7.28125 L 9.25 -8.03125 L 8.828125 -7.59375 L 1.75 -7.59375 C 1.71875 -7.75 1.6875 -7.90625 1.640625 -8.078125 L 1.453125 -8.0625 C 1.5 -7.5 1.15625 -7 0.78125 -6.796875 C 0.5625 -6.671875 0.421875 -6.484375 0.515625 -6.265625 C 0.609375 -6.015625 0.96875 -6.015625 1.21875 -6.171875 C 1.5 -6.328125 1.75 -6.71875 1.765625 -7.28125 L 8.890625 -7.28125 C 8.828125 -7 8.734375 -6.640625 8.671875 -6.40625 L 8.375 -6.6875 L 7.96875 -6.28125 L 6 -6.28125 C 5.890625 -6.484375 5.796875 -6.703125 5.703125 -6.90625 L 5.53125 -6.8125 C 6.171875 -4.765625 7.59375 -3.390625 9.453125 -2.625 C 9.5625 -2.921875 9.78125 -3.125 10.0625 -3.140625 L 10.078125 -3.265625 C 9.078125 -3.5625 8.15625 -4.03125 7.390625 -4.65625 C 7.875 -5 8.40625 -5.484375 8.703125 -5.875 C 8.921875 -5.890625 9.046875 -5.90625 9.109375 -5.984375 Z M 8.71875 -6.359375 "/>
</symbol>
<symbol overflow="visible" id="glyph3-9">
<path style="stroke:none;" d="M 4.203125 -8.734375 C 4.578125 -8.234375 4.984375 -7.453125 5.03125 -6.828125 C 5.703125 -6.234375 6.390625 -7.765625 4.328125 -8.796875 Z M 1.703125 -8.484375 C 2.09375 -8.03125 2.578125 -7.3125 2.703125 -6.75 C 3.390625 -6.234375 3.953125 -7.703125 1.828125 -8.5625 Z M 8.828125 -6.09375 C 8.765625 -5.6875 8.640625 -5.1875 8.546875 -4.84375 L 8.6875 -4.78125 C 9.015625 -5.09375 9.4375 -5.609375 9.671875 -5.953125 C 9.859375 -5.96875 9.984375 -5.984375 10.0625 -6.0625 L 9.234375 -6.875 L 8.765625 -6.40625 L 7.09375 -6.40625 C 7.6875 -6.96875 8.21875 -7.65625 8.5625 -8.125 C 8.796875 -8.09375 8.890625 -8.125 8.953125 -8.25 L 7.90625 -8.796875 C 7.6875 -8.15625 7.25 -7.140625 6.78125 -6.40625 L 1.71875 -6.40625 C 1.6875 -6.578125 1.640625 -6.78125 1.578125 -6.96875 L 1.390625 -6.96875 C 1.46875 -6.3125 1.140625 -5.6875 0.75 -5.453125 C 0.53125 -5.3125 0.390625 -5.09375 0.5 -4.875 C 0.609375 -4.625 1 -4.625 1.25 -4.8125 C 1.53125 -5.03125 1.765625 -5.453125 1.75 -6.09375 Z M 7.5 -1.3125 C 7.796875 -1.3125 8.046875 -1.46875 8.046875 -1.515625 L 8.046875 -4.578125 C 8.265625 -4.625 8.375 -4.6875 8.453125 -4.75 L 7.6875 -5.34375 L 7.34375 -4.9375 L 3.203125 -4.9375 L 2.4375 -5.265625 L 2.4375 -1.21875 L 2.546875 -1.21875 C 2.859375 -1.21875 3.078125 -1.359375 3.078125 -1.421875 L 3.078125 -4.625 L 7.390625 -4.625 L 7.390625 -1.3125 Z M 4.75 -4.0625 C 4.71875 -2.046875 4.65625 -0.421875 0.5625 0.765625 L 0.671875 0.953125 C 5.234375 -0.125 5.328125 -1.8125 5.4375 -3.6875 C 5.65625 -3.703125 5.765625 -3.8125 5.78125 -3.9375 Z M 9.546875 -1.5625 L 9.421875 -1.5625 C 9.28125 -0.921875 9.171875 -0.34375 9.09375 -0.140625 C 9.046875 -0.03125 9.03125 -0.015625 8.890625 0 C 8.734375 0.015625 8.328125 0.015625 7.78125 0.015625 L 6.578125 0.015625 C 6.171875 0.015625 6.109375 -0.015625 6.109375 -0.171875 L 6.109375 -2.234375 C 6.296875 -2.265625 6.40625 -2.359375 6.421875 -2.484375 L 5.484375 -2.59375 L 5.484375 -0.03125 C 5.484375 0.46875 5.640625 0.609375 6.5 0.609375 L 7.75 0.609375 C 9.53125 0.609375 9.875 0.484375 9.875 0.1875 C 9.875 0.0625 9.8125 -0.015625 9.578125 -0.09375 Z M 9.546875 -1.5625 "/>
</symbol>
<symbol overflow="visible" id="glyph3-10">
<path style="stroke:none;" d="M 9.640625 -7.546875 C 9.8125 -7.546875 9.90625 -7.59375 9.9375 -7.71875 C 9.546875 -8.0625 8.921875 -8.53125 8.921875 -8.53125 L 8.375 -7.84375 L 0.484375 -7.84375 L 0.578125 -7.546875 L 5.25 -7.546875 C 4.421875 -5.296875 2.484375 -2.8125 0.328125 -1.171875 L 0.453125 -1.046875 C 2.1875 -2.125 3.71875 -3.609375 4.875 -5.25 L 4.875 0.8125 L 5 0.8125 C 5.265625 0.8125 5.5625 0.65625 5.5625 0.609375 L 5.5625 -5.640625 C 5.75 -5.671875 5.84375 -5.734375 5.890625 -5.828125 L 5.375 -6.015625 C 5.6875 -6.515625 5.953125 -7.03125 6.171875 -7.546875 Z M 6.078125 -4.828125 C 7.21875 -4.09375 8.84375 -2.75 9.40625 -1.75 C 10.359375 -1.265625 10.515625 -3.3125 6.171875 -4.9375 Z M 6.078125 -4.828125 "/>
</symbol>
<symbol overflow="visible" id="glyph3-11">
<path style="stroke:none;" d="M 8.5625 -3.5625 L 8.5625 -0.421875 L 5.546875 -0.421875 L 5.546875 -4.453125 L 8.046875 -4.453125 L 8.046875 -3.90625 L 8.171875 -3.90625 C 8.421875 -3.90625 8.71875 -4.0625 8.71875 -4.125 L 8.71875 -7.40625 C 8.96875 -7.4375 9.078125 -7.53125 9.09375 -7.671875 L 8.046875 -7.78125 L 8.046875 -4.765625 L 5.546875 -4.765625 L 5.546875 -8.296875 C 5.796875 -8.34375 5.890625 -8.453125 5.921875 -8.59375 L 4.84375 -8.703125 L 4.84375 -4.765625 L 2.390625 -4.765625 L 2.390625 -7.4375 C 2.71875 -7.484375 2.8125 -7.578125 2.828125 -7.703125 L 1.734375 -7.796875 L 1.734375 -4.8125 C 1.625 -4.75 1.5 -4.65625 1.4375 -4.578125 L 2.203125 -4.0625 L 2.46875 -4.453125 L 4.84375 -4.453125 L 4.84375 -0.421875 L 1.890625 -0.421875 L 1.890625 -3.265625 C 2.203125 -3.296875 2.296875 -3.390625 2.328125 -3.515625 L 1.21875 -3.625 L 1.21875 -0.453125 C 1.109375 -0.390625 1 -0.296875 0.921875 -0.234375 L 1.6875 0.328125 L 1.96875 -0.109375 L 8.5625 -0.109375 L 8.5625 0.71875 L 8.6875 0.71875 C 8.9375 0.71875 9.234375 0.578125 9.234375 0.484375 L 9.234375 -3.171875 C 9.484375 -3.203125 9.578125 -3.296875 9.609375 -3.453125 Z M 8.5625 -3.5625 "/>
</symbol>
<symbol overflow="visible" id="glyph3-12">
<path style="stroke:none;" d="M 2.421875 -4.5 C 2.796875 -4.5 3.078125 -4.796875 3.078125 -5.140625 C 3.078125 -5.515625 2.796875 -5.796875 2.421875 -5.796875 C 2.03125 -5.796875 1.75 -5.515625 1.75 -5.140625 C 1.75 -4.796875 2.03125 -4.5 2.421875 -4.5 Z M 1.78125 1.3125 C 2.78125 0.828125 3.09375 -0.09375 3.09375 -0.78125 C 3.09375 -1.359375 2.828125 -1.6875 2.390625 -1.6875 C 2 -1.6875 1.78125 -1.40625 1.78125 -1.09375 C 1.78125 -0.734375 2.046875 -0.484375 2.546875 -0.265625 C 2.421875 0.234375 2.15625 0.671875 1.59375 1 Z M 1.78125 1.3125 "/>
</symbol>
<symbol overflow="visible" id="glyph3-13">
<path style="stroke:none;" d="M 5.8125 -2.546875 L 0.484375 -2.546875 L 0.5625 -2.25 L 7 -2.25 C 7.15625 -2.25 7.265625 -2.296875 7.296875 -2.421875 C 6.921875 -2.75 6.328125 -3.203125 6.328125 -3.203125 Z M 8.234375 -6.84375 L 3.21875 -6.84375 C 3.296875 -7.390625 3.375 -7.90625 3.421875 -8.296875 C 3.671875 -8.28125 3.78125 -8.390625 3.8125 -8.515625 L 2.78125 -8.78125 C 2.71875 -7.84375 2.421875 -5.921875 2.21875 -4.84375 C 2.0625 -4.78125 1.90625 -4.6875 1.796875 -4.625 L 2.5625 -4.0625 L 2.90625 -4.421875 L 8.21875 -4.421875 C 8.0625 -2.375 7.71875 -0.515625 7.3125 -0.203125 C 7.171875 -0.078125 7.0625 -0.046875 6.828125 -0.046875 C 6.5625 -0.046875 5.546875 -0.140625 4.9375 -0.203125 L 4.9375 -0.03125 C 5.453125 0.046875 6.046875 0.171875 6.234375 0.3125 C 6.421875 0.421875 6.484375 0.609375 6.484375 0.8125 C 7.015625 0.8125 7.46875 0.671875 7.78125 0.390625 C 8.359375 -0.125 8.734375 -2.078125 8.90625 -4.328125 C 9.140625 -4.34375 9.265625 -4.40625 9.328125 -4.484375 L 8.546875 -5.15625 L 8.125 -4.71875 L 2.875 -4.71875 C 2.984375 -5.234375 3.078125 -5.890625 3.171875 -6.53125 L 9.453125 -6.53125 C 9.59375 -6.53125 9.703125 -6.578125 9.734375 -6.703125 C 9.359375 -7.046875 8.75 -7.5 8.75 -7.5 Z M 8.234375 -6.84375 "/>
</symbol>
<symbol overflow="visible" id="glyph3-14">
<path style="stroke:none;" d="M 8.125 -8 L 8.125 -6.90625 L 5.078125 -6.90625 L 5.078125 -8 Z M 5.078125 -5.5 L 5.078125 -6.578125 L 8.125 -6.578125 L 8.125 -5.5 Z M 5.078125 -5.1875 L 8.125 -5.1875 L 8.125 -4.828125 L 8.25 -4.828125 C 8.546875 -4.828125 8.8125 -4.96875 8.8125 -5.015625 L 8.8125 -7.9375 C 9.015625 -7.984375 9.125 -8.046875 9.203125 -8.125 L 8.4375 -8.703125 L 8.09375 -8.296875 L 5.203125 -8.296875 L 4.4375 -8.625 L 4.4375 -4.71875 L 4.53125 -4.71875 C 4.875 -4.71875 5.078125 -4.875 5.078125 -4.90625 Z M 2.609375 -8.75 C 2.15625 -7.9375 1.21875 -6.71875 0.328125 -5.921875 L 0.453125 -5.796875 C 1.5 -6.453125 2.59375 -7.4375 3.171875 -8.140625 C 3.421875 -8.09375 3.5 -8.125 3.578125 -8.25 Z M 2.765625 -6.671875 C 2.296875 -5.609375 1.3125 -4.03125 0.328125 -3 L 0.4375 -2.890625 C 0.921875 -3.234375 1.390625 -3.671875 1.8125 -4.125 L 1.8125 0.8125 L 1.953125 0.8125 C 2.203125 0.8125 2.484375 0.625 2.484375 0.578125 L 2.484375 -4.5625 C 2.671875 -4.59375 2.765625 -4.65625 2.796875 -4.75 L 2.484375 -4.875 C 2.828125 -5.296875 3.125 -5.71875 3.359375 -6.078125 C 3.609375 -6.03125 3.703125 -6.078125 3.765625 -6.1875 Z M 4.421875 -2.0625 C 4.8125 -1.71875 5.328125 -1.125 5.484375 -0.65625 C 6.1875 -0.21875 6.703125 -1.625 4.53125 -2.15625 Z M 8.796875 -2.6875 L 8.203125 -2.6875 L 8.203125 -3.890625 L 9.453125 -3.890625 C 9.578125 -3.890625 9.6875 -3.9375 9.71875 -4.0625 C 9.375 -4.375 8.828125 -4.8125 8.828125 -4.8125 L 8.34375 -4.1875 L 3.8125 -4.1875 L 3.890625 -3.890625 L 7.5 -3.890625 L 7.5 -2.6875 L 3.296875 -2.6875 L 3.375 -2.390625 L 7.5 -2.390625 L 7.5 -0.1875 C 7.5 -0.046875 7.46875 0.015625 7.265625 0.015625 C 7.0625 0.015625 6 -0.0625 6 -0.0625 L 6 0.09375 C 6.46875 0.15625 6.75 0.234375 6.90625 0.34375 C 7.03125 0.453125 7.09375 0.625 7.09375 0.84375 C 8.0625 0.734375 8.203125 0.359375 8.203125 -0.171875 L 8.203125 -2.390625 L 9.875 -2.390625 C 10.015625 -2.390625 10.109375 -2.4375 10.140625 -2.546875 C 9.8125 -2.859375 9.28125 -3.296875 9.28125 -3.296875 Z M 8.796875 -2.6875 "/>
</symbol>
<symbol overflow="visible" id="glyph3-15">
<path style="stroke:none;" d="M 4 -5.796875 L 4 -3.375 L 1.890625 -3.375 C 1.90625 -3.8125 1.90625 -4.234375 1.90625 -4.625 L 1.90625 -5.796875 Z M 4 -3.078125 L 4 -2.5 L 4.09375 -2.5 C 4.3125 -2.5 4.625 -2.640625 4.640625 -2.703125 L 4.640625 -5.671875 C 4.84375 -5.71875 5.03125 -5.796875 5.09375 -5.890625 L 4.265625 -6.515625 L 3.890625 -6.109375 L 1.90625 -6.109375 L 1.90625 -7.421875 C 2.859375 -7.59375 3.90625 -7.875 4.578125 -8.09375 C 4.828125 -8 5 -8.015625 5.09375 -8.09375 L 4.28125 -8.765625 C 3.75 -8.453125 2.75 -7.984375 1.875 -7.671875 L 1.25 -7.875 L 1.25 -4.625 C 1.25 -2.828125 1.203125 -0.859375 0.390625 0.734375 L 0.546875 0.84375 C 1.484375 -0.265625 1.78125 -1.71875 1.875 -3.078125 Z M 8.765625 -5.328125 L 6.390625 -5.328125 L 6.390625 -7.5 C 7.46875 -7.609375 8.640625 -7.8125 9.390625 -7.984375 C 9.640625 -7.875 9.84375 -7.875 9.953125 -7.96875 L 9.078125 -8.765625 C 8.484375 -8.46875 7.453125 -8.078125 6.484375 -7.78125 L 5.734375 -8.0625 L 5.734375 -5.15625 C 5.734375 -3.046875 5.421875 -0.96875 3.71875 0.703125 L 3.875 0.84375 C 6.078125 -0.734375 6.390625 -3.078125 6.390625 -5.015625 L 8 -5.015625 L 8 0.78125 L 8.09375 0.78125 C 8.453125 0.78125 8.671875 0.59375 8.671875 0.546875 L 8.671875 -5.015625 L 9.859375 -5.015625 C 10 -5.015625 10.09375 -5.0625 10.125 -5.1875 C 9.796875 -5.515625 9.234375 -5.9375 9.234375 -5.9375 Z M 8.765625 -5.328125 "/>
</symbol>
<symbol overflow="visible" id="glyph3-16">
<path style="stroke:none;" d="M 3.71875 -8.125 C 4.3125 -7.3125 5.09375 -6.015625 5.296875 -5.046875 C 6.125 -4.375 6.6875 -6.3125 3.84375 -8.203125 Z M 5.671875 -3.203125 C 4.484375 -2.515625 3.3125 -1.8125 2.484375 -1.34375 L 2.484375 -7.75 C 2.734375 -7.796875 2.859375 -7.890625 2.875 -8.046875 L 1.78125 -8.171875 L 1.78125 -1.34375 C 1.78125 -1.125 1.734375 -1.078125 1.40625 -0.90625 L 1.875 0.015625 C 1.96875 -0.015625 2.09375 -0.140625 2.15625 -0.328125 C 3.671875 -1.40625 4.96875 -2.453125 5.75 -3.0625 Z M 7.9375 -8.359375 C 7.875 -3.765625 7.65625 -1.296875 2.828125 0.640625 L 2.921875 0.84375 C 5.5 0.015625 6.90625 -1 7.671875 -2.3125 C 8.421875 -1.484375 9.21875 -0.296875 9.375 0.671875 C 10.25 1.34375 10.8125 -0.765625 7.78125 -2.53125 C 8.53125 -3.9375 8.625 -5.703125 8.6875 -7.9375 C 8.953125 -7.96875 9.046875 -8.078125 9.078125 -8.234375 Z M 7.9375 -8.359375 "/>
</symbol>
<symbol overflow="visible" id="glyph3-17">
<path style="stroke:none;" d="M 0.40625 -1.625 C 1.34375 -0.96875 1.765625 -0.328125 2.09375 0.359375 C 2.25 0.671875 2.390625 0.796875 2.609375 0.796875 C 2.859375 0.796875 3.03125 0.625 3.03125 0.328125 C 3.03125 0.09375 2.96875 -0.109375 2.78125 -0.375 C 2.4375 -0.875 1.78125 -1.40625 0.515625 -1.8125 Z M 0.40625 -1.625 "/>
</symbol>
<symbol overflow="visible" id="glyph3-18">
<path style="stroke:none;" d="M 4.640625 -4.46875 L 3.421875 -4.46875 L 3.421875 -6.390625 L 5.453125 -6.390625 C 5.59375 -6.390625 5.703125 -6.453125 5.734375 -6.5625 C 5.390625 -6.890625 4.84375 -7.3125 4.84375 -7.3125 L 4.375 -6.71875 L 3.421875 -6.71875 L 3.421875 -8.296875 C 3.6875 -8.328125 3.796875 -8.4375 3.8125 -8.578125 L 2.765625 -8.703125 L 2.765625 -6.71875 L 0.671875 -6.71875 L 0.765625 -6.390625 L 2.765625 -6.390625 L 2.765625 -4.46875 L 0.390625 -4.46875 L 0.484375 -4.15625 L 2.6875 -4.15625 C 2.328125 -3.359375 1.5 -1.96875 0.828125 -1.375 C 0.734375 -1.328125 0.546875 -1.28125 0.546875 -1.28125 L 0.953125 -0.28125 C 1.046875 -0.3125 1.140625 -0.390625 1.21875 -0.515625 C 2.578125 -0.875 3.8125 -1.234375 4.65625 -1.5 C 4.84375 -1.09375 4.953125 -0.65625 4.96875 -0.296875 C 5.703125 0.390625 6.375 -1.5 3.90625 -3.046875 L 3.78125 -2.984375 C 4.046875 -2.640625 4.34375 -2.1875 4.578125 -1.703125 C 3.28125 -1.515625 2.046875 -1.34375 1.25 -1.28125 C 2.015625 -1.953125 2.890625 -2.9375 3.359375 -3.671875 C 3.59375 -3.640625 3.71875 -3.75 3.765625 -3.84375 L 2.9375 -4.15625 L 5.75 -4.15625 C 5.890625 -4.15625 6 -4.21875 6.03125 -4.328125 C 5.6875 -4.65625 5.125 -5.078125 5.125 -5.078125 Z M 9.140625 -8.140625 L 8.796875 -7.71875 L 6.9375 -7.71875 L 6.171875 -8.125 L 6.171875 0.8125 L 6.265625 0.8125 C 6.59375 0.8125 6.8125 0.625 6.8125 0.5625 L 6.8125 -7.40625 L 8.890625 -7.40625 L 8.890625 -2.015625 C 8.890625 -1.859375 8.84375 -1.796875 8.671875 -1.796875 C 8.453125 -1.796875 7.5 -1.875 7.5 -1.875 L 7.5 -1.703125 C 7.9375 -1.65625 8.1875 -1.5625 8.328125 -1.453125 C 8.453125 -1.34375 8.5 -1.15625 8.53125 -0.9375 C 9.453125 -1.046875 9.5625 -1.375 9.5625 -1.9375 L 9.5625 -7.28125 C 9.78125 -7.3125 9.9375 -7.40625 10 -7.484375 Z M 9.140625 -8.140625 "/>
</symbol>
<symbol overflow="visible" id="glyph3-19">
<path style="stroke:none;" d="M 7.65625 -5 L 7.65625 -3.6875 L 3.578125 -3.6875 L 3.578125 -5 Z M 3.578125 -2.046875 L 3.578125 -3.375 L 7.65625 -3.375 L 7.65625 -2.046875 Z M 8.546875 -7.125 L 4.59375 -7.125 C 4.78125 -7.515625 4.953125 -7.90625 5.09375 -8.28125 C 5.390625 -8.265625 5.484375 -8.328125 5.515625 -8.453125 L 4.4375 -8.796875 C 4.28125 -8.265625 4.0625 -7.6875 3.8125 -7.125 L 0.515625 -7.125 L 0.609375 -6.828125 L 3.65625 -6.828125 C 2.921875 -5.359375 1.84375 -3.90625 0.4375 -2.890625 L 0.546875 -2.765625 C 1.46875 -3.28125 2.265625 -3.953125 2.921875 -4.6875 L 2.921875 0.8125 L 3.03125 0.8125 C 3.359375 0.8125 3.578125 0.625 3.578125 0.5625 L 3.578125 -1.734375 L 7.65625 -1.734375 L 7.65625 -0.28125 C 7.65625 -0.125 7.609375 -0.046875 7.40625 -0.046875 C 7.1875 -0.046875 6.09375 -0.140625 6.09375 -0.140625 L 6.09375 0.03125 C 6.578125 0.09375 6.84375 0.1875 7 0.296875 C 7.15625 0.40625 7.203125 0.578125 7.25 0.8125 C 8.234375 0.703125 8.34375 0.359375 8.34375 -0.1875 L 8.34375 -4.84375 C 8.578125 -4.890625 8.765625 -4.984375 8.84375 -5.078125 L 7.90625 -5.765625 L 7.53125 -5.328125 L 3.703125 -5.328125 L 3.515625 -5.40625 C 3.875 -5.859375 4.171875 -6.34375 4.4375 -6.828125 L 9.734375 -6.828125 C 9.875 -6.828125 9.96875 -6.875 10 -7 C 9.640625 -7.328125 9.0625 -7.765625 9.0625 -7.765625 Z M 8.546875 -7.125 "/>
</symbol>
<symbol overflow="visible" id="glyph3-20">
<path style="stroke:none;" d="M 2.546875 -8.765625 C 2.03125 -6.765625 1.140625 -4.71875 0.28125 -3.421875 L 0.421875 -3.328125 C 0.875 -3.78125 1.3125 -4.34375 1.71875 -4.96875 L 1.71875 0.8125 L 1.84375 0.8125 C 2.109375 0.8125 2.390625 0.625 2.40625 0.5625 L 2.40625 -5.59375 C 2.59375 -5.625 2.703125 -5.703125 2.734375 -5.796875 L 2.296875 -5.953125 C 2.671875 -6.65625 2.984375 -7.421875 3.28125 -8.203125 C 3.515625 -8.203125 3.640625 -8.296875 3.6875 -8.40625 Z M 8.6875 -4.90625 L 5.78125 -4.90625 C 5.953125 -5.515625 6.125 -6.140625 6.28125 -6.71875 L 9.296875 -6.71875 C 9.4375 -6.71875 9.546875 -6.765625 9.5625 -6.875 C 9.234375 -7.203125 8.703125 -7.625 8.703125 -7.625 L 8.21875 -7.03125 L 6.359375 -7.03125 C 6.484375 -7.5 6.59375 -7.9375 6.671875 -8.3125 C 6.9375 -8.296875 7.046875 -8.390625 7.09375 -8.5 L 6.078125 -8.796875 C 5.984375 -8.328125 5.84375 -7.703125 5.671875 -7.03125 L 3.359375 -7.03125 L 3.453125 -6.71875 L 5.59375 -6.71875 C 5.4375 -6.125 5.265625 -5.484375 5.09375 -4.90625 L 2.78125 -4.90625 L 2.859375 -4.59375 L 5 -4.59375 C 4.84375 -4.09375 4.703125 -3.609375 4.5625 -3.234375 C 4.40625 -3.171875 4.234375 -3.09375 4.125 -3.015625 L 4.875 -2.421875 L 5.234375 -2.78125 L 8.03125 -2.78125 C 7.75 -2.21875 7.28125 -1.453125 6.90625 -0.90625 C 6.296875 -1.203125 5.46875 -1.484375 4.40625 -1.6875 L 4.328125 -1.546875 C 5.546875 -1.078125 7.34375 -0.0625 8 0.8125 C 8.6875 1 8.734375 0.078125 7.125 -0.78125 C 7.75 -1.34375 8.5 -2.125 8.890625 -2.65625 C 9.109375 -2.671875 9.234375 -2.6875 9.328125 -2.765625 L 8.515625 -3.53125 L 8.0625 -3.09375 L 5.234375 -3.09375 C 5.375 -3.53125 5.515625 -4.0625 5.6875 -4.59375 L 9.8125 -4.59375 C 9.96875 -4.59375 10.0625 -4.65625 10.09375 -4.765625 C 9.75 -5.09375 9.171875 -5.546875 9.171875 -5.546875 Z M 8.6875 -4.90625 "/>
</symbol>
<symbol overflow="visible" id="glyph3-21">
<path style="stroke:none;" d="M 4.375 -8.59375 C 4.75 -8.234375 5.171875 -7.625 5.28125 -7.15625 C 5.953125 -6.671875 6.515625 -8.046875 4.5 -8.671875 Z M 4.46875 -3.921875 C 4.578125 -4.28125 4.6875 -4.734375 4.765625 -5.09375 L 6.234375 -5.09375 L 6.234375 -3.921875 Z M 6.890625 -6.703125 L 8.53125 -6.703125 L 8.53125 -5.40625 L 6.890625 -5.40625 Z M 3.390625 -0.875 C 4.578125 -1.4375 5.5625 -2.171875 6.234375 -3.109375 L 6.234375 -0.484375 L 6.34375 -0.484375 C 6.671875 -0.484375 6.890625 -0.625 6.890625 -0.671875 L 6.890625 -3.609375 L 8.96875 -3.609375 C 8.921875 -2.65625 8.828125 -2.15625 8.671875 -2.046875 C 8.625 -1.984375 8.546875 -1.96875 8.421875 -1.96875 C 8.234375 -1.96875 7.765625 -2 7.5 -2.03125 L 7.5 -1.84375 C 7.75 -1.8125 8 -1.75 8.109375 -1.65625 C 8.234375 -1.5625 8.25 -1.40625 8.25 -1.25 C 8.578125 -1.25 8.890625 -1.3125 9.09375 -1.46875 C 9.40625 -1.71875 9.546875 -2.3125 9.609375 -3.53125 C 9.8125 -3.5625 9.9375 -3.609375 10 -3.6875 L 9.25 -4.28125 L 8.890625 -3.921875 L 6.890625 -3.921875 L 6.890625 -5.09375 L 8.53125 -5.09375 L 8.53125 -4.6875 L 8.640625 -4.6875 C 8.84375 -4.6875 9.171875 -4.828125 9.1875 -4.875 L 9.1875 -6.5625 C 9.390625 -6.609375 9.5625 -6.703125 9.625 -6.78125 L 8.796875 -7.40625 L 8.421875 -7.015625 L 7.640625 -7.015625 C 8.046875 -7.390625 8.453125 -7.859375 8.71875 -8.203125 C 8.921875 -8.171875 9.046875 -8.25 9.109375 -8.375 L 8.046875 -8.78125 C 7.875 -8.25 7.59375 -7.53125 7.34375 -7.015625 L 3.71875 -7.015625 L 3.8125 -6.703125 L 6.234375 -6.703125 L 6.234375 -5.40625 L 5 -5.40625 L 4.21875 -5.78125 C 4.15625 -5.328125 4.015625 -4.546875 3.875 -4.03125 C 3.703125 -3.984375 3.546875 -3.90625 3.4375 -3.84375 L 4.15625 -3.265625 L 4.5 -3.609375 L 5.78125 -3.609375 C 5.234375 -2.609375 4.34375 -1.703125 3.28125 -1.046875 Z M 1.03125 -8.515625 C 1.46875 -7.9375 2.078125 -7.03125 2.265625 -6.359375 C 2.984375 -5.8125 3.5 -7.34375 1.15625 -8.578125 Z M 2.5625 -4.796875 C 2.859375 -4.84375 3 -4.921875 3.0625 -5 L 2.1875 -5.734375 L 1.78125 -5.21875 L 0.453125 -5.21875 L 0.515625 -4.90625 L 1.9375 -4.90625 L 1.9375 -1.296875 C 1.5 -0.96875 0.84375 -0.359375 0.421875 -0.015625 L 1.046875 0.734375 C 1.125 0.671875 1.140625 0.578125 1.09375 0.5 C 1.421875 0 1.96875 -0.75 2.203125 -1.078125 C 2.296875 -1.21875 2.390625 -1.25 2.515625 -1.078125 C 3.484375 0.1875 4.484375 0.546875 6.453125 0.546875 L 9.453125 0.546875 C 9.5 0.234375 9.671875 0.03125 9.96875 -0.03125 L 9.96875 -0.171875 C 8.78125 -0.125 7.84375 -0.125 6.671875 -0.125 C 4.75 -0.109375 3.625 -0.328125 2.6875 -1.375 C 2.640625 -1.421875 2.609375 -1.453125 2.5625 -1.484375 Z M 2.5625 -4.796875 "/>
</symbol>
<symbol overflow="visible" id="glyph4-0">
<path style="stroke:none;" d=""/>
</symbol>
<symbol overflow="visible" id="glyph4-1">
<path style="stroke:none;" d="M 7.34375 -2.609375 C 7.34375 -2.703125 7.28125 -2.78125 7.203125 -2.8125 C 7.1875 -2.8125 7.15625 -2.828125 7.125 -2.828125 L 6.296875 -2.828125 C 4.03125 -2.828125 1.625 -3.484375 1.21875 -5.546875 C 1.1875 -5.640625 1.109375 -5.71875 1 -5.71875 C 0.890625 -5.71875 0.796875 -5.625 0.796875 -5.515625 L 0.796875 -5.46875 C 1.125 -3.84375 2.546875 -2.984375 4.234375 -2.609375 C 2.546875 -2.25 1.125 -1.375 0.796875 0.234375 L 0.796875 0.28125 C 0.796875 0.390625 0.890625 0.484375 1 0.484375 C 1.109375 0.484375 1.1875 0.421875 1.21875 0.328125 C 1.625 -1.734375 4.03125 -2.40625 6.296875 -2.40625 L 7.125 -2.40625 C 7.15625 -2.40625 7.1875 -2.421875 7.203125 -2.421875 C 7.28125 -2.453125 7.34375 -2.53125 7.34375 -2.609375 Z M 7.34375 -2.609375 "/>
</symbol>
</g>
</defs>
<g id="surface1">
<path style="fill:none;stroke-width:1.00002;stroke-linecap:round;stroke-linejoin:round;stroke:rgb(29.017639%,32.154846%,38.822937%);stroke-opacity:1;stroke-miterlimit:10;" d="M 63.122507 68.593168 L 63.122507 75.437733 " transform="matrix(0.999881,0,0,-0.999881,0.0217262,167.960002)"/>
<path style="fill:none;stroke-width:1.00002;stroke-linecap:round;stroke-linejoin:round;stroke:rgb(29.017639%,32.154846%,38.822937%);stroke-opacity:1;stroke-miterlimit:10;" d="M 233.181815 68.593168 L 233.181815 75.437733 " transform="matrix(0.999881,0,0,-0.999881,0.0217262,167.960002)"/>
<path style="fill:none;stroke-width:1.40001;stroke-linecap:round;stroke-linejoin:round;stroke:rgb(5.880737%,48.234558%,42.350769%);stroke-opacity:1;stroke-miterlimit:10;" d="M 63.122507 77.715348 L 64.833648 78.621706 L 65.693126 79.070978 L 66.548696 79.52025 L 67.408174 79.969523 L 68.263744 80.414888 L 69.123222 80.860254 L 69.978792 81.301712 L 70.838269 81.743171 L 71.69384 82.180723 L 72.553317 82.614369 L 73.408888 83.044107 L 74.268365 83.473846 L 75.123936 83.895771 L 75.983413 84.31379 L 76.838984 84.727902 L 77.698461 85.138107 L 78.554032 85.544405 L 79.413509 85.94289 L 80.26908 86.333561 L 81.128557 86.720326 L 81.984128 87.103184 L 82.843605 87.478229 L 83.699175 87.84546 L 84.558653 88.204878 L 85.414223 88.556482 L 86.269794 88.90418 L 87.129271 89.240157 L 87.984842 89.572228 L 88.844319 89.892579 L 89.69989 90.205116 L 90.559367 90.50984 L 91.414938 90.802843 L 92.274415 91.088034 L 93.129986 91.36541 L 93.989463 91.634974 L 94.845034 91.892817 L 95.704511 92.13894 L 96.560082 92.37725 L 97.419559 92.603839 L 98.275129 92.822615 L 99.134607 93.029671 L 99.990177 93.225007 L 100.849655 93.408622 L 101.705225 93.584425 L 102.564703 93.7446 L 103.420273 93.900869 L 104.279751 94.04151 L 105.135321 94.166525 L 105.994798 94.287633 L 106.850369 94.393115 L 107.709846 94.486876 L 108.565417 94.568917 L 109.424894 94.643144 L 110.280465 94.701745 L 111.139942 94.748626 L 111.995513 94.783786 L 112.851083 94.807226 L 113.710561 94.818947 L 114.566131 94.818947 L 115.425609 94.807226 L 116.281179 94.783786 L 117.140657 94.748626 L 117.996227 94.701745 L 118.855705 94.643144 L 119.711275 94.568917 L 120.570752 94.486876 L 121.426323 94.393115 L 122.281894 94.287633 L 123.141371 94.166525 L 123.996942 94.04151 L 124.856419 93.900869 L 125.71199 93.7446 L 126.571467 93.584425 L 127.427037 93.408622 L 128.286515 93.225007 L 129.142085 93.029671 L 130.001563 92.822615 L 130.857133 92.603839 L 131.716611 92.37725 L 132.572181 92.13894 L 133.431659 91.892817 L 134.287229 91.634974 L 135.146706 91.36541 L 136.002277 91.088034 L 136.861754 90.802843 L 137.717325 90.50984 L 138.576802 90.205116 L 139.432373 89.892579 L 140.29185 89.572228 L 141.147421 89.240157 L 142.006898 88.90418 L 142.862469 88.556482 L 143.721946 88.204878 L 144.577517 87.84546 L 145.436994 87.478229 L 146.292565 87.103184 L 147.152042 86.720326 L 148.007613 86.333561 L 148.863183 85.94289 L 149.72266 85.544405 L 150.578231 85.138107 L 151.437708 84.727902 L 152.293279 84.31379 L 153.152756 83.895771 L 154.008327 83.473846 L 154.867804 83.044107 L 155.723375 82.614369 L 156.582852 82.180723 L 157.438423 81.743171 L 158.2979 81.301712 L 159.153471 80.860254 L 160.012948 80.414888 L 160.868519 79.969523 L 161.727996 79.52025 L 162.583566 79.070978 L 163.443044 78.621706 L 164.298614 78.168527 L 165.158092 77.715348 " transform="matrix(0.999881,0,0,-0.999881,0.0217262,167.960002)"/>
<path style="fill:none;stroke-width:1.40001;stroke-linecap:round;stroke-linejoin:round;stroke:rgb(5.880737%,48.234558%,42.350769%);stroke-opacity:1;stroke-miterlimit:10;" d="M 165.158092 77.715348 L 166.013662 78.168527 L 166.87314 78.621706 L 167.72871 79.070978 L 168.588188 79.52025 L 169.443758 79.969523 L 170.299329 80.414888 L 171.158806 80.860254 L 172.014377 81.301712 L 172.873854 81.743171 L 173.729425 82.180723 L 174.588902 82.614369 L 175.444473 83.044107 L 176.30395 83.473846 L 177.15952 83.895771 L 178.018998 84.31379 L 178.874568 84.727902 L 179.734046 85.138107 L 180.589616 85.544405 L 181.449094 85.94289 L 182.304664 86.333561 L 183.164142 86.720326 L 184.019712 87.103184 L 184.879189 87.478229 L 185.73476 87.84546 L 186.590331 88.204878 L 187.449808 88.556482 L 188.305379 88.90418 L 189.164856 89.240157 L 190.020427 89.572228 L 190.879904 89.892579 L 191.735474 90.205116 L 192.594952 90.50984 L 193.450522 90.802843 L 194.31 91.088034 L 195.16557 91.36541 L 196.025048 91.634974 L 196.880618 91.892817 L 197.740096 92.13894 L 198.595666 92.37725 L 199.455143 92.603839 L 200.310714 92.822615 L 201.170191 93.029671 L 202.025762 93.225007 L 202.885239 93.408622 L 203.74081 93.584425 L 204.600287 93.7446 L 205.455858 93.900869 L 206.315335 94.04151 L 207.170906 94.166525 L 208.030383 94.287633 L 208.885954 94.393115 L 209.745431 94.486876 L 210.601002 94.568917 L 211.460479 94.643144 L 212.31605 94.701745 L 213.17162 94.748626 L 214.031097 94.783786 L 214.886668 94.807226 L 215.746145 94.818947 L 216.601716 94.818947 L 217.461193 94.807226 L 218.316764 94.783786 L 219.176241 94.748626 L 220.031812 94.701745 L 220.891289 94.643144 L 221.74686 94.568917 L 222.606337 94.486876 L 223.461908 94.393115 L 224.321385 94.287633 L 225.176956 94.166525 L 226.036433 94.04151 L 226.892004 93.900869 L 227.747574 93.7446 L 228.607051 93.584425 L 229.462622 93.408622 L 230.322099 93.225007 L 231.17767 93.029671 L 232.037147 92.822615 L 232.892718 92.603839 L 233.752195 92.37725 L 234.607766 92.13894 L 235.467243 91.892817 L 236.322814 91.634974 L 237.182291 91.36541 L 238.037862 91.088034 L 238.897339 90.802843 L 239.75291 90.50984 L 240.612387 90.205116 L 241.467957 89.892579 L 242.327435 89.572228 L 243.183005 89.240157 L 244.042483 88.90418 L 244.898053 88.556482 L 245.757531 88.204878 L 246.613101 87.84546 L 247.472579 87.478229 L 248.328149 87.103184 L 249.18372 86.720326 L 250.043197 86.333561 L 250.898768 85.94289 L 251.758245 85.544405 L 252.613816 85.138107 L 253.473293 84.727902 L 254.328864 84.31379 L 255.188341 83.895771 L 256.043911 83.473846 L 256.903389 83.044107 L 257.758959 82.614369 L 258.618437 82.180723 L 259.474007 81.743171 L 260.333485 81.301712 L 261.189055 80.860254 L 262.048533 80.414888 L 262.904103 79.969523 L 263.76358 79.52025 L 264.619151 79.070978 L 265.478628 78.621706 L 266.334199 78.168527 L 267.193676 77.715348 " transform="matrix(0.999881,0,0,-0.999881,0.0217262,167.960002)"/>
<path style="fill:none;stroke-width:1.40001;stroke-linecap:round;stroke-linejoin:round;stroke:rgb(75.292969%,22.351074%,16.860962%);stroke-opacity:1;stroke-miterlimit:10;" d="M 63.122507 77.715348 L 64.833648 79.297568 L 68.263744 82.454193 L 69.978792 84.0286 L 73.408888 87.161785 L 75.123936 88.716658 L 76.838984 90.267624 L 78.554032 91.806869 L 80.26908 93.338302 L 81.984128 94.858014 L 83.699175 96.366006 L 85.414223 97.862278 L 87.129271 99.342923 L 88.844319 100.807941 L 90.559367 102.257332 L 92.274415 103.691097 L 93.989463 105.105327 L 95.704511 106.500025 L 97.419559 107.879095 L 99.134607 109.230819 L 100.849655 110.563008 L 102.564703 111.875665 L 104.279751 113.160974 L 105.994798 114.418936 L 107.709846 115.657365 L 109.424894 116.86454 L 111.139942 118.048274 L 112.851083 119.200755 L 114.566131 120.325889 L 116.281179 121.41977 L 117.996227 122.486303 L 119.711275 123.521582 L 121.426323 124.521701 L 123.141371 125.490567 L 124.856419 126.424272 L 126.571467 127.326723 L 128.286515 128.194014 L 130.001563 129.026144 L 131.716611 129.823114 L 133.431659 130.581016 L 135.146706 131.307665 L 136.861754 131.991341 L 138.576802 132.639855 L 140.29185 133.249303 L 142.006898 133.819683 L 143.721946 134.350997 L 145.436994 134.843243 L 147.152042 135.296422 L 148.863183 135.710533 L 150.578231 136.081671 L 152.293279 136.413742 L 154.008327 136.702839 L 155.723375 136.952869 L 157.438423 137.159925 L 159.153471 137.327913 L 160.868519 137.452928 L 162.583566 137.534969 L 164.298614 137.577943 L 166.013662 137.577943 L 167.72871 137.534969 L 169.443758 137.452928 L 171.158806 137.327913 L 172.873854 137.159925 L 174.588902 136.952869 L 176.30395 136.702839 L 178.018998 136.413742 L 179.734046 136.081671 L 181.449094 135.710533 L 183.164142 135.296422 L 184.879189 134.843243 L 186.590331 134.350997 L 188.305379 133.819683 L 190.020427 133.249303 L 191.735474 132.639855 L 193.450522 131.991341 L 195.16557 131.307665 L 196.880618 130.581016 L 198.595666 129.823114 L 200.310714 129.026144 L 202.025762 128.194014 L 203.74081 127.326723 L 205.455858 126.424272 L 207.170906 125.490567 L 208.885954 124.521701 L 210.601002 123.521582 L 212.31605 122.486303 L 214.031097 121.41977 L 215.746145 120.325889 L 217.461193 119.200755 L 219.176241 118.048274 L 220.891289 116.86454 L 222.606337 115.657365 L 224.321385 114.418936 L 226.036433 113.160974 L 227.747574 111.875665 L 229.462622 110.563008 L 231.17767 109.230819 L 232.892718 107.879095 L 234.607766 106.500025 L 236.322814 105.105327 L 238.037862 103.691097 L 239.75291 102.257332 L 241.467957 100.807941 L 243.183005 99.342923 L 244.898053 97.862278 L 246.613101 96.366006 L 248.328149 94.858014 L 250.043197 93.338302 L 251.758245 91.806869 L 253.473293 90.267624 L 255.188341 88.716658 L 256.903389 87.161785 L 260.333485 84.0286 L 262.048533 82.454193 L 265.478628 79.297568 L 267.193676 77.715348 " transform="matrix(0.999881,0,0,-0.999881,0.0217262,167.960002)"/>
<path style="fill:none;stroke-width:1.00002;stroke-linecap:round;stroke-linejoin:round;stroke:rgb(29.017639%,32.154846%,38.822937%);stroke-opacity:1;stroke-miterlimit:10;" d="M 14.104953 72.015451 C 126.145635 72.015451 237.811272 72.015451 349.105772 72.015451 " transform="matrix(0.999881,0,0,-0.999881,0.0217262,167.960002)"/>
<path style="fill-rule:nonzero;fill:rgb(29.017639%,32.154846%,38.822937%);fill-opacity:1;stroke-width:1.00002;stroke-linecap:round;stroke-linejoin:round;stroke:rgb(29.017639%,32.154846%,38.822937%);stroke-opacity:1;stroke-miterlimit:10;" d="M 344.70681 74.214931 L 349.105772 72.015451 L 344.70681 69.81597 Z M 344.70681 74.214931 " transform="matrix(0.999881,0,0,-0.999881,0.0217262,167.960002)"/>
<g style="fill:rgb(11.399841%,14.099121%,19.999695%);fill-opacity:1;">
  <use xlink:href="#glyph0-1" x="355.60239" y="98.415283"/>
</g>
<g style="fill:rgb(28.999329%,32.199097%,38.798523%);fill-opacity:1;">
  <use xlink:href="#glyph1-1" x="230.683263" y="112.37762"/>
</g>
<g style="fill:rgb(11.399841%,14.099121%,19.999695%);fill-opacity:1;">
  <use xlink:href="#glyph2-1" x="52.633462" y="112.71458"/>
</g>
<g style="fill:rgb(11.399841%,14.099121%,19.999695%);fill-opacity:1;">
  <use xlink:href="#glyph3-1" x="57.904835" y="112.71458"/>
</g>
<g style="fill:rgb(11.399841%,14.099121%,19.999695%);fill-opacity:1;">
  <use xlink:href="#glyph2-2" x="68.364589" y="112.71458"/>
</g>
<g style="fill:rgb(11.399841%,14.099121%,19.999695%);fill-opacity:1;">
  <use xlink:href="#glyph2-3" x="150.75578" y="112.79757"/>
</g>
<g style="fill:rgb(11.399841%,14.099121%,19.999695%);fill-opacity:1;">
  <use xlink:href="#glyph3-1" x="155.985157" y="112.79757"/>
</g>
<g style="fill:rgb(11.399841%,14.099121%,19.999695%);fill-opacity:1;">
  <use xlink:href="#glyph2-2" x="166.444912" y="112.79757"/>
</g>
<g style="fill:rgb(11.399841%,14.099121%,19.999695%);fill-opacity:1;">
  <use xlink:href="#glyph2-4" x="171.716527" y="112.79757"/>
  <use xlink:href="#glyph2-5" x="174.331416" y="112.79757"/>
</g>
<g style="fill:rgb(11.399841%,14.099121%,19.999695%);fill-opacity:1;">
  <use xlink:href="#glyph2-6" x="253.029603" y="112.71458"/>
</g>
<g style="fill:rgb(11.399841%,14.099121%,19.999695%);fill-opacity:1;">
  <use xlink:href="#glyph3-1" x="257.768038" y="112.71458"/>
</g>
<g style="fill:rgb(11.399841%,14.099121%,19.999695%);fill-opacity:1;">
  <use xlink:href="#glyph2-7" x="268.227793" y="112.71458"/>
  <use xlink:href="#glyph2-4" x="273.45757" y="112.71458"/>
  <use xlink:href="#glyph2-8" x="276.072459" y="112.71458"/>
</g>
<g style="fill:rgb(5.899048%,48.199463%,42.399597%);fill-opacity:1;">
  <use xlink:href="#glyph2-1" x="102.632509" y="66.194119"/>
</g>
<g style="fill:rgb(5.899048%,48.199463%,42.399597%);fill-opacity:1;">
  <use xlink:href="#glyph2-9" x="110.801421" y="66.194119"/>
</g>
<g style="fill:rgb(5.899048%,48.199463%,42.399597%);fill-opacity:1;">
  <use xlink:href="#glyph2-3" x="120.424212" y="66.194119"/>
</g>
<g style="fill:rgb(5.899048%,48.199463%,42.399597%);fill-opacity:1;">
  <use xlink:href="#glyph2-3" x="204.92233" y="66.194119"/>
</g>
<g style="fill:rgb(5.899048%,48.199463%,42.399597%);fill-opacity:1;">
  <use xlink:href="#glyph2-9" x="213.049404" y="66.194119"/>
</g>
<g style="fill:rgb(5.899048%,48.199463%,42.399597%);fill-opacity:1;">
  <use xlink:href="#glyph2-6" x="222.672195" y="66.194119"/>
</g>
<g style="fill:rgb(75.299072%,22.399902%,16.899109%);fill-opacity:1;">
  <use xlink:href="#glyph2-6" x="153.178491" y="23.062254"/>
</g>
<g style="fill:rgb(75.299072%,22.399902%,16.899109%);fill-opacity:1;">
  <use xlink:href="#glyph4-1" x="160.822581" y="23.062254"/>
</g>
<g style="fill:rgb(75.299072%,22.399902%,16.899109%);fill-opacity:1;">
  <use xlink:href="#glyph2-1" x="171.865266" y="23.062254"/>
</g>
<g style="fill:rgb(28.999329%,32.199097%,38.798523%);fill-opacity:1;">
  <use xlink:href="#glyph3-2" x="28.365352" y="140.155313"/>
  <use xlink:href="#glyph3-3" x="38.824906" y="140.155313"/>
  <use xlink:href="#glyph3-4" x="49.284461" y="140.155313"/>
  <use xlink:href="#glyph3-5" x="59.744016" y="140.155313"/>
  <use xlink:href="#glyph3-6" x="70.20357" y="140.155313"/>
</g>
<g style="fill:rgb(28.999329%,32.199097%,38.798523%);fill-opacity:1;">
  <use xlink:href="#glyph2-2" x="83.277814" y="140.155313"/>
</g>
<g style="fill:rgb(28.999329%,32.199097%,38.798523%);fill-opacity:1;">
  <use xlink:href="#glyph2-4" x="88.549429" y="140.155313"/>
  <use xlink:href="#glyph2-5" x="91.164318" y="140.155313"/>
</g>
<g style="fill:rgb(28.999329%,32.199097%,38.798523%);fill-opacity:1;">
  <use xlink:href="#glyph2-10" x="99.291392" y="140.155313"/>
</g>
<g style="fill:rgb(28.999329%,32.199097%,38.798523%);fill-opacity:1;">
  <use xlink:href="#glyph2-7" x="109.165211" y="140.155313"/>
</g>
<g style="fill:rgb(28.999329%,32.199097%,38.798523%);fill-opacity:1;">
  <use xlink:href="#glyph3-7" x="114.401108" y="140.155313"/>
  <use xlink:href="#glyph3-8" x="124.860663" y="140.155313"/>
  <use xlink:href="#glyph3-9" x="135.320217" y="140.155313"/>
  <use xlink:href="#glyph3-10" x="145.779772" y="140.155313"/>
  <use xlink:href="#glyph3-11" x="156.239327" y="140.155313"/>
  <use xlink:href="#glyph3-12" x="166.698881" y="140.155313"/>
</g>
<g style="fill:rgb(28.999329%,32.199097%,38.798523%);fill-opacity:1;">
  <use xlink:href="#glyph2-1" x="177.158636" y="140.155313"/>
</g>
<g style="fill:rgb(28.999329%,32.199097%,38.798523%);fill-opacity:1;">
  <use xlink:href="#glyph3-13" x="185.044697" y="140.155313"/>
</g>
<g style="fill:rgb(28.999329%,32.199097%,38.798523%);fill-opacity:1;">
  <use xlink:href="#glyph2-6" x="198.11914" y="140.155313"/>
</g>
<g style="fill:rgb(28.999329%,32.199097%,38.798523%);fill-opacity:1;">
  <use xlink:href="#glyph3-6" x="205.472265" y="140.155313"/>
</g>
<g style="fill:rgb(28.999329%,32.199097%,38.798523%);fill-opacity:1;">
  <use xlink:href="#glyph2-7" x="218.546708" y="140.155313"/>
  <use xlink:href="#glyph2-4" x="223.776486" y="140.155313"/>
  <use xlink:href="#glyph2-8" x="226.391374" y="140.155313"/>
</g>
<g style="fill:rgb(28.999329%,32.199097%,38.798523%);fill-opacity:1;">
  <use xlink:href="#glyph2-11" x="234.549827" y="140.155313"/>
</g>
<g style="fill:rgb(28.999329%,32.199097%,38.798523%);fill-opacity:1;">
  <use xlink:href="#glyph2-7" x="244.413187" y="140.155313"/>
</g>
<g style="fill:rgb(28.999329%,32.199097%,38.798523%);fill-opacity:1;">
  <use xlink:href="#glyph3-7" x="249.649005" y="140.155313"/>
  <use xlink:href="#glyph3-8" x="260.10856" y="140.155313"/>
  <use xlink:href="#glyph3-9" x="270.568114" y="140.155313"/>
  <use xlink:href="#glyph3-14" x="281.027669" y="140.155313"/>
  <use xlink:href="#glyph3-11" x="291.487224" y="140.155313"/>
</g>
<g style="fill:rgb(28.999329%,32.199097%,38.798523%);fill-opacity:1;">
  <use xlink:href="#glyph3-15" x="70.839295" y="156.065419"/>
  <use xlink:href="#glyph3-16" x="81.298849" y="156.065419"/>
</g>
<g style="fill:rgb(28.999329%,32.199097%,38.798523%);fill-opacity:1;">
  <use xlink:href="#glyph2-1" x="94.373492" y="156.065419"/>
</g>
<g style="fill:rgb(28.999329%,32.199097%,38.798523%);fill-opacity:1;">
  <use xlink:href="#glyph2-9" x="102.542405" y="156.065419"/>
</g>
<g style="fill:rgb(28.999329%,32.199097%,38.798523%);fill-opacity:1;">
  <use xlink:href="#glyph2-3" x="112.165195" y="156.065419"/>
</g>
<g style="fill:rgb(28.999329%,32.199097%,38.798523%);fill-opacity:1;">
  <use xlink:href="#glyph3-17" x="117.400751" y="156.065419"/>
</g>
<g style="fill:rgb(28.999329%,32.199097%,38.798523%);fill-opacity:1;">
  <use xlink:href="#glyph2-3" x="127.860505" y="156.065419"/>
</g>
<g style="fill:rgb(28.999329%,32.199097%,38.798523%);fill-opacity:1;">
  <use xlink:href="#glyph2-9" x="135.987579" y="156.065419"/>
</g>
<g style="fill:rgb(28.999329%,32.199097%,38.798523%);fill-opacity:1;">
  <use xlink:href="#glyph2-6" x="145.61037" y="156.065419"/>
</g>
<g style="fill:rgb(28.999329%,32.199097%,38.798523%);fill-opacity:1;">
  <use xlink:href="#glyph3-7" x="150.354827" y="156.065419"/>
  <use xlink:href="#glyph3-18" x="160.814382" y="156.065419"/>
  <use xlink:href="#glyph3-19" x="171.273937" y="156.065419"/>
</g>
<g style="fill:rgb(28.999329%,32.199097%,38.798523%);fill-opacity:1;">
  <use xlink:href="#glyph2-6" x="184.34878" y="156.065419"/>
</g>
<g style="fill:rgb(28.999329%,32.199097%,38.798523%);fill-opacity:1;">
  <use xlink:href="#glyph4-1" x="191.99187" y="156.065419"/>
</g>
<g style="fill:rgb(28.999329%,32.199097%,38.798523%);fill-opacity:1;">
  <use xlink:href="#glyph2-1" x="203.035555" y="156.065419"/>
</g>
<g style="fill:rgb(28.999329%,32.199097%,38.798523%);fill-opacity:1;">
  <use xlink:href="#glyph3-1" x="208.306927" y="156.065419"/>
</g>
<g style="fill:rgb(28.999329%,32.199097%,38.798523%);fill-opacity:1;">
  <use xlink:href="#glyph2-9" x="218.766682" y="156.065419"/>
</g>
<g style="fill:rgb(28.999329%,32.199097%,38.798523%);fill-opacity:1;">
  <use xlink:href="#glyph3-10" x="228.096571" y="156.065419"/>
  <use xlink:href="#glyph3-20" x="238.556126" y="156.065419"/>
  <use xlink:href="#glyph3-21" x="249.015681" y="156.065419"/>
</g>
<path style="fill-rule:nonzero;fill:rgb(12.155151%,30.587769%,54.901123%);fill-opacity:1;stroke-width:1.3;stroke-linecap:butt;stroke-linejoin:round;stroke:rgb(100%,100%,100%);stroke-opacity:1;stroke-miterlimit:10;" d="M 0.00194714 -4.001326 C 1.060667 -4.001326 2.08032 -3.5794 2.830409 -2.829311 C 3.576591 -2.079222 3.998517 -1.059569 3.998517 -0.000849351 C 3.998517 1.061777 3.576591 2.077523 2.830409 2.827612 C 2.08032 3.577702 1.060667 3.999627 0.00194714 3.999627 C -1.060679 3.999627 -2.080332 3.577702 -2.830421 2.827612 C -3.576604 2.077523 -3.998529 1.061777 -3.998529 -0.000849351 C -3.998529 -1.059569 -3.576604 -2.079222 -2.830421 -2.829311 C -2.080332 -3.5794 -1.060679 -4.001326 0.00194714 -4.001326 Z M 0.00194714 -4.001326 " transform="matrix(0.999881,0,0,-0.999881,63.134772,95.952276)"/>
<path style="fill-rule:nonzero;fill:rgb(12.155151%,30.587769%,54.901123%);fill-opacity:1;stroke-width:1.3;stroke-linecap:butt;stroke-linejoin:round;stroke:rgb(100%,100%,100%);stroke-opacity:1;stroke-miterlimit:10;" d="M 0.00179174 -4.001326 C 1.060512 -4.001326 2.080164 -3.5794 2.830253 -2.829311 C 3.576436 -2.079222 3.998361 -1.059569 3.998361 -0.000849351 C 3.998361 1.061777 3.576436 2.077523 2.830253 2.827612 C 2.080164 3.577702 1.060512 3.999627 0.00179174 3.999627 C -1.060835 3.999627 -2.080487 3.577702 -2.830577 2.827612 C -3.576759 2.077523 -3.998685 1.061777 -3.998685 -0.000849351 C -3.998685 -1.059569 -3.576759 -2.079222 -2.830577 -2.829311 C -2.080487 -3.5794 -1.060835 -4.001326 0.00179174 -4.001326 Z M 0.00179174 -4.001326 " transform="matrix(0.999881,0,0,-0.999881,165.158365,95.952276)"/>
<path style="fill-rule:nonzero;fill:rgb(12.155151%,30.587769%,54.901123%);fill-opacity:1;stroke-width:1.3;stroke-linecap:butt;stroke-linejoin:round;stroke:rgb(100%,100%,100%);stroke-opacity:1;stroke-miterlimit:10;" d="M 0.00164633 -4.001326 C 1.060366 -4.001326 2.080019 -3.5794 2.830108 -2.829311 C 3.580197 -2.079222 4.002123 -1.059569 4.002123 -0.000849351 C 4.002123 1.061777 3.580197 2.077523 2.830108 2.827612 C 2.080019 3.577702 1.060366 3.999627 0.00164633 3.999627 C -1.06098 3.999627 -2.076726 3.577702 -2.830722 2.827612 C -3.576905 2.077523 -3.99883 1.061777 -3.99883 -0.000849351 C -3.99883 -1.059569 -3.576905 -2.079222 -2.830722 -2.829311 C -2.076726 -3.5794 -1.06098 -4.001326 0.00164633 -4.001326 Z M 0.00164633 -4.001326 " transform="matrix(0.999881,0,0,-0.999881,267.181948,95.952276)"/>
</g>
</svg>
