<?xml version="1.0" encoding="UTF-8"?>
<svg xmlns="http://www.w3.org/2000/svg" xmlns:xlink="http://www.w3.org/1999/xlink" width="508.21pt" height="271.84pt" viewBox="0 0 508.21 271.84" version="1.2">
<defs>
<g>
<symbol overflow="visible" id="glyph0-0">
<path style="stroke:none;" d=""/>
</symbol>
<symbol overflow="visible" id="glyph0-1">
<path style="stroke:none;" d="M 4.65625 -4.21875 C 4.65625 -4.546875 4.390625 -4.828125 4.0625 -4.828125 C 3.8125 -4.828125 3.625 -4.65625 3.625 -4.421875 C 3.625 -4.25 3.71875 -4.140625 3.9375 -3.984375 C 4.140625 -3.875 4.21875 -3.765625 4.21875 -3.625 C 4.21875 -3.1875 3.828125 -2.34375 2.890625 -0.78125 L 2.671875 -2.0625 C 2.5 -3.03125 1.890625 -4.828125 1.734375 -4.828125 L 1.6875 -4.828125 L 1.578125 -4.8125 L 0.515625 -4.625 L 0.15625 -4.5625 L 0.15625 -4.375 C 0.296875 -4.40625 0.375 -4.421875 0.5 -4.421875 C 0.9375 -4.421875 1.140625 -4.25 1.34375 -3.71875 C 1.640625 -2.96875 2.234375 -0.53125 2.234375 -0.09375 C 2.234375 0.03125 2.203125 0.15625 2.125 0.296875 C 2.046875 0.4375 1.546875 1.078125 1.359375 1.296875 C 1.109375 1.5625 0.96875 1.65625 0.828125 1.65625 C 0.75 1.65625 0.6875 1.625 0.5625 1.53125 C 0.40625 1.40625 0.296875 1.34375 0.15625 1.34375 C -0.078125 1.34375 -0.265625 1.53125 -0.265625 1.765625 C -0.265625 2.0625 -0.03125 2.25 0.296875 2.25 C 0.921875 2.25 2.09375 1 3.21875 -0.890625 C 4.140625 -2.390625 4.65625 -3.59375 4.65625 -4.21875 Z M 4.65625 -4.21875 "/>
</symbol>
<symbol overflow="visible" id="glyph0-2">
<path style="stroke:none;" d="M 5.203125 -1.09375 L 5.078125 -1.203125 L 4.765625 -0.890625 C 4.421875 -0.546875 4.296875 -0.453125 4.203125 -0.453125 C 4.109375 -0.453125 4.046875 -0.515625 4.046875 -0.59375 C 4.046875 -0.8125 4.5 -2.6875 5.015625 -4.5625 C 5.046875 -4.671875 5.0625 -4.6875 5.078125 -4.796875 L 5.015625 -4.828125 L 4.34375 -4.75 L 4.3125 -4.71875 L 4.1875 -4.1875 C 4.09375 -4.59375 3.78125 -4.828125 3.3125 -4.828125 C 1.859375 -4.828125 0.1875 -2.828125 0.1875 -1.09375 C 0.1875 -0.328125 0.59375 0.125 1.296875 0.125 C 2.0625 0.125 2.53125 -0.234375 3.5 -1.59375 C 3.265625 -0.703125 3.25 -0.609375 3.25 -0.34375 C 3.25 -0.015625 3.375 0.109375 3.6875 0.109375 C 4.125 0.109375 4.390625 -0.09375 5.203125 -1.09375 Z M 3.984375 -3.921875 C 3.984375 -3 3.4375 -1.703125 2.6875 -0.890625 C 2.421875 -0.59375 2.0625 -0.421875 1.734375 -0.421875 C 1.34375 -0.421875 1.109375 -0.71875 1.109375 -1.21875 C 1.109375 -1.8125 1.484375 -2.890625 1.953125 -3.578125 C 2.40625 -4.25 2.921875 -4.609375 3.375 -4.578125 C 3.75 -4.5625 3.984375 -4.296875 3.984375 -3.921875 Z M 3.984375 -3.921875 "/>
</symbol>
<symbol overflow="visible" id="glyph1-0">
<path style="stroke:none;" d="M 1.09375 1.3125 L 9.84375 1.3125 L 9.84375 -9.625 L 1.09375 -9.625 Z M 5.46875 -4.609375 L 1.984375 -9.078125 L 8.953125 -9.078125 Z M 5.8125 -4.15625 L 9.296875 -8.625 L 9.296875 0.3125 Z M 1.984375 0.765625 L 5.46875 -3.703125 L 8.953125 0.765625 Z M 1.640625 -8.625 L 5.125 -4.15625 L 1.640625 0.3125 Z M 1.640625 -8.625 "/>
</symbol>
<symbol overflow="visible" id="glyph1-1">
<path style="stroke:none;" d="M 7.046875 -8.734375 C 7.515625 -8.390625 8.0625 -7.78125 8.234375 -7.296875 C 8.96875 -6.875 9.4375 -8.328125 7.15625 -8.828125 Z M 4.609375 -1.765625 C 3.984375 -1.34375 3.328125 -0.921875 2.8125 -0.59375 L 2.8125 -3.265625 L 4.359375 -3.265625 C 4.515625 -3.265625 4.609375 -3.3125 4.640625 -3.4375 C 4.3125 -3.765625 3.796875 -4.1875 3.796875 -4.1875 L 3.3125 -3.59375 L 2.8125 -3.59375 L 2.8125 -5.40625 L 4.15625 -5.40625 C 4.3125 -5.40625 4.40625 -5.453125 4.4375 -5.578125 C 4.109375 -5.890625 3.59375 -6.3125 3.59375 -6.3125 L 3.140625 -5.734375 L 1.140625 -5.734375 C 1.46875 -6.21875 1.765625 -6.75 2.03125 -7.265625 L 4.546875 -7.265625 C 4.703125 -7.265625 4.796875 -7.3125 4.828125 -7.4375 C 4.5 -7.75 3.984375 -8.1875 3.984375 -8.1875 L 3.53125 -7.59375 L 2.1875 -7.59375 C 2.390625 -7.984375 2.53125 -8.359375 2.671875 -8.6875 C 2.9375 -8.71875 3.046875 -8.796875 3.078125 -8.921875 L 1.90625 -9.171875 C 1.65625 -8 0.9375 -6 0.34375 -4.90625 L 0.484375 -4.828125 C 0.703125 -5.078125 0.921875 -5.375 1.140625 -5.703125 L 1.21875 -5.40625 L 2.125 -5.40625 L 2.125 -3.59375 L 0.421875 -3.59375 L 0.5 -3.265625 L 2.125 -3.265625 L 2.125 -0.53125 C 2.125 -0.34375 2.0625 -0.265625 1.703125 -0.078125 L 2.21875 0.765625 C 2.296875 0.71875 2.390625 0.640625 2.453125 0.5 C 3.40625 -0.34375 4.265625 -1.203125 4.71875 -1.640625 Z M 10.546875 -1.625 L 10.40625 -1.65625 C 10.28125 -1.1875 10.078125 -0.671875 9.9375 -0.390625 C 9.828125 -0.15625 9.75 -0.15625 9.5625 -0.3125 C 9.03125 -0.671875 8.59375 -1.109375 8.25 -1.671875 C 8.796875 -2.140625 9.3125 -2.703125 9.765625 -3.328125 C 10.03125 -3.28125 10.140625 -3.3125 10.21875 -3.421875 L 9.171875 -3.984375 C 8.796875 -3.359375 8.359375 -2.78125 7.890625 -2.28125 C 7.671875 -2.765625 7.484375 -3.3125 7.328125 -3.875 L 10.328125 -4.359375 C 10.4375 -4.375 10.5625 -4.46875 10.5625 -4.578125 C 10.15625 -4.84375 9.5 -5.1875 9.5 -5.1875 L 9.0625 -4.484375 L 7.25 -4.1875 C 7.125 -4.75 7.03125 -5.359375 6.96875 -5.984375 L 9.828125 -6.375 C 9.96875 -6.390625 10.078125 -6.46875 10.09375 -6.59375 C 9.671875 -6.875 9.015625 -7.234375 9.015625 -7.234375 L 8.578125 -6.53125 L 6.9375 -6.28125 C 6.875 -7.09375 6.84375 -7.90625 6.859375 -8.734375 C 7.125 -8.765625 7.234375 -8.890625 7.234375 -9.015625 L 6.09375 -9.171875 C 6.09375 -8.125 6.140625 -7.125 6.234375 -6.1875 L 4.640625 -5.96875 L 4.78125 -5.671875 L 6.265625 -5.890625 C 6.328125 -5.25 6.4375 -4.640625 6.578125 -4.078125 L 4.703125 -3.78125 L 4.84375 -3.484375 L 6.625 -3.765625 C 6.828125 -3.046875 7.0625 -2.359375 7.375 -1.75 C 6.359375 -0.8125 5.1875 -0.125 3.890625 0.4375 L 3.984375 0.625 C 5.375 0.1875 6.609375 -0.40625 7.671875 -1.21875 C 8.09375 -0.5625 8.578125 -0.015625 9.203125 0.390625 C 9.71875 0.78125 10.375 1.078125 10.640625 0.734375 C 10.734375 0.609375 10.703125 0.4375 10.359375 0.03125 Z M 10.546875 -1.625 "/>
</symbol>
<symbol overflow="visible" id="glyph2-0">
<path style="stroke:none;" d=""/>
</symbol>
<symbol overflow="visible" id="glyph2-1">
<path style="stroke:none;" d="M 4.234375 -3.84375 C 4.234375 -4.140625 3.984375 -4.390625 3.6875 -4.390625 C 3.46875 -4.390625 3.296875 -4.234375 3.296875 -4.015625 C 3.296875 -3.859375 3.390625 -3.765625 3.578125 -3.640625 C 3.765625 -3.515625 3.84375 -3.4375 3.84375 -3.296875 C 3.84375 -2.890625 3.484375 -2.125 2.625 -0.71875 L 2.421875 -1.875 C 2.28125 -2.75 1.71875 -4.390625 1.578125 -4.390625 L 1.53125 -4.390625 L 1.4375 -4.375 L 0.46875 -4.203125 L 0.15625 -4.15625 L 0.15625 -3.984375 C 0.265625 -4.015625 0.34375 -4.015625 0.453125 -4.015625 C 0.859375 -4.015625 1.03125 -3.875 1.21875 -3.390625 C 1.5 -2.703125 2.046875 -0.484375 2.046875 -0.078125 C 2.046875 0.03125 2 0.15625 1.9375 0.265625 C 1.859375 0.390625 1.40625 0.984375 1.234375 1.171875 C 1 1.421875 0.890625 1.5 0.75 1.5 C 0.6875 1.5 0.625 1.46875 0.515625 1.390625 C 0.375 1.28125 0.265625 1.21875 0.15625 1.21875 C -0.0625 1.21875 -0.234375 1.390625 -0.234375 1.609375 C -0.234375 1.875 -0.03125 2.046875 0.265625 2.046875 C 0.84375 2.046875 1.90625 0.90625 2.9375 -0.8125 C 3.765625 -2.1875 4.234375 -3.28125 4.234375 -3.84375 Z M 4.234375 -3.84375 "/>
</symbol>
<symbol overflow="visible" id="glyph2-2">
<path style="stroke:none;" d="M 5.765625 -3.1875 L 5.765625 -3.703125 L 0.796875 -3.703125 L 0.796875 -3.1875 Z M 5.765625 -1.28125 L 5.765625 -1.796875 L 0.796875 -1.796875 L 0.796875 -1.28125 Z M 5.765625 -1.28125 "/>
</symbol>
<symbol overflow="visible" id="glyph2-3">
<path style="stroke:none;" d="M 4.734375 -1.359375 L 4.59375 -1.40625 C 4.234375 -0.84375 4.09375 -0.75 3.65625 -0.75 L 1.28125 -0.75 L 2.953125 -2.515625 C 3.828125 -3.4375 4.21875 -4.1875 4.21875 -4.96875 C 4.21875 -5.96875 3.40625 -6.734375 2.375 -6.734375 C 1.828125 -6.734375 1.3125 -6.515625 0.953125 -6.109375 C 0.625 -5.765625 0.484375 -5.453125 0.3125 -4.75 L 0.515625 -4.703125 C 0.921875 -5.671875 1.28125 -5.984375 1.953125 -5.984375 C 2.796875 -5.984375 3.359375 -5.421875 3.359375 -4.59375 C 3.359375 -3.8125 2.90625 -2.890625 2.0625 -2 L 0.296875 -0.125 L 0.296875 0 L 4.1875 0 Z M 4.734375 -1.359375 "/>
</symbol>
<symbol overflow="visible" id="glyph2-4">
<path style="stroke:none;" d="M 1.796875 -0.421875 C 1.796875 -0.734375 1.546875 -1 1.25 -1 C 0.953125 -1 0.703125 -0.734375 0.703125 -0.421875 C 0.703125 -0.140625 0.953125 0.109375 1.234375 0.109375 C 1.546875 0.109375 1.796875 -0.140625 1.796875 -0.421875 Z M 1.796875 -0.421875 "/>
</symbol>
<symbol overflow="visible" id="glyph2-5">
<path style="stroke:none;" d="M 4.359375 -6.78125 L 4.265625 -6.84375 C 4.125 -6.640625 4.015625 -6.59375 3.8125 -6.59375 L 1.734375 -6.59375 L 0.640625 -4.234375 C 0.640625 -4.203125 0.640625 -4.1875 0.640625 -4.1875 C 0.640625 -4.125 0.671875 -4.09375 0.75 -4.09375 C 1.078125 -4.09375 1.46875 -4.03125 1.875 -3.90625 C 3.03125 -3.53125 3.546875 -2.921875 3.546875 -1.9375 C 3.546875 -0.96875 2.953125 -0.234375 2.171875 -0.234375 C 1.96875 -0.234375 1.796875 -0.296875 1.5 -0.515625 C 1.1875 -0.75 0.953125 -0.84375 0.75 -0.84375 C 0.453125 -0.84375 0.3125 -0.734375 0.3125 -0.484375 C 0.3125 -0.09375 0.78125 0.140625 1.53125 0.140625 C 2.375 0.140625 3.078125 -0.125 3.578125 -0.640625 C 4.046875 -1.078125 4.25 -1.65625 4.25 -2.40625 C 4.25 -3.125 4.0625 -3.578125 3.5625 -4.078125 C 3.125 -4.515625 2.5625 -4.75 1.390625 -4.953125 L 1.796875 -5.796875 L 3.75 -5.796875 C 3.90625 -5.796875 3.953125 -5.828125 3.984375 -5.890625 Z M 4.359375 -6.78125 "/>
</symbol>
<symbol overflow="visible" id="glyph3-0">
<path style="stroke:none;" d="M 1.046875 1.25 L 9.390625 1.25 L 9.390625 -9.1875 L 1.046875 -9.1875 Z M 5.21875 -4.390625 L 1.90625 -8.65625 L 8.53125 -8.65625 Z M 5.546875 -3.96875 L 8.875 -8.234375 L 8.875 0.296875 Z M 1.90625 0.734375 L 5.21875 -3.53125 L 8.53125 0.734375 Z M 1.5625 -8.234375 L 4.890625 -3.96875 L 1.5625 0.296875 Z M 1.5625 -8.234375 "/>
</symbol>
<symbol overflow="visible" id="glyph3-1">
<path style="stroke:none;" d="M 0.421875 -0.359375 L 0.515625 -0.046875 L 9.8125 -0.046875 C 9.96875 -0.046875 10.078125 -0.109375 10.109375 -0.21875 C 9.6875 -0.578125 9.03125 -1.078125 9.03125 -1.078125 L 8.4375 -0.359375 Z M 1.765625 -4.109375 L 1.84375 -3.796875 L 8.28125 -3.796875 C 8.421875 -3.796875 8.53125 -3.84375 8.546875 -3.96875 C 8.15625 -4.3125 7.546875 -4.796875 7.546875 -4.796875 L 7 -4.109375 Z M 1 -7.5 L 1.09375 -7.203125 L 9.28125 -7.203125 C 9.421875 -7.203125 9.546875 -7.25 9.5625 -7.375 C 9.171875 -7.71875 8.53125 -8.203125 8.53125 -8.203125 L 7.96875 -7.5 Z M 1 -7.5 "/>
</symbol>
<symbol overflow="visible" id="glyph3-2">
<path style="stroke:none;" d="M 4.40625 -4.296875 C 5.90625 -5.046875 6.078125 -6.21875 6.078125 -7.09375 L 6.078125 -7.765625 L 7.78125 -7.765625 L 7.78125 -5.515625 C 7.78125 -5.109375 7.859375 -4.9375 8.40625 -4.9375 L 8.859375 -4.9375 C 9.734375 -4.9375 9.984375 -5.0625 9.984375 -5.328125 C 9.984375 -5.484375 9.890625 -5.53125 9.703125 -5.59375 L 9.671875 -5.609375 L 9.5625 -5.609375 C 9.515625 -5.59375 9.453125 -5.578125 9.390625 -5.578125 C 9.359375 -5.5625 9.3125 -5.5625 9.265625 -5.5625 L 8.59375 -5.5625 C 8.46875 -5.5625 8.4375 -5.59375 8.4375 -5.703125 L 8.4375 -7.671875 C 8.625 -7.6875 8.75 -7.75 8.828125 -7.8125 L 8.0625 -8.46875 L 7.6875 -8.078125 L 6.203125 -8.078125 L 5.421875 -8.421875 L 5.421875 -7.09375 C 5.421875 -6.171875 5.28125 -5.234375 4.296875 -4.4375 Z M 4.703125 -2.5 C 3.75 -2.28125 2.8125 -2.046875 2.015625 -1.875 L 2.015625 -3.59375 L 4.21875 -3.59375 C 4.359375 -3.59375 4.46875 -3.65625 4.484375 -3.765625 C 4.171875 -4.078125 3.65625 -4.484375 3.65625 -4.484375 L 3.21875 -3.90625 L 2.015625 -3.90625 L 2.015625 -5.578125 L 4.171875 -5.578125 C 4.328125 -5.578125 4.421875 -5.640625 4.453125 -5.75 C 4.140625 -6.046875 3.625 -6.453125 3.625 -6.453125 L 3.203125 -5.890625 L 2.015625 -5.890625 L 2.015625 -7.328125 C 2.78125 -7.5 3.6875 -7.75 4.359375 -8.015625 C 4.546875 -7.96875 4.640625 -7.96875 4.71875 -8.0625 L 3.84375 -8.71875 C 3.359375 -8.34375 2.71875 -7.96875 2.140625 -7.671875 L 1.359375 -8.03125 L 1.359375 -1.71875 C 0.90625 -1.625 0.53125 -1.5625 0.265625 -1.515625 L 0.734375 -0.625 C 0.828125 -0.671875 0.921875 -0.765625 0.953125 -0.875 L 1.359375 -1.015625 L 1.359375 0.828125 L 1.453125 0.828125 C 1.828125 0.828125 2 0.65625 2.015625 0.578125 L 2.015625 -1.265625 C 3.15625 -1.6875 4.046875 -2.0625 4.734375 -2.34375 Z M 8.1875 -3.8125 C 7.90625 -3.03125 7.46875 -2.3125 6.921875 -1.671875 C 6.359375 -2.265625 5.921875 -2.96875 5.65625 -3.8125 Z M 8.640625 -4.546875 L 8.1875 -4.125 L 4.625 -4.125 L 4.71875 -3.8125 L 5.4375 -3.8125 C 5.6875 -2.828125 6.046875 -2 6.5625 -1.296875 C 5.71875 -0.46875 4.609375 0.203125 3.25 0.671875 L 3.328125 0.84375 C 4.828125 0.453125 5.984375 -0.140625 6.90625 -0.890625 C 7.578125 -0.140625 8.4375 0.40625 9.53125 0.8125 C 9.640625 0.5 9.859375 0.296875 10.15625 0.265625 L 10.171875 0.140625 C 9.046875 -0.140625 8.09375 -0.625 7.328125 -1.28125 C 8.046875 -1.984375 8.5625 -2.796875 8.953125 -3.71875 C 9.203125 -3.734375 9.328125 -3.75 9.390625 -3.84375 Z M 8.640625 -4.546875 "/>
</symbol>
<symbol overflow="visible" id="glyph3-3">
<path style="stroke:none;" d="M 5.640625 -7.75 C 5.5 -7.25 5.3125 -6.71875 5.0625 -6.234375 C 5.09375 -6.53125 4.8125 -7 3.84375 -7.21875 L 3.75 -7.140625 C 4.046875 -6.890625 4.421875 -6.40625 4.515625 -6.015625 C 4.671875 -5.90625 4.828125 -5.921875 4.921875 -6 C 4.609375 -5.390625 4.15625 -4.84375 3.625 -4.421875 L 3.75 -4.28125 C 5.140625 -5.09375 5.921875 -6.421875 6.328125 -7.71875 C 6.5625 -7.71875 6.65625 -7.75 6.71875 -7.828125 L 6 -8.46875 L 5.59375 -8.0625 L 3.640625 -8.0625 L 3.734375 -7.75 Z M 4.96875 -2.375 L 4.96875 -3.828125 L 8 -3.828125 L 8 -2.375 Z M 8.09375 -1.75 C 8.296875 -1.75 8.609375 -1.875 8.625 -1.953125 L 8.625 -3.6875 C 8.828125 -3.734375 9 -3.8125 9.0625 -3.90625 L 8.25 -4.515625 L 7.890625 -4.140625 L 5.015625 -4.140625 L 4.328125 -4.4375 L 4.328125 -1.671875 L 4.421875 -1.671875 C 4.6875 -1.671875 4.96875 -1.8125 4.96875 -1.859375 L 4.96875 -2.0625 L 8 -2.0625 L 8 -1.75 Z M 4.859375 -1.625 C 5.109375 -1.203125 5.390625 -0.5625 5.421875 -0.046875 C 6.015625 0.5 6.734375 -0.765625 4.984375 -1.671875 Z M 6.9375 -5.328125 L 5.046875 -5.328125 L 5.125 -5.015625 L 7.84375 -5.015625 C 7.984375 -5.015625 8.078125 -5.078125 8.109375 -5.1875 C 7.8125 -5.46875 7.359375 -5.859375 7.359375 -5.859375 Z M 2.546875 -5.984375 L 3.75 -5.984375 C 3.890625 -5.984375 4 -6.046875 4.015625 -6.15625 C 3.71875 -6.46875 3.203125 -6.890625 3.203125 -6.890625 L 2.765625 -6.296875 L 2.546875 -6.296875 L 2.546875 -8.375 C 2.8125 -8.421875 2.90625 -8.515625 2.9375 -8.671875 L 1.90625 -8.796875 L 1.90625 -6.296875 L 0.515625 -6.296875 L 0.609375 -5.984375 L 1.75 -5.984375 C 1.5 -4.453125 1.0625 -2.890625 0.34375 -1.671875 L 0.5 -1.546875 C 1.09375 -2.28125 1.5625 -3.125 1.90625 -4.03125 L 1.90625 0.828125 L 2.046875 0.828125 C 2.28125 0.828125 2.546875 0.671875 2.546875 0.578125 L 2.546875 -4.734375 C 2.8125 -4.328125 3.078125 -3.796875 3.140625 -3.375 C 3.71875 -2.90625 4.296875 -4.078125 2.546875 -5.046875 Z M 8.5625 0.140625 L 7.21875 0.140625 C 7.578125 -0.296875 7.921875 -0.828125 8.15625 -1.234375 C 8.375 -1.21875 8.5 -1.3125 8.53125 -1.4375 L 7.484375 -1.734375 C 7.359375 -1.171875 7.140625 -0.421875 6.90625 0.140625 L 3.25 0.140625 L 3.328125 0.453125 L 9.609375 0.453125 C 9.765625 0.453125 9.859375 0.40625 9.890625 0.296875 C 9.546875 -0.03125 9.03125 -0.4375 9.03125 -0.4375 Z M 9.125 -7.46875 C 8.78125 -7.109375 8.34375 -6.703125 8 -6.421875 C 7.8125 -6.640625 7.640625 -6.875 7.5 -7.125 C 7.859375 -7.296875 8.296875 -7.546875 8.65625 -7.796875 C 8.875 -7.71875 8.96875 -7.734375 9.046875 -7.828125 L 8.3125 -8.4375 C 8.03125 -8.0625 7.65625 -7.625 7.359375 -7.34375 C 7.140625 -7.71875 6.96875 -8.109375 6.828125 -8.53125 L 6.65625 -8.453125 C 7.125 -6.546875 8.015625 -5.109375 9.421875 -4.34375 C 9.5 -4.640625 9.703125 -4.828125 9.953125 -4.84375 L 9.96875 -4.953125 C 9.296875 -5.21875 8.6875 -5.65625 8.1875 -6.203125 C 8.578125 -6.375 9.09375 -6.625 9.46875 -6.875 C 9.671875 -6.8125 9.765625 -6.828125 9.828125 -6.90625 Z M 9.125 -7.46875 "/>
</symbol>
<symbol overflow="visible" id="glyph3-4">
<path style="stroke:none;" d="M 6.84375 -8.390625 C 7.28125 -8.0625 7.828125 -7.5 8.015625 -7.03125 C 8.75 -6.625 9.1875 -8.0625 6.9375 -8.46875 Z M 0.765625 -2.03125 C 0.859375 -2.0625 0.921875 -2.125 0.984375 -2.234375 C 2.234375 -2.578125 3.375 -2.96875 3.984375 -3.171875 L 3.953125 -3.328125 C 2.875 -3.171875 1.78125 -3.046875 1.0625 -2.96875 C 2.171875 -3.90625 3.40625 -5.296875 4.015625 -6.234375 C 4.234375 -6.203125 4.375 -6.28125 4.421875 -6.375 L 3.484375 -6.9375 C 3.296875 -6.546875 3 -6.015625 2.640625 -5.484375 C 2 -5.46875 1.390625 -5.453125 0.9375 -5.453125 C 1.6875 -6.203125 2.5 -7.28125 2.9375 -8.046875 C 3.15625 -8.03125 3.28125 -8.109375 3.328125 -8.21875 L 2.328125 -8.671875 C 2.03125 -7.84375 1.234375 -6.265625 0.59375 -5.609375 C 0.53125 -5.546875 0.328125 -5.515625 0.328125 -5.515625 L 0.703125 -4.578125 C 0.78125 -4.609375 0.859375 -4.671875 0.921875 -4.765625 C 1.46875 -4.890625 1.984375 -5.03125 2.421875 -5.140625 C 1.859375 -4.34375 1.203125 -3.53125 0.671875 -3.0625 C 0.578125 -3.015625 0.359375 -2.96875 0.359375 -2.96875 Z M 4.390625 -1.796875 C 2.8125 -1.328125 1.1875 -0.890625 0.4375 -0.75 L 0.890625 0.171875 C 0.984375 0.140625 1.078125 0.046875 1.109375 -0.09375 C 2.5625 -0.6875 3.640625 -1.234375 4.421875 -1.65625 Z M 10.046875 -1.53125 L 9.90625 -1.5625 C 9.765625 -1.125 9.5625 -0.609375 9.4375 -0.359375 C 9.359375 -0.15625 9.28125 -0.140625 9.078125 -0.28125 C 8.5 -0.609375 8.03125 -1.078125 7.671875 -1.65625 C 8.171875 -2.09375 8.625 -2.59375 9.0625 -3.15625 C 9.328125 -3.109375 9.421875 -3.140625 9.484375 -3.25 L 8.515625 -3.8125 C 8.15625 -3.21875 7.75 -2.703125 7.328125 -2.25 C 7.125 -2.6875 6.9375 -3.171875 6.8125 -3.703125 L 9.859375 -4.140625 C 10 -4.15625 10.109375 -4.234375 10.109375 -4.359375 C 9.71875 -4.625 9.078125 -4.96875 9.078125 -4.96875 L 8.65625 -4.28125 L 6.734375 -4 C 6.609375 -4.578125 6.515625 -5.171875 6.453125 -5.796875 L 9.4375 -6.140625 C 9.5625 -6.15625 9.671875 -6.234375 9.671875 -6.359375 C 9.296875 -6.625 8.65625 -7 8.65625 -7 L 8.21875 -6.296875 L 6.4375 -6.078125 C 6.390625 -6.8125 6.359375 -7.5625 6.375 -8.328125 C 6.640625 -8.375 6.734375 -8.46875 6.75 -8.609375 L 5.640625 -8.75 C 5.640625 -7.78125 5.671875 -6.875 5.765625 -6 L 4.25 -5.828125 L 4.359375 -5.53125 L 5.78125 -5.703125 C 5.84375 -5.078125 5.9375 -4.484375 6.0625 -3.90625 L 4.015625 -3.609375 L 4.140625 -3.3125 L 6.140625 -3.609375 C 6.3125 -2.9375 6.53125 -2.296875 6.8125 -1.75 C 5.765625 -0.78125 4.5625 -0.09375 3.234375 0.453125 L 3.3125 0.640625 C 4.734375 0.203125 6.015625 -0.390625 7.125 -1.21875 C 7.546875 -0.546875 8.078125 0 8.75 0.40625 C 9.265625 0.75 9.90625 1.015625 10.140625 0.671875 C 10.234375 0.5625 10.203125 0.40625 9.859375 0.03125 Z M 10.046875 -1.53125 "/>
</symbol>
<symbol overflow="visible" id="glyph3-5">
<path style="stroke:none;" d="M 0.484375 -4.5 L 0.59375 -4.140625 L 9.671875 -4.140625 C 9.84375 -4.140625 9.953125 -4.1875 9.984375 -4.3125 C 9.53125 -4.75 8.765625 -5.359375 8.765625 -5.359375 L 8.109375 -4.5 Z M 0.484375 -4.5 "/>
</symbol>
<symbol overflow="visible" id="glyph3-6">
<path style="stroke:none;" d="M 4.6875 -8.640625 C 5.0625 -8.171875 5.515625 -7.4375 5.609375 -6.875 C 6.3125 -6.296875 6.9375 -7.765625 4.8125 -8.703125 Z M 2.71875 -6.015625 L 4.125 -6.015625 C 4.25 -6.015625 4.359375 -6.0625 4.390625 -6.171875 C 4.078125 -6.484375 3.546875 -6.921875 3.546875 -6.921875 L 3.09375 -6.3125 L 2.71875 -6.3125 L 2.71875 -8.34375 C 2.984375 -8.390625 3.0625 -8.484375 3.09375 -8.640625 L 2.0625 -8.75 L 2.0625 -6.3125 L 0.546875 -6.3125 L 0.625 -6.015625 L 1.90625 -6.015625 C 1.609375 -4.421875 1.03125 -2.796875 0.171875 -1.5625 L 0.328125 -1.4375 C 1.078125 -2.21875 1.640625 -3.15625 2.0625 -4.171875 L 2.0625 0.796875 L 2.203125 0.796875 C 2.4375 0.796875 2.71875 0.640625 2.71875 0.546875 L 2.71875 -4.828125 C 3.0625 -4.40625 3.453125 -3.796875 3.5625 -3.34375 C 4.203125 -2.84375 4.765625 -4.1875 2.71875 -5.09375 Z M 8.78125 -2.25 L 7.171875 -2.25 L 7.171875 -4.234375 L 9.265625 -4.234375 C 9.40625 -4.234375 9.515625 -4.296875 9.53125 -4.40625 C 9.203125 -4.734375 8.65625 -5.140625 8.65625 -5.140625 L 8.1875 -4.546875 L 7.171875 -4.546875 L 7.171875 -6.25 L 9.578125 -6.25 C 9.71875 -6.25 9.8125 -6.296875 9.84375 -6.421875 C 9.515625 -6.75 8.96875 -7.15625 8.96875 -7.15625 L 8.484375 -6.5625 L 7.515625 -6.5625 C 7.96875 -7.078125 8.46875 -7.71875 8.796875 -8.171875 C 9.015625 -8.140625 9.15625 -8.21875 9.203125 -8.328125 L 8.09375 -8.75 C 7.875 -8.125 7.515625 -7.21875 7.234375 -6.5625 L 4.375 -6.5625 L 4.453125 -6.25 L 6.5 -6.25 L 6.5 -4.546875 L 4.609375 -4.546875 L 4.6875 -4.234375 L 6.5 -4.234375 L 6.5 -2.25 L 3.890625 -2.25 L 3.984375 -1.9375 L 6.5 -1.9375 L 6.5 0.828125 L 6.609375 0.828125 C 6.9375 0.828125 7.171875 0.65625 7.171875 0.609375 L 7.171875 -1.9375 L 9.875 -1.9375 C 10.015625 -1.9375 10.109375 -2 10.140625 -2.109375 C 9.796875 -2.4375 9.265625 -2.859375 9.265625 -2.859375 Z M 8.78125 -2.25 "/>
</symbol>
<symbol overflow="visible" id="glyph3-7">
<path style="stroke:none;" d="M 3.953125 -7.09375 L 4.03125 -6.78125 L 6.21875 -6.78125 L 6.21875 -5.03125 L 3.328125 -5.03125 L 3.40625 -4.71875 L 9.796875 -4.71875 C 9.921875 -4.71875 10.03125 -4.765625 10.0625 -4.890625 C 9.734375 -5.203125 9.171875 -5.625 9.171875 -5.625 L 8.71875 -5.03125 L 6.890625 -5.03125 L 6.890625 -6.78125 L 9.40625 -6.78125 C 9.546875 -6.78125 9.640625 -6.828125 9.671875 -6.9375 C 9.34375 -7.265625 8.8125 -7.671875 8.8125 -7.671875 L 8.34375 -7.09375 L 6.890625 -7.09375 L 6.890625 -8.3125 C 7.125 -8.359375 7.21875 -8.4375 7.234375 -8.59375 L 6.21875 -8.6875 L 6.21875 -7.09375 Z M 3.328125 -8.546875 L 2.875 -8.125 L 1.625 -8.125 L 0.859375 -8.46875 L 0.859375 0.8125 L 0.96875 0.8125 C 1.28125 0.8125 1.5 0.625 1.5 0.578125 L 1.5 -7.8125 L 2.9375 -7.8125 C 2.71875 -7.015625 2.375 -5.8125 2.15625 -5.171875 C 2.796875 -4.40625 3.03125 -3.640625 3.03125 -2.890625 C 3.03125 -2.484375 2.9375 -2.28125 2.78125 -2.1875 C 2.71875 -2.125 2.640625 -2.125 2.53125 -2.125 L 1.859375 -2.125 L 1.859375 -1.96875 C 2.078125 -1.9375 2.265625 -1.875 2.328125 -1.796875 C 2.421875 -1.71875 2.453125 -1.484375 2.453125 -1.265625 C 3.40625 -1.328125 3.71875 -1.75 3.71875 -2.75 C 3.71875 -3.546875 3.359375 -4.40625 2.40625 -5.203125 C 2.8125 -5.828125 3.375 -7.015625 3.6875 -7.65625 C 3.90625 -7.65625 4.0625 -7.671875 4.140625 -7.765625 Z M 7.015625 -2.609375 L 9.453125 -2.609375 C 9.609375 -2.609375 9.703125 -2.65625 9.734375 -2.78125 C 9.390625 -3.09375 8.859375 -3.515625 8.859375 -3.515625 L 8.375 -2.921875 L 7.015625 -2.921875 L 7.015625 -4.21875 C 7.25 -4.265625 7.34375 -4.359375 7.359375 -4.484375 L 6.34375 -4.59375 L 6.34375 -0.515625 C 5.734375 -0.828125 5.265625 -1.390625 4.921875 -2.25 C 5.0625 -2.65625 5.171875 -3.078125 5.265625 -3.46875 C 5.5 -3.46875 5.625 -3.5625 5.671875 -3.703125 L 4.609375 -3.953125 C 4.390625 -2.359375 3.796875 -0.46875 2.578125 0.6875 L 2.703125 0.796875 C 3.71875 0.09375 4.375 -0.921875 4.796875 -1.96875 C 5.484375 0.046875 6.65625 0.578125 8.59375 0.578125 L 9.734375 0.578125 C 9.75 0.3125 9.875 0.078125 10.109375 0.03125 L 10.109375 -0.109375 C 9.703125 -0.109375 9.015625 -0.109375 8.671875 -0.109375 C 8.03125 -0.109375 7.484375 -0.140625 7.015625 -0.265625 Z M 7.015625 -2.609375 "/>
</symbol>
<symbol overflow="visible" id="glyph3-8">
<path style="stroke:none;" d="M 6.734375 -8.34375 C 7.171875 -8 7.6875 -7.4375 7.859375 -6.96875 C 8.5625 -6.5625 9 -7.953125 6.84375 -8.421875 Z M 4.40625 -1.6875 C 3.796875 -1.28125 3.171875 -0.890625 2.6875 -0.578125 L 2.6875 -3.109375 L 4.171875 -3.109375 C 4.3125 -3.109375 4.40625 -3.15625 4.4375 -3.28125 C 4.125 -3.59375 3.625 -4 3.625 -4 L 3.15625 -3.421875 L 2.6875 -3.421875 L 2.6875 -5.15625 L 3.96875 -5.15625 C 4.109375 -5.15625 4.203125 -5.203125 4.234375 -5.328125 C 3.921875 -5.625 3.421875 -6.015625 3.421875 -6.015625 L 3 -5.46875 L 1.09375 -5.46875 C 1.40625 -5.921875 1.6875 -6.4375 1.9375 -6.9375 L 4.34375 -6.9375 C 4.484375 -6.9375 4.578125 -6.984375 4.609375 -7.09375 C 4.296875 -7.40625 3.8125 -7.8125 3.8125 -7.8125 L 3.375 -7.25 L 2.09375 -7.25 C 2.28125 -7.625 2.421875 -7.96875 2.546875 -8.296875 C 2.8125 -8.3125 2.90625 -8.390625 2.9375 -8.515625 L 1.8125 -8.75 C 1.578125 -7.625 0.890625 -5.71875 0.328125 -4.6875 L 0.46875 -4.609375 C 0.671875 -4.859375 0.875 -5.140625 1.078125 -5.453125 L 1.15625 -5.15625 L 2.03125 -5.15625 L 2.03125 -3.421875 L 0.390625 -3.421875 L 0.484375 -3.109375 L 2.03125 -3.109375 L 2.03125 -0.515625 C 2.03125 -0.328125 1.96875 -0.25 1.625 -0.078125 L 2.125 0.734375 C 2.1875 0.6875 2.28125 0.609375 2.34375 0.484375 C 3.25 -0.328125 4.078125 -1.140625 4.5 -1.5625 Z M 10.078125 -1.546875 L 9.9375 -1.578125 C 9.8125 -1.140625 9.609375 -0.640625 9.484375 -0.375 C 9.390625 -0.15625 9.3125 -0.15625 9.125 -0.296875 C 8.625 -0.640625 8.203125 -1.0625 7.875 -1.59375 C 8.390625 -2.046875 8.875 -2.578125 9.328125 -3.171875 C 9.578125 -3.125 9.671875 -3.15625 9.75 -3.265625 L 8.75 -3.8125 C 8.390625 -3.203125 7.984375 -2.65625 7.53125 -2.1875 C 7.328125 -2.640625 7.140625 -3.15625 7 -3.703125 L 9.859375 -4.15625 C 9.96875 -4.171875 10.078125 -4.265625 10.078125 -4.359375 C 9.703125 -4.625 9.0625 -4.953125 9.0625 -4.953125 L 8.65625 -4.28125 L 6.921875 -4 C 6.796875 -4.546875 6.71875 -5.109375 6.65625 -5.703125 L 9.390625 -6.078125 C 9.515625 -6.09375 9.625 -6.171875 9.640625 -6.296875 C 9.234375 -6.5625 8.59375 -6.90625 8.59375 -6.90625 L 8.1875 -6.234375 L 6.625 -6 C 6.5625 -6.765625 6.53125 -7.546875 6.546875 -8.328125 C 6.8125 -8.375 6.90625 -8.484375 6.90625 -8.609375 L 5.8125 -8.75 C 5.8125 -7.75 5.859375 -6.8125 5.953125 -5.90625 L 4.4375 -5.703125 L 4.5625 -5.421875 L 5.984375 -5.609375 C 6.046875 -5.015625 6.140625 -4.4375 6.265625 -3.890625 L 4.484375 -3.609375 L 4.625 -3.328125 L 6.328125 -3.59375 C 6.515625 -2.90625 6.75 -2.25 7.03125 -1.671875 C 6.0625 -0.765625 4.953125 -0.109375 3.71875 0.421875 L 3.796875 0.59375 C 5.125 0.171875 6.296875 -0.390625 7.328125 -1.15625 C 7.71875 -0.546875 8.1875 -0.015625 8.78125 0.375 C 9.265625 0.734375 9.90625 1.03125 10.15625 0.703125 C 10.25 0.578125 10.21875 0.421875 9.890625 0.03125 Z M 10.078125 -1.546875 "/>
</symbol>
<symbol overflow="visible" id="glyph3-9">
<path style="stroke:none;" d="M 0.75 -3.078125 C 4.359375 -3.765625 6.78125 -4.984375 8.46875 -7.015625 C 8.71875 -7.03125 8.875 -7.0625 8.96875 -7.125 L 8.203125 -7.828125 L 7.78125 -7.4375 L 4.578125 -7.4375 C 4.921875 -7.703125 5.21875 -7.96875 5.46875 -8.234375 C 5.765625 -8.21875 5.890625 -8.28125 5.9375 -8.40625 L 4.828125 -8.703125 C 4.109375 -7.703125 2.578125 -6.390625 1 -5.625 L 1.09375 -5.484375 C 1.84375 -5.734375 2.546875 -6.078125 3.1875 -6.453125 C 3.65625 -6.140625 4.203125 -5.640625 4.40625 -5.21875 C 5.0625 -4.875 5.359375 -6.09375 3.4375 -6.625 C 3.6875 -6.78125 3.953125 -6.953125 4.203125 -7.125 L 7.625 -7.125 C 6.078125 -5.21875 3.765625 -4.078125 0.671875 -3.265625 Z M 9.171875 -4.046875 L 8.703125 -3.640625 L 5.75 -3.640625 C 6.03125 -3.875 6.28125 -4.078125 6.515625 -4.296875 C 6.8125 -4.296875 6.96875 -4.359375 7 -4.46875 L 5.84375 -4.75 C 4.953125 -3.625 3.140625 -2.25 1.171875 -1.453125 L 1.265625 -1.296875 C 2.25 -1.59375 3.171875 -2.015625 4 -2.46875 C 4.53125 -2.125 5.078125 -1.59375 5.25 -1.109375 C 5.953125 -0.703125 6.265625 -2.125 4.28125 -2.640625 C 4.65625 -2.859375 5.015625 -3.09375 5.328125 -3.328125 L 8.578125 -3.328125 C 6.90625 -1.046875 4.359375 -0.046875 0.671875 0.609375 L 0.734375 0.796875 C 4.953125 0.328125 7.609375 -0.765625 9.4375 -3.203125 C 9.6875 -3.21875 9.859375 -3.25 9.953125 -3.328125 Z M 9.171875 -4.046875 "/>
</symbol>
<symbol overflow="visible" id="glyph3-10">
<path style="stroke:none;" d="M 4.890625 -8.703125 L 4.890625 -2.421875 L 5.015625 -2.421875 C 5.265625 -2.421875 5.578125 -2.640625 5.578125 -2.75 L 5.578125 -8.3125 C 5.859375 -8.34375 5.953125 -8.4375 5.96875 -8.59375 Z M 6.90625 -7.15625 L 6.796875 -7.0625 C 7.65625 -6.265625 8.8125 -4.9375 9.171875 -3.96875 C 10.03125 -3.40625 10.40625 -5.328125 6.90625 -7.15625 Z M 2.859375 -7.203125 C 2.46875 -5.859375 1.59375 -4 0.484375 -2.75 L 0.609375 -2.640625 C 1.96875 -3.734375 2.96875 -5.421875 3.53125 -6.65625 C 3.78125 -6.625 3.875 -6.6875 3.921875 -6.8125 Z M 7.703125 -4.109375 C 6.046875 -1.015625 3.75 -0.0625 0.796875 0.625 L 0.828125 0.8125 C 4.046875 0.34375 6.390625 -0.515625 8.234375 -3.5 C 8.5 -3.4375 8.609375 -3.46875 8.6875 -3.578125 Z M 7.703125 -4.109375 "/>
</symbol>
<symbol overflow="visible" id="glyph3-11">
<path style="stroke:none;" d="M 0.953125 2.046875 C 2.046875 1.53125 2.390625 0.515625 2.390625 -0.25 C 2.390625 -0.8125 2.109375 -1.234375 1.625 -1.234375 C 1.1875 -1.234375 0.9375 -0.921875 0.9375 -0.59375 C 0.9375 -0.0625 1.453125 0.109375 1.875 0.265625 C 1.84375 0.71875 1.59375 1.34375 0.796875 1.78125 Z M 0.953125 2.046875 "/>
</symbol>
<symbol overflow="visible" id="glyph3-12">
<path style="stroke:none;" d="M 1.8125 -8.28125 C 2.296875 -7.8125 2.875 -7.03125 3 -6.390625 C 3.75 -5.828125 4.34375 -7.453125 1.921875 -8.359375 Z M 9.0625 -6.328125 L 8.640625 -5.890625 L 5.515625 -5.890625 C 5.609375 -6.71875 5.640625 -7.53125 5.65625 -8.328125 C 5.921875 -8.359375 6 -8.46875 6.03125 -8.625 L 4.890625 -8.75 C 4.890625 -7.796875 4.890625 -6.84375 4.796875 -5.890625 L 0.71875 -5.890625 L 0.8125 -5.578125 L 4.75 -5.578125 C 4.453125 -3.359375 3.5 -1.21875 0.46875 0.5625 L 0.609375 0.75 C 4.140625 -0.984375 5.15625 -3.28125 5.484375 -5.578125 L 8.75 -5.578125 C 8.625 -3 8.375 -0.609375 7.953125 -0.234375 C 7.8125 -0.109375 7.71875 -0.09375 7.46875 -0.09375 C 7.203125 -0.09375 6.171875 -0.203125 5.578125 -0.265625 L 5.5625 -0.0625 C 6.09375 0.015625 6.703125 0.140625 6.921875 0.28125 C 7.078125 0.375 7.125 0.5625 7.125 0.765625 C 7.71875 0.765625 8.15625 0.625 8.484375 0.296875 C 9.03125 -0.296875 9.328125 -2.703125 9.4375 -5.484375 C 9.671875 -5.5 9.796875 -5.5625 9.875 -5.640625 Z M 5.609375 -4.28125 C 6.078125 -3.6875 6.625 -2.78125 6.6875 -2.03125 C 7.4375 -1.375 8.125 -3.09375 5.734375 -4.359375 Z M 5.609375 -4.28125 "/>
</symbol>
<symbol overflow="visible" id="glyph3-13">
<path style="stroke:none;" d="M 1.9375 -1.6875 C 1.9375 -0.796875 1.34375 -0.171875 0.765625 0.0625 C 0.546875 0.171875 0.390625 0.375 0.484375 0.609375 C 0.59375 0.859375 0.984375 0.84375 1.296875 0.671875 C 1.8125 0.390625 2.421875 -0.359375 2.109375 -1.6875 Z M 7.75 -5.046875 L 7.75 -2.875 L 2.71875 -2.875 L 2.71875 -5.046875 Z M 7.75 -2.5625 L 7.75 -2.015625 L 7.84375 -2.015625 C 8.09375 -2.015625 8.421875 -2.1875 8.4375 -2.234375 L 8.4375 -4.921875 C 8.640625 -4.953125 8.8125 -5.046875 8.875 -5.125 L 8.03125 -5.765625 L 7.640625 -5.359375 L 5.421875 -5.359375 L 5.421875 -6.859375 L 9.25 -6.859375 C 9.40625 -6.859375 9.5 -6.90625 9.53125 -7.03125 C 9.171875 -7.359375 8.609375 -7.8125 8.609375 -7.8125 L 8.109375 -7.15625 L 5.421875 -7.15625 L 5.421875 -8.34375 C 5.6875 -8.40625 5.796875 -8.5 5.828125 -8.65625 L 4.734375 -8.78125 L 4.734375 -5.359375 L 2.78125 -5.359375 L 2.03125 -5.6875 L 2.03125 -1.953125 L 2.125 -1.953125 C 2.40625 -1.953125 2.71875 -2.109375 2.71875 -2.1875 L 2.71875 -2.5625 Z M 3.609375 -1.609375 C 3.8125 -1.03125 3.96875 -0.171875 3.875 0.484375 C 4.453125 1.1875 5.296875 -0.25 3.75 -1.65625 Z M 5.515625 -1.625 C 5.9375 -1.0625 6.4375 -0.171875 6.53125 0.515625 C 7.234375 1.109375 7.84375 -0.46875 5.640625 -1.6875 Z M 7.59375 -1.625 C 8.28125 -1.0625 9.125 -0.09375 9.328125 0.6875 C 10.140625 1.234375 10.609375 -0.59375 7.71875 -1.71875 Z M 7.59375 -1.625 "/>
</symbol>
<symbol overflow="visible" id="glyph3-14">
<path style="stroke:none;" d="M 3.359375 -1.71875 L 3.359375 -2.90625 L 7.390625 -2.90625 L 7.390625 -1.71875 Z M 7.390625 -4.359375 L 7.390625 -3.21875 L 3.359375 -3.21875 L 3.359375 -4.359375 Z M 7.296875 -4.671875 L 3.40625 -4.671875 L 2.6875 -4.984375 L 2.6875 0.8125 L 2.796875 0.8125 C 3.09375 0.8125 3.359375 0.640625 3.359375 0.5625 L 3.359375 -1.40625 L 7.390625 -1.40625 L 7.390625 -0.171875 C 7.390625 -0.015625 7.34375 0.046875 7.15625 0.046875 C 6.90625 0.046875 5.84375 -0.03125 5.84375 -0.03125 L 5.84375 0.125 C 6.328125 0.1875 6.578125 0.265625 6.75 0.359375 C 6.890625 0.453125 6.9375 0.609375 6.96875 0.796875 C 7.953125 0.703125 8.078125 0.375 8.078125 -0.109375 L 8.078125 -4.21875 C 8.28125 -4.265625 8.4375 -4.359375 8.515625 -4.4375 L 7.640625 -5.078125 Z M 8.46875 -5.890625 L 5.703125 -5.890625 L 5.703125 -7.125 L 8.3125 -7.125 C 8.453125 -7.125 8.5625 -7.171875 8.578125 -7.28125 C 8.25 -7.59375 7.6875 -8.03125 7.6875 -8.03125 L 7.21875 -7.40625 L 5.703125 -7.40625 L 5.703125 -8.34375 C 5.96875 -8.375 6.078125 -8.484375 6.09375 -8.625 L 5.03125 -8.75 L 5.03125 -5.890625 L 3.46875 -5.890625 L 3.46875 -7.71875 C 3.71875 -7.75 3.828125 -7.84375 3.84375 -8 L 2.796875 -8.109375 L 2.796875 -5.890625 L 0.640625 -5.890625 L 0.71875 -5.59375 L 9.578125 -5.59375 C 9.734375 -5.59375 9.828125 -5.640625 9.859375 -5.75 C 9.515625 -6.078125 8.953125 -6.515625 8.953125 -6.515625 Z M 8.46875 -5.890625 "/>
</symbol>
<symbol overflow="visible" id="glyph3-15">
<path style="stroke:none;" d="M 2.78125 -8.75 C 2.234375 -6.71875 1.28125 -4.703125 0.34375 -3.4375 L 0.484375 -3.328125 C 0.96875 -3.78125 1.4375 -4.359375 1.859375 -4.984375 L 1.859375 0.796875 L 1.984375 0.796875 C 2.234375 0.796875 2.515625 0.640625 2.53125 0.578125 L 2.53125 -5.53125 C 2.71875 -5.546875 2.8125 -5.625 2.84375 -5.703125 L 2.40625 -5.890625 C 2.8125 -6.609375 3.15625 -7.390625 3.453125 -8.203125 C 3.6875 -8.1875 3.8125 -8.28125 3.859375 -8.40625 Z M 8.734375 -6.0625 L 8.203125 -6.0625 L 8.203125 -8.21875 C 8.453125 -8.25 8.546875 -8.34375 8.5625 -8.5 L 7.484375 -8.625 L 7.484375 -6.0625 L 3.25 -6.0625 L 3.34375 -5.75 L 7.484375 -5.75 L 7.484375 -0.375 C 7.484375 -0.171875 7.421875 -0.09375 7.171875 -0.09375 C 6.875 -0.09375 5.296875 -0.21875 5.296875 -0.21875 L 5.296875 -0.046875 C 5.953125 0.046875 6.328125 0.140625 6.546875 0.265625 C 6.734375 0.375 6.8125 0.546875 6.875 0.796875 C 8.0625 0.671875 8.203125 0.28125 8.203125 -0.296875 L 8.203125 -5.75 L 9.8125 -5.75 C 9.953125 -5.75 10.0625 -5.796875 10.078125 -5.921875 C 9.765625 -6.234375 9.21875 -6.6875 9.21875 -6.6875 Z M 3.921875 -4.609375 C 4.46875 -3.953125 5.171875 -2.9375 5.359375 -2.171875 C 6.109375 -1.59375 6.65625 -3.265625 4.046875 -4.6875 Z M 3.921875 -4.609375 "/>
</symbol>
<symbol overflow="visible" id="glyph3-16">
<path style="stroke:none;" d="M 1.59375 -0.921875 L 1.59375 -3.671875 L 3.765625 -3.671875 L 3.765625 -0.921875 Z M 3.765625 -6.59375 L 3.765625 -3.984375 L 1.59375 -3.984375 L 1.59375 -6.59375 Z M 4.046875 -7.328125 L 3.65625 -6.90625 L 2.328125 -6.90625 C 2.578125 -7.328125 2.875 -7.875 3.09375 -8.25 C 3.296875 -8.25 3.421875 -8.34375 3.46875 -8.484375 L 2.375 -8.75 C 2.28125 -8.203125 2.125 -7.4375 1.984375 -6.90625 L 1.640625 -6.90625 L 0.9375 -7.25 L 0.9375 0.484375 L 1.046875 0.484375 C 1.34375 0.484375 1.59375 0.328125 1.59375 0.25 L 1.59375 -0.609375 L 3.765625 -0.609375 L 3.765625 0.1875 L 3.875 0.1875 C 4.09375 0.1875 4.421875 0.015625 4.421875 -0.0625 L 4.421875 -6.453125 C 4.640625 -6.5 4.8125 -6.59375 4.859375 -6.671875 Z M 9.15625 -7.375 L 8.71875 -6.90625 L 6.453125 -6.90625 C 6.640625 -7.34375 6.8125 -7.765625 6.96875 -8.21875 C 7.203125 -8.203125 7.3125 -8.3125 7.359375 -8.421875 L 6.296875 -8.75 C 5.9375 -7.140625 5.296875 -5.515625 4.609375 -4.5 L 4.765625 -4.40625 C 5.328125 -4.96875 5.859375 -5.734375 6.296875 -6.59375 L 8.84375 -6.59375 C 8.765625 -3.03125 8.609375 -0.640625 8.21875 -0.265625 C 8.109375 -0.140625 8.03125 -0.125 7.8125 -0.125 C 7.5625 -0.125 6.8125 -0.1875 6.34375 -0.234375 L 6.328125 -0.046875 C 6.765625 0.015625 7.21875 0.140625 7.375 0.265625 C 7.53125 0.359375 7.5625 0.5625 7.5625 0.796875 C 8.078125 0.796875 8.484375 0.640625 8.78125 0.28125 C 9.265625 -0.328125 9.453125 -2.640625 9.53125 -6.5 C 9.765625 -6.515625 9.890625 -6.59375 9.953125 -6.671875 Z M 5.578125 -4.671875 C 6.09375 -4.125 6.71875 -3.21875 6.84375 -2.515625 C 7.59375 -1.921875 8.1875 -3.609375 5.6875 -4.75 Z M 5.578125 -4.671875 "/>
</symbol>
<symbol overflow="visible" id="glyph3-17">
<path style="stroke:none;" d="M 7.828125 -8.359375 C 8.109375 -8.109375 8.4375 -7.65625 8.53125 -7.3125 C 9.09375 -6.90625 9.609375 -8.03125 7.9375 -8.4375 Z M 5.0625 -1.3125 C 5.109375 -1.359375 5.171875 -1.421875 5.203125 -1.515625 C 6.015625 -2.140625 6.78125 -2.796875 7.171875 -3.125 L 7.09375 -3.265625 C 6.578125 -2.96875 6.078125 -2.703125 5.65625 -2.484375 L 5.65625 -6.578125 L 6.9375 -6.578125 C 7.046875 -5.234375 7.25 -3.9375 7.625 -2.875 C 7.03125 -1.96875 6.265625 -1.25 5.359375 -0.765625 L 5.5 -0.625 C 6.421875 -1.03125 7.203125 -1.625 7.84375 -2.34375 C 8.09375 -1.796875 8.421875 -1.34375 8.84375 -1.046875 C 9.203125 -0.734375 9.703125 -0.515625 9.890625 -0.75 C 10.015625 -0.859375 9.90625 -1.109375 9.703125 -1.375 L 9.890625 -2.71875 L 9.75 -2.75 C 9.65625 -2.421875 9.484375 -1.953125 9.390625 -1.765625 C 9.328125 -1.640625 9.265625 -1.625 9.125 -1.734375 C 8.78125 -1.96875 8.5 -2.40625 8.265625 -2.921875 C 8.78125 -3.65625 9.15625 -4.515625 9.421875 -5.453125 C 9.65625 -5.4375 9.765625 -5.53125 9.8125 -5.65625 L 8.84375 -5.9375 C 8.65625 -5.078125 8.375 -4.3125 8.03125 -3.609375 C 7.78125 -4.5 7.65625 -5.546875 7.578125 -6.578125 L 9.71875 -6.578125 C 9.859375 -6.578125 9.953125 -6.625 9.984375 -6.75 C 9.671875 -7.0625 9.140625 -7.453125 9.140625 -7.453125 L 8.6875 -6.875 L 7.5625 -6.875 C 7.53125 -7.375 7.515625 -7.875 7.5 -8.328125 C 7.75 -8.375 7.84375 -8.484375 7.859375 -8.625 L 6.828125 -8.734375 C 6.84375 -8.125 6.875 -7.5 6.921875 -6.875 L 5.828125 -6.875 L 5.03125 -7.34375 L 5.03125 -2.4375 C 5.03125 -2.265625 4.96875 -2.1875 4.578125 -1.9375 Z M 0.515625 -5.359375 L 0.59375 -5.046875 L 4.703125 -5.046875 C 4.84375 -5.046875 4.9375 -5.109375 4.96875 -5.21875 C 4.65625 -5.53125 4.140625 -5.921875 4.140625 -5.921875 L 3.6875 -5.359375 L 3.03125 -5.359375 L 3.03125 -6.921875 L 4.46875 -6.921875 C 4.609375 -6.921875 4.703125 -6.96875 4.734375 -7.09375 C 4.421875 -7.375 3.921875 -7.78125 3.921875 -7.78125 L 3.5 -7.21875 L 3.03125 -7.21875 L 3.03125 -8.359375 C 3.28125 -8.390625 3.375 -8.5 3.40625 -8.640625 L 2.390625 -8.75 L 2.390625 -7.21875 L 0.828125 -7.21875 L 0.90625 -6.921875 L 2.390625 -6.921875 L 2.390625 -5.359375 Z M 3.1875 -2.90625 L 4.59375 -2.90625 C 4.734375 -2.90625 4.828125 -2.953125 4.859375 -3.0625 C 4.5625 -3.375 4.078125 -3.765625 4.078125 -3.765625 L 3.640625 -3.21875 L 3.1875 -3.21875 L 3.1875 -4.421875 C 3.40625 -4.453125 3.5 -4.546875 3.515625 -4.6875 L 2.5625 -4.796875 L 2.5625 -0.796875 C 2.1875 -1.109375 1.875 -1.53125 1.59375 -2.125 C 1.71875 -2.71875 1.78125 -3.3125 1.828125 -3.859375 C 2.0625 -3.875 2.171875 -3.96875 2.1875 -4.109375 L 1.1875 -4.328125 C 1.1875 -2.671875 0.953125 -0.59375 0.359375 0.671875 L 0.484375 0.78125 C 1 0.09375 1.328125 -0.828125 1.53125 -1.78125 C 2.34375 0.171875 3.5625 0.546875 5.875 0.546875 L 9.625 0.546875 C 9.65625 0.296875 9.796875 0.078125 10.078125 0.015625 L 10.078125 -0.125 C 9.09375 -0.09375 6.875 -0.09375 5.90625 -0.09375 C 4.765625 -0.09375 3.875 -0.15625 3.1875 -0.4375 Z M 3.1875 -2.90625 "/>
</symbol>
<symbol overflow="visible" id="glyph3-18">
<path style="stroke:none;" d="M 7.640625 -5 L 7.640625 -3.6875 L 3.578125 -3.6875 L 3.578125 -5 Z M 3.578125 -2.046875 L 3.578125 -3.375 L 7.640625 -3.375 L 7.640625 -2.046875 Z M 8.53125 -7.125 L 4.578125 -7.125 C 4.78125 -7.5 4.953125 -7.890625 5.09375 -8.265625 C 5.375 -8.25 5.46875 -8.3125 5.515625 -8.4375 L 4.421875 -8.78125 C 4.265625 -8.25 4.0625 -7.6875 3.796875 -7.125 L 0.515625 -7.125 L 0.609375 -6.8125 L 3.65625 -6.8125 C 2.90625 -5.34375 1.84375 -3.890625 0.4375 -2.890625 L 0.546875 -2.765625 C 1.46875 -3.28125 2.25 -3.953125 2.90625 -4.671875 L 2.90625 0.796875 L 3.03125 0.796875 C 3.34375 0.796875 3.578125 0.625 3.578125 0.5625 L 3.578125 -1.734375 L 7.640625 -1.734375 L 7.640625 -0.28125 C 7.640625 -0.125 7.59375 -0.046875 7.40625 -0.046875 C 7.1875 -0.046875 6.078125 -0.140625 6.078125 -0.140625 L 6.078125 0.03125 C 6.5625 0.09375 6.828125 0.1875 7 0.296875 C 7.140625 0.40625 7.1875 0.578125 7.234375 0.796875 C 8.21875 0.703125 8.328125 0.359375 8.328125 -0.1875 L 8.328125 -4.84375 C 8.5625 -4.890625 8.75 -4.984375 8.828125 -5.078125 L 7.90625 -5.765625 L 7.53125 -5.3125 L 3.703125 -5.3125 L 3.5 -5.390625 C 3.859375 -5.859375 4.171875 -6.328125 4.421875 -6.8125 L 9.71875 -6.8125 C 9.859375 -6.8125 9.953125 -6.875 9.984375 -6.984375 C 9.625 -7.3125 9.046875 -7.75 9.046875 -7.75 Z M 8.53125 -7.125 "/>
</symbol>
<symbol overflow="visible" id="glyph4-0">
<path style="stroke:none;" d="M 1.140625 1.375 L 10.296875 1.375 L 10.296875 -10.0625 L 1.140625 -10.0625 Z M 5.71875 -4.8125 L 2.078125 -9.5 L 9.359375 -9.5 Z M 6.078125 -4.34375 L 9.71875 -9.03125 L 9.71875 0.328125 Z M 2.078125 0.796875 L 5.71875 -3.875 L 9.359375 0.796875 Z M 1.71875 -9.03125 L 5.359375 -4.34375 L 1.71875 0.328125 Z M 1.71875 -9.03125 "/>
</symbol>
<symbol overflow="visible" id="glyph4-1">
<path style="stroke:none;" d="M 7.453125 -4.34375 C 7.453125 -1.59375 8.984375 0.015625 10.515625 1 L 10.71875 0.78125 C 9.390625 -0.296875 8.203125 -1.9375 8.203125 -4.34375 C 8.203125 -6.75 9.390625 -8.390625 10.71875 -9.46875 L 10.515625 -9.703125 C 8.984375 -8.71875 7.453125 -7.109375 7.453125 -4.34375 Z M 7.453125 -4.34375 "/>
</symbol>
<symbol overflow="visible" id="glyph4-2">
<path style="stroke:none;" d="M 0.71875 -9.46875 C 2.046875 -8.390625 3.234375 -6.75 3.234375 -4.34375 C 3.234375 -1.9375 2.046875 -0.296875 0.71875 0.78125 L 0.921875 1 C 2.453125 0.015625 3.984375 -1.59375 3.984375 -4.34375 C 3.984375 -7.109375 2.453125 -8.71875 0.921875 -9.703125 Z M 0.71875 -9.46875 "/>
</symbol>
<symbol overflow="visible" id="glyph4-3">
<path style="stroke:none;" d="M 2.65625 -4.921875 C 3.0625 -4.921875 3.375 -5.25 3.375 -5.625 C 3.375 -6.03125 3.0625 -6.34375 2.65625 -6.34375 C 2.234375 -6.34375 1.921875 -6.03125 1.921875 -5.625 C 1.921875 -5.25 2.234375 -4.921875 2.65625 -4.921875 Z M 2.65625 -0.40625 C 3.0625 -0.40625 3.375 -0.734375 3.375 -1.109375 C 3.375 -1.515625 3.0625 -1.828125 2.65625 -1.828125 C 2.234375 -1.828125 1.921875 -1.515625 1.921875 -1.109375 C 1.921875 -0.734375 2.234375 -0.40625 2.65625 -0.40625 Z M 2.65625 -0.40625 "/>
</symbol>
<symbol overflow="visible" id="glyph4-4">
<path style="stroke:none;" d="M 3.6875 -4.546875 C 5.671875 -5.46875 5.90625 -6.953125 5.90625 -8 L 5.90625 -8.671875 L 8.171875 -8.671875 L 8.171875 -6.171875 C 8.171875 -5.703125 8.265625 -5.515625 8.9375 -5.515625 L 9.5625 -5.515625 C 10.6875 -5.515625 10.953125 -5.65625 10.953125 -5.953125 C 10.953125 -6.125 10.859375 -6.1875 10.640625 -6.25 L 10.59375 -6.265625 L 10.484375 -6.265625 C 10.4375 -6.25 10.34375 -6.234375 10.296875 -6.234375 C 10.25 -6.21875 10.171875 -6.21875 10.125 -6.21875 L 9.125 -6.21875 C 8.921875 -6.21875 8.890625 -6.25 8.890625 -6.375 L 8.890625 -8.5625 C 9.09375 -8.578125 9.234375 -8.640625 9.328125 -8.734375 L 8.484375 -9.453125 L 8.0625 -9.015625 L 6.03125 -9.015625 L 5.171875 -9.390625 L 5.171875 -8 C 5.171875 -6.890625 4.9375 -5.6875 3.5625 -4.6875 Z M 1.21875 -9.34375 C 1.796875 -8.984375 2.5 -8.328125 2.734375 -7.78125 C 3.609375 -7.328125 4 -9.09375 1.34375 -9.453125 Z M 0.453125 -6.765625 C 0.984375 -6.453125 1.59375 -5.84375 1.765625 -5.328125 C 2.625 -4.875 3.0625 -6.546875 0.578125 -6.875 Z M 4.078125 -8.171875 C 1.765625 -2.984375 1.765625 -2.984375 1.546875 -2.578125 C 1.421875 -2.328125 1.390625 -2.328125 1.25 -2.328125 L 0.75 -2.328125 L 0.75 -2.0625 C 1 -2.046875 1.15625 -2.03125 1.296875 -1.90625 C 1.578125 -1.734375 1.640625 -0.84375 1.46875 0.3125 C 1.515625 0.671875 1.640625 0.890625 1.859375 0.890625 C 2.25 0.890625 2.46875 0.59375 2.5 0.109375 C 2.546875 -0.859375 2.203125 -1.34375 2.203125 -1.859375 C 2.1875 -2.15625 2.28125 -2.546875 2.390625 -2.90625 C 2.578125 -3.515625 3.6875 -6.5 4.28125 -8.09375 Z M 8.859375 -4.203125 C 8.46875 -3.21875 7.875 -2.375 7.109375 -1.625 C 6.296875 -2.28125 5.671875 -3.140625 5.28125 -4.203125 Z M 9.375 -5.015625 L 8.859375 -4.546875 L 3.96875 -4.546875 L 4.078125 -4.203125 L 5.03125 -4.203125 C 5.390625 -2.96875 5.921875 -1.984375 6.65625 -1.21875 C 5.65625 -0.390625 4.421875 0.25 2.90625 0.71875 L 3 0.921875 C 4.65625 0.53125 6 -0.046875 7.0625 -0.828125 C 7.953125 -0.03125 9.078125 0.484375 10.4375 0.875 C 10.5625 0.484375 10.828125 0.25 11.15625 0.1875 L 11.1875 0.0625 C 9.796875 -0.1875 8.59375 -0.625 7.625 -1.265625 C 8.515625 -2.046875 9.203125 -3 9.703125 -4.078125 C 9.984375 -4.09375 10.109375 -4.125 10.203125 -4.234375 Z M 9.375 -5.015625 "/>
</symbol>
<symbol overflow="visible" id="glyph4-5">
<path style="stroke:none;" d="M 8.375 -5.484375 L 8.375 -4.03125 L 3.921875 -4.03125 L 3.921875 -5.484375 Z M 3.921875 -2.234375 L 3.921875 -3.6875 L 8.375 -3.6875 L 8.375 -2.234375 Z M 9.359375 -7.796875 L 5.015625 -7.796875 C 5.234375 -8.21875 5.421875 -8.640625 5.578125 -9.0625 C 5.890625 -9.03125 6 -9.109375 6.03125 -9.234375 L 4.84375 -9.625 C 4.671875 -9.03125 4.453125 -8.421875 4.15625 -7.796875 L 0.5625 -7.796875 L 0.65625 -7.46875 L 4 -7.46875 C 3.1875 -5.859375 2.015625 -4.265625 0.484375 -3.171875 L 0.59375 -3.03125 C 1.59375 -3.59375 2.46875 -4.328125 3.1875 -5.125 L 3.1875 0.875 L 3.3125 0.875 C 3.671875 0.875 3.921875 0.6875 3.921875 0.625 L 3.921875 -1.90625 L 8.375 -1.90625 L 8.375 -0.3125 C 8.375 -0.140625 8.328125 -0.0625 8.109375 -0.0625 C 7.875 -0.0625 6.671875 -0.15625 6.671875 -0.15625 L 6.671875 0.03125 C 7.1875 0.109375 7.484375 0.203125 7.65625 0.328125 C 7.828125 0.453125 7.875 0.640625 7.921875 0.875 C 9.015625 0.78125 9.125 0.40625 9.125 -0.203125 L 9.125 -5.3125 C 9.375 -5.359375 9.578125 -5.453125 9.671875 -5.5625 L 8.65625 -6.3125 L 8.25 -5.828125 L 4.0625 -5.828125 L 3.84375 -5.90625 C 4.234375 -6.421875 4.5625 -6.9375 4.84375 -7.46875 L 10.640625 -7.46875 C 10.8125 -7.46875 10.90625 -7.53125 10.9375 -7.65625 C 10.546875 -8.015625 9.921875 -8.5 9.921875 -8.5 Z M 9.359375 -7.796875 "/>
</symbol>
<symbol overflow="visible" id="glyph4-6">
<path style="stroke:none;" d="M 1.78125 -8.296875 L 4.375 -8.296875 L 4.375 -2.625 L 4.484375 -2.625 C 4.78125 -2.625 5.0625 -2.796875 5.0625 -2.84375 L 5.0625 -8.21875 C 5.3125 -8.265625 5.4375 -8.34375 5.515625 -8.421875 L 4.703125 -9.0625 L 4.328125 -8.625 L 1.921875 -8.625 L 1.125 -8.984375 L 1.125 -2.46875 L 1.21875 -2.46875 C 1.5625 -2.46875 1.78125 -2.625 1.78125 -2.703125 Z M 2.78125 -7.34375 C 2.75 -3.109375 2.78125 -0.921875 0.453125 0.671875 L 0.609375 0.875 C 3.390625 -0.625 3.34375 -2.953125 3.4375 -6.828125 C 3.6875 -6.828125 3.8125 -6.9375 3.859375 -7.078125 Z M 3.25 -2.3125 C 3.828125 -1.640625 4.5 -0.5625 4.609375 0.28125 C 5.40625 0.953125 6.078125 -0.953125 3.390625 -2.390625 Z M 9.78125 -6.8125 L 9.25 -6.8125 L 9.25 -9.15625 C 9.53125 -9.203125 9.640625 -9.3125 9.671875 -9.46875 L 8.515625 -9.609375 L 8.515625 -6.8125 L 5.484375 -6.8125 L 5.578125 -6.46875 L 8 -6.46875 C 7.5625 -4.4375 6.671875 -2.40625 5.34375 -0.953125 L 5.484375 -0.796875 C 6.890625 -1.984375 7.90625 -3.46875 8.515625 -5.171875 L 8.515625 -0.265625 C 8.515625 -0.0625 8.453125 0.015625 8.203125 0.015625 C 7.953125 0.015625 6.640625 -0.09375 6.640625 -0.09375 L 6.640625 0.09375 C 7.1875 0.15625 7.53125 0.265625 7.71875 0.40625 C 7.875 0.5 7.953125 0.703125 7.984375 0.9375 C 9.125 0.828125 9.25 0.4375 9.25 -0.1875 L 9.25 -6.46875 L 10.90625 -6.46875 C 11.0625 -6.46875 11.15625 -6.515625 11.203125 -6.640625 C 10.859375 -7 10.28125 -7.484375 10.28125 -7.484375 Z M 9.78125 -6.8125 "/>
</symbol>
<symbol overflow="visible" id="glyph4-7">
<path style="stroke:none;" d="M 4.796875 -9.671875 C 5.1875 -9.40625 5.609375 -8.859375 5.703125 -8.421875 C 6.484375 -7.921875 7.0625 -9.484375 4.921875 -9.765625 Z M 6.078125 -0.109375 L 6.078125 -1.296875 L 8.765625 -1.296875 L 8.765625 -0.109375 Z M 2.640625 -1.296875 L 5.359375 -1.296875 L 5.359375 -0.109375 L 2.640625 -0.109375 Z M 5.359375 -2.78125 L 5.359375 -1.625 L 2.640625 -1.625 L 2.640625 -2.78125 Z M 8.765625 -2.78125 L 8.765625 -1.625 L 6.078125 -1.625 L 6.078125 -2.78125 Z M 8.65625 -3.109375 L 2.703125 -3.109375 L 1.90625 -3.484375 L 1.90625 0.875 L 2.03125 0.875 C 2.3125 0.875 2.640625 0.703125 2.640625 0.625 L 2.640625 0.234375 L 8.765625 0.234375 L 8.765625 0.828125 L 8.890625 0.828125 C 9.140625 0.828125 9.5 0.671875 9.515625 0.609375 L 9.515625 -2.625 C 9.75 -2.671875 9.921875 -2.78125 10 -2.875 L 9.078125 -3.5625 Z M 3.59375 -4.375 L 3.59375 -5.546875 L 7.828125 -5.546875 L 7.828125 -4.375 Z M 7.9375 -3.578125 C 8.171875 -3.578125 8.546875 -3.734375 8.5625 -3.8125 L 8.5625 -5.4375 C 8.765625 -5.484375 8.9375 -5.5625 9 -5.65625 L 8.125 -6.3125 L 7.71875 -5.890625 L 7.828125 -5.890625 L 7.828125 -5.875 L 3.65625 -5.875 L 2.859375 -6.25 L 2.859375 -3.5 L 2.96875 -3.5 C 3.25 -3.5 3.59375 -3.65625 3.59375 -3.71875 L 3.59375 -4.03125 L 7.828125 -4.03125 L 7.828125 -3.578125 Z M 7.75 -7.09375 L 2.375 -7.09375 L 2.453125 -6.765625 L 8.859375 -6.765625 C 9.015625 -6.765625 9.109375 -6.8125 9.140625 -6.9375 C 8.78125 -7.265625 8.234375 -7.671875 8.234375 -7.671875 Z M 10.015625 -8.734375 L 9.546875 -8.265625 L 1.984375 -8.265625 C 1.96875 -8.421875 1.9375 -8.59375 1.875 -8.765625 L 1.6875 -8.765625 C 1.734375 -8.046875 1.3125 -7.40625 0.875 -7.15625 C 0.625 -7.015625 0.484375 -6.796875 0.578125 -6.5625 C 0.703125 -6.296875 1.109375 -6.3125 1.390625 -6.5 C 1.71875 -6.71875 2.03125 -7.1875 2.015625 -7.921875 L 9.609375 -7.921875 C 9.515625 -7.515625 9.375 -7 9.28125 -6.6875 L 9.421875 -6.609375 C 9.78125 -6.90625 10.21875 -7.421875 10.484375 -7.78125 C 10.6875 -7.796875 10.8125 -7.8125 10.90625 -7.890625 Z M 10.015625 -8.734375 "/>
</symbol>
<symbol overflow="visible" id="glyph4-8">
<path style="stroke:none;" d="M 2.15625 -9.4375 C 2.625 -9.015625 3.140625 -8.296875 3.21875 -7.703125 C 4.046875 -7.140625 4.671875 -8.875 2.28125 -9.53125 Z M 6.1875 -7.171875 C 6.34375 -7.171875 6.4375 -7.234375 6.46875 -7.359375 C 6.125 -7.703125 5.53125 -8.171875 5.53125 -8.171875 L 5.015625 -7.515625 L 0.5 -7.515625 L 0.59375 -7.171875 Z M 3.6875 -6.703125 C 4.265625 -6.25 4.9375 -5.4375 5.125 -4.796875 C 5.953125 -4.265625 6.4375 -6.0625 3.796875 -6.796875 Z M 2.125 -6.875 C 1.703125 -5.671875 1.046875 -4.578125 0.390625 -3.90625 L 0.53125 -3.78125 C 1.375 -4.3125 2.171875 -5.1875 2.75 -6.25 C 2.984375 -6.21875 3.125 -6.296875 3.171875 -6.421875 Z M 3.875 -4.96875 C 3.828125 -4.484375 3.703125 -3.859375 3.4375 -3.171875 C 2.96875 -3.515625 2.40625 -3.859375 1.703125 -4.21875 L 1.5625 -4.125 C 2.0625 -3.6875 2.640625 -3.140625 3.171875 -2.5625 C 2.671875 -1.546875 1.859375 -0.4375 0.484375 0.65625 L 0.625 0.859375 C 2.15625 -0.109375 3.0625 -1.125 3.625 -2.046875 C 4.125 -1.46875 4.5 -0.859375 4.71875 -0.34375 C 5.484375 0.15625 5.875 -1.109375 4 -2.71875 C 4.3125 -3.390625 4.4375 -3.953125 4.546875 -4.375 C 4.8125 -4.359375 4.96875 -4.453125 5.015625 -4.59375 Z M 9.3125 -6.71875 C 9.15625 -5.265625 8.828125 -3.9375 8.25 -2.75 C 7.734375 -3.75 7.375 -4.890625 7.15625 -6.109375 C 7.21875 -6.296875 7.296875 -6.515625 7.359375 -6.71875 Z M 10.859375 -6.71875 C 11.015625 -6.71875 11.125 -6.765625 11.15625 -6.890625 C 10.796875 -7.25 10.171875 -7.71875 10.171875 -7.71875 L 9.65625 -7.0625 L 7.484375 -7.0625 C 7.671875 -7.6875 7.84375 -8.375 8 -9.046875 C 8.234375 -9.0625 8.359375 -9.171875 8.390625 -9.328125 L 7.1875 -9.5625 C 6.9375 -7.453125 6.375 -5.28125 5.703125 -3.796875 L 5.890625 -3.6875 C 6.296875 -4.25 6.65625 -4.90625 6.96875 -5.640625 C 7.171875 -4.375 7.453125 -3.21875 7.921875 -2.171875 C 7.234375 -1.03125 6.28125 -0.0625 4.953125 0.765625 L 5.0625 0.921875 C 6.4375 0.265625 7.46875 -0.578125 8.234375 -1.53125 C 8.765625 -0.578125 9.453125 0.25 10.390625 0.90625 C 10.5 0.5625 10.765625 0.390625 11.09375 0.359375 L 11.125 0.234375 C 10.046875 -0.34375 9.234375 -1.140625 8.640625 -2.09375 C 9.46875 -3.390625 9.921875 -4.9375 10.140625 -6.71875 Z M 10.859375 -6.71875 "/>
</symbol>
<symbol overflow="visible" id="glyph4-9">
<path style="stroke:none;" d="M 5.09375 -9.578125 C 5.546875 -9.1875 6.125 -8.5 6.34375 -7.96875 C 7.140625 -7.484375 7.65625 -9.0625 5.203125 -9.671875 Z M 9.28125 -0.109375 L 7.234375 -0.109375 C 8.265625 -1.984375 9.234375 -4.375 9.703125 -5.890625 C 9.96875 -5.875 10.09375 -5.90625 10.140625 -6.03125 L 8.859375 -6.46875 C 8.515625 -4.8125 7.75 -2.046875 7.015625 -0.109375 L 2.15625 -0.109375 L 2.25 0.234375 L 10.5 0.234375 C 10.671875 0.234375 10.78125 0.1875 10.8125 0.0625 C 10.421875 -0.3125 9.8125 -0.796875 9.8125 -0.796875 Z M 3.21875 -5.734375 C 3.75 -4.640625 4.328125 -2.96875 4.28125 -1.734375 C 5.0625 -0.875 5.78125 -3.203125 3.390625 -5.796875 Z M 5.28125 -6.296875 C 5.78125 -5.265625 6.34375 -3.6875 6.296875 -2.484375 C 7.078125 -1.671875 7.765625 -3.90625 5.46875 -6.375 Z M 9.375 -7.8125 L 2.65625 -7.8125 L 1.78125 -8.1875 L 1.78125 -4.859375 C 1.78125 -2.875 1.640625 -0.84375 0.46875 0.78125 L 0.640625 0.90625 C 2.375 -0.6875 2.515625 -3.015625 2.515625 -4.875 L 2.515625 -7.46875 L 10.671875 -7.46875 C 10.828125 -7.46875 10.953125 -7.53125 10.984375 -7.65625 C 10.578125 -8.03125 9.9375 -8.53125 9.9375 -8.53125 Z M 9.375 -7.8125 "/>
</symbol>
<symbol overflow="visible" id="glyph5-0">
<path style="stroke:none;" d=""/>
</symbol>
<symbol overflow="visible" id="glyph5-1">
<path style="stroke:none;" d="M 5.0625 -0.453125 L 5.0625 -0.75 C 4.859375 -0.59375 4.71875 -0.53125 4.546875 -0.53125 C 4.28125 -0.53125 4.203125 -0.703125 4.203125 -1.203125 L 4.203125 -3.4375 C 4.203125 -4.015625 4.15625 -4.328125 3.984375 -4.59375 C 3.75 -5.03125 3.265625 -5.265625 2.5625 -5.265625 C 1.984375 -5.265625 1.421875 -5.09375 1.109375 -4.84375 C 0.828125 -4.59375 0.640625 -4.265625 0.640625 -3.984375 C 0.640625 -3.71875 0.859375 -3.484375 1.125 -3.484375 C 1.40625 -3.484375 1.640625 -3.71875 1.640625 -3.96875 C 1.640625 -4.015625 1.640625 -4.078125 1.625 -4.15625 C 1.59375 -4.25 1.59375 -4.34375 1.59375 -4.421875 C 1.59375 -4.734375 1.953125 -4.984375 2.40625 -4.984375 C 2.96875 -4.984375 3.28125 -4.65625 3.28125 -4.03125 L 3.28125 -3.34375 C 1.515625 -2.625 1.328125 -2.546875 0.828125 -2.109375 C 0.578125 -1.875 0.421875 -1.484375 0.421875 -1.109375 C 0.421875 -0.390625 0.921875 0.109375 1.625 0.109375 C 2.125 0.109375 2.59375 -0.125 3.296875 -0.71875 C 3.34375 -0.109375 3.5625 0.109375 4.03125 0.109375 C 4.421875 0.109375 4.65625 -0.015625 5.0625 -0.453125 Z M 3.28125 -1.40625 C 3.28125 -1.046875 3.21875 -0.953125 2.984375 -0.796875 C 2.703125 -0.640625 2.390625 -0.546875 2.15625 -0.546875 C 1.75 -0.546875 1.421875 -0.9375 1.421875 -1.421875 L 1.421875 -1.46875 C 1.421875 -2.15625 1.90625 -2.5625 3.28125 -3.0625 Z M 3.28125 -1.40625 "/>
</symbol>
<symbol overflow="visible" id="glyph5-2">
<path style="stroke:none;" d="M 5.359375 -2.78125 C 5.359375 -4.1875 4.484375 -5.265625 3.34375 -5.265625 C 2.640625 -5.265625 1.984375 -4.84375 1.75 -4.28125 L 1.75 -7.78125 L 1.6875 -7.8125 C 1.21875 -7.640625 0.90625 -7.546875 0.359375 -7.40625 L 0.03125 -7.3125 L 0.03125 -7.125 C 0.109375 -7.140625 0.15625 -7.140625 0.234375 -7.140625 C 0.6875 -7.140625 0.796875 -7.03125 0.796875 -6.546875 L 0.796875 -0.625 C 0.796875 -0.265625 1.765625 0.109375 2.671875 0.109375 C 4.1875 0.109375 5.359375 -1.140625 5.359375 -2.78125 Z M 4.34375 -2.25 C 4.34375 -0.984375 3.796875 -0.25 2.859375 -0.25 C 2.265625 -0.25 1.75 -0.515625 1.75 -0.796875 L 1.75 -3.6875 C 1.75 -4.125 2.28125 -4.546875 2.875 -4.546875 C 3.78125 -4.546875 4.34375 -3.65625 4.34375 -2.25 Z M 4.34375 -2.25 "/>
</symbol>
<symbol overflow="visible" id="glyph6-0">
<path style="stroke:none;" d=""/>
</symbol>
<symbol overflow="visible" id="glyph6-1">
<path style="stroke:none;" d="M 5.4375 -1.234375 L 5.265625 -1.34375 C 4.671875 -0.578125 4.5 -0.4375 4.328125 -0.4375 C 4.25 -0.4375 4.203125 -0.5 4.203125 -0.625 C 4.203125 -0.703125 4.203125 -0.703125 4.421875 -1.515625 L 5.3125 -4.9375 L 4.46875 -4.9375 C 3.859375 -3.25 3.734375 -2.96875 3.21875 -2.15625 C 2.53125 -1.0625 1.96875 -0.484375 1.59375 -0.484375 C 1.453125 -0.484375 1.359375 -0.59375 1.359375 -0.765625 C 1.359375 -0.8125 1.359375 -0.828125 1.375 -0.875 L 2.40625 -5.015625 L 2.375 -5.046875 C 1.734375 -4.890625 1.3125 -4.8125 0.65625 -4.734375 L 0.65625 -4.578125 C 1.09375 -4.578125 1.125 -4.5625 1.21875 -4.5 C 1.296875 -4.484375 1.34375 -4.375 1.34375 -4.296875 C 1.34375 -4.203125 1.296875 -3.90625 1.1875 -3.53125 L 0.765625 -1.90625 C 0.546875 -1.078125 0.484375 -0.71875 0.484375 -0.5 C 0.484375 -0.078125 0.6875 0.125 1.09375 0.125 C 1.90625 0.125 2.5 -0.484375 3.8125 -2.703125 C 3.484375 -1.4375 3.3125 -0.703125 3.3125 -0.453125 C 3.3125 -0.09375 3.515625 0.109375 3.859375 0.109375 C 4.390625 0.109375 4.640625 -0.109375 5.4375 -1.234375 Z M 5.4375 -1.234375 "/>
</symbol>
<symbol overflow="visible" id="glyph6-2">
<path style="stroke:none;" d="M 6.640625 -3.65625 L 6.640625 -4.25 L 0.921875 -4.25 L 0.921875 -3.65625 Z M 6.640625 -1.46875 L 6.640625 -2.0625 L 0.921875 -2.0625 L 0.921875 -1.46875 Z M 6.640625 -1.46875 "/>
</symbol>
<symbol overflow="visible" id="glyph6-3">
<path style="stroke:none;" d="M 5.4375 -1.140625 L 5.3125 -1.265625 L 4.984375 -0.9375 C 4.625 -0.578125 4.5 -0.46875 4.390625 -0.46875 C 4.296875 -0.46875 4.234375 -0.53125 4.234375 -0.625 C 4.234375 -0.84375 4.71875 -2.8125 5.25 -4.765625 C 5.28125 -4.890625 5.296875 -4.90625 5.3125 -5.015625 L 5.234375 -5.046875 L 4.546875 -4.96875 L 4.5 -4.921875 L 4.375 -4.375 C 4.28125 -4.796875 3.953125 -5.046875 3.46875 -5.046875 C 1.9375 -5.046875 0.1875 -2.96875 0.1875 -1.140625 C 0.1875 -0.34375 0.625 0.125 1.359375 0.125 C 2.15625 0.125 2.65625 -0.25 3.65625 -1.671875 C 3.421875 -0.734375 3.390625 -0.640625 3.390625 -0.359375 C 3.390625 -0.015625 3.53125 0.109375 3.859375 0.109375 C 4.3125 0.109375 4.59375 -0.109375 5.4375 -1.140625 Z M 4.171875 -4.09375 C 4.171875 -3.140625 3.59375 -1.78125 2.8125 -0.9375 C 2.546875 -0.625 2.15625 -0.4375 1.8125 -0.4375 C 1.40625 -0.4375 1.15625 -0.75 1.15625 -1.28125 C 1.15625 -1.90625 1.5625 -3.015625 2.03125 -3.734375 C 2.515625 -4.4375 3.046875 -4.828125 3.53125 -4.796875 C 3.921875 -4.765625 4.171875 -4.5 4.171875 -4.09375 Z M 4.171875 -4.09375 "/>
</symbol>
<symbol overflow="visible" id="glyph6-4">
<path style="stroke:none;" d="M 6.640625 -2.5625 L 6.640625 -3.15625 L 4.078125 -3.15625 L 4.078125 -5.71875 L 3.484375 -5.71875 L 3.484375 -3.15625 L 0.921875 -3.15625 L 0.921875 -2.5625 L 3.484375 -2.5625 L 3.484375 0 L 4.078125 0 L 4.078125 -2.5625 Z M 6.640625 -2.5625 "/>
</symbol>
<symbol overflow="visible" id="glyph6-5">
<path style="stroke:none;" d="M 5.40625 -1.90625 L 5.40625 -2.640625 L 4.234375 -2.640625 L 4.234375 -7.734375 L 3.734375 -7.734375 L 0.140625 -2.640625 L 0.140625 -1.90625 L 3.34375 -1.90625 L 3.34375 0 L 4.234375 0 L 4.234375 -1.90625 Z M 3.34375 -2.640625 L 0.59375 -2.640625 L 3.34375 -6.5625 Z M 3.34375 -2.640625 "/>
</symbol>
<symbol overflow="visible" id="glyph6-6">
<path style="stroke:none;" d="M 7.234375 -8.640625 L 7.234375 -9.234375 L 6.09375 -9.234375 L 4.03125 1.375 L 3.046875 -2.109375 L 1.375 -2.109375 L 1.375 -1.609375 L 2.03125 -1.609375 L 3.390625 3.21875 L 4.265625 3.21875 L 6.59375 -8.640625 Z M 7.234375 -8.640625 "/>
</symbol>
<symbol overflow="visible" id="glyph6-7">
<path style="stroke:none;" d="M 4.875 -4.421875 C 4.875 -4.765625 4.59375 -5.046875 4.25 -5.046875 C 3.984375 -5.046875 3.796875 -4.875 3.796875 -4.625 C 3.796875 -4.4375 3.890625 -4.328125 4.125 -4.171875 C 4.328125 -4.046875 4.421875 -3.953125 4.421875 -3.78125 C 4.421875 -3.328125 4 -2.453125 3.015625 -0.828125 L 2.796875 -2.15625 C 2.625 -3.171875 1.984375 -5.046875 1.8125 -5.046875 L 1.765625 -5.046875 L 1.65625 -5.03125 L 0.53125 -4.84375 L 0.171875 -4.765625 L 0.171875 -4.578125 C 0.3125 -4.609375 0.40625 -4.625 0.53125 -4.625 C 0.984375 -4.625 1.1875 -4.453125 1.40625 -3.890625 C 1.71875 -3.109375 2.34375 -0.546875 2.34375 -0.09375 C 2.34375 0.03125 2.296875 0.171875 2.234375 0.3125 C 2.140625 0.453125 1.625 1.125 1.421875 1.34375 C 1.15625 1.640625 1.015625 1.734375 0.875 1.734375 C 0.796875 1.734375 0.71875 1.6875 0.59375 1.59375 C 0.421875 1.46875 0.3125 1.40625 0.171875 1.40625 C -0.078125 1.40625 -0.28125 1.59375 -0.28125 1.859375 C -0.28125 2.15625 -0.03125 2.359375 0.3125 2.359375 C 0.953125 2.359375 2.203125 1.046875 3.375 -0.921875 C 4.328125 -2.5 4.875 -3.765625 4.875 -4.421875 Z M 4.875 -4.421875 "/>
</symbol>
<symbol overflow="visible" id="glyph6-8">
<path style="stroke:none;" d="M 3.640625 1.625 C 2.6875 0.921875 2.1875 -0.96875 2.1875 -2.484375 L 2.1875 -3.234375 C 2.1875 -4.75 2.6875 -6.640625 3.640625 -7.34375 L 3.484375 -7.53125 C 2.453125 -6.75 1.375 -4.890625 1.375 -3.234375 L 1.375 -2.484375 C 1.375 -0.828125 2.453125 1.03125 3.484375 1.8125 Z M 3.640625 1.625 "/>
</symbol>
<symbol overflow="visible" id="glyph6-9">
<path style="stroke:none;" d="M 4.5 0 L 4.5 -0.171875 C 3.609375 -0.1875 3.421875 -0.296875 3.421875 -0.84375 L 3.421875 -7.703125 L 3.328125 -7.734375 L 1.265625 -6.6875 L 1.265625 -6.53125 C 1.40625 -6.59375 1.53125 -6.640625 1.578125 -6.65625 C 1.78125 -6.734375 1.984375 -6.78125 2.09375 -6.78125 C 2.328125 -6.78125 2.4375 -6.609375 2.4375 -6.25 L 2.4375 -1.0625 C 2.4375 -0.6875 2.34375 -0.421875 2.15625 -0.3125 C 1.984375 -0.21875 1.828125 -0.1875 1.34375 -0.171875 L 1.34375 0 Z M 4.5 0 "/>
</symbol>
<symbol overflow="visible" id="glyph6-10">
<path style="stroke:none;" d="M 3.171875 -2.484375 L 3.171875 -3.234375 C 3.171875 -4.890625 2.078125 -6.75 1.046875 -7.53125 L 0.921875 -7.34375 C 1.859375 -6.640625 2.375 -4.75 2.375 -3.234375 L 2.375 -2.484375 C 2.375 -0.96875 1.859375 0.921875 0.921875 1.625 L 1.046875 1.8125 C 2.078125 1.03125 3.171875 -0.828125 3.171875 -2.484375 Z M 3.171875 -2.484375 "/>
</symbol>
<symbol overflow="visible" id="glyph7-0">
<path style="stroke:none;" d=""/>
</symbol>
<symbol overflow="visible" id="glyph7-1">
<path style="stroke:none;" d="M 4.453125 -4.03125 C 4.453125 -4.34375 4.1875 -4.609375 3.875 -4.609375 C 3.625 -4.609375 3.46875 -4.453125 3.46875 -4.21875 C 3.46875 -4.046875 3.546875 -3.953125 3.75 -3.8125 C 3.953125 -3.6875 4.03125 -3.59375 4.03125 -3.453125 C 4.03125 -3.03125 3.65625 -2.234375 2.75 -0.75 L 2.546875 -1.96875 C 2.390625 -2.890625 1.8125 -4.609375 1.65625 -4.609375 L 1.609375 -4.609375 L 0.484375 -4.421875 L 0.15625 -4.359375 L 0.15625 -4.171875 C 0.28125 -4.203125 0.359375 -4.21875 0.484375 -4.21875 C 0.890625 -4.21875 1.078125 -4.0625 1.28125 -3.546875 C 1.5625 -2.84375 2.140625 -0.5 2.140625 -0.078125 C 2.140625 0.03125 2.09375 0.15625 2.03125 0.28125 C 1.953125 0.421875 1.484375 1.03125 1.296875 1.234375 C 1.046875 1.5 0.921875 1.578125 0.796875 1.578125 C 0.71875 1.578125 0.65625 1.546875 0.546875 1.46875 C 0.390625 1.34375 0.28125 1.28125 0.15625 1.28125 C -0.078125 1.28125 -0.25 1.46875 -0.25 1.6875 C -0.25 1.96875 -0.03125 2.15625 0.28125 2.15625 C 0.875 2.15625 2 0.953125 3.078125 -0.84375 C 3.953125 -2.28125 4.453125 -3.4375 4.453125 -4.03125 Z M 4.453125 -4.03125 "/>
</symbol>
</g>
<clipPath id="clip1">
  <path d="M 98 31.675781 L 100 31.675781 L 100 236.488281 L 98 236.488281 Z M 98 31.675781 "/>
</clipPath>
<clipPath id="clip2">
  <path d="M 26.851562 109 L 156 109 L 156 236.488281 L 26.851562 236.488281 Z M 26.851562 109 "/>
</clipPath>
<clipPath id="clip3">
  <path d="M 26.851562 46 L 227 46 L 227 206 L 26.851562 206 Z M 26.851562 46 "/>
</clipPath>
<clipPath id="clip4">
  <path d="M 44 31.675781 L 227 31.675781 L 227 143 L 44 143 Z M 44 31.675781 "/>
</clipPath>
<clipPath id="clip5">
  <path d="M 353 31.675781 L 355 31.675781 L 355 236.488281 L 353 236.488281 Z M 353 31.675781 "/>
</clipPath>
<clipPath id="clip6">
  <path d="M 289.589844 140 L 490 140 L 490 225 L 289.589844 225 Z M 289.589844 140 "/>
</clipPath>
<clipPath id="clip7">
  <path d="M 289.589844 46 L 490 46 L 490 212 L 289.589844 212 Z M 289.589844 46 "/>
</clipPath>
<clipPath id="clip8">
  <path d="M 301 31.675781 L 490 31.675781 L 490 199 L 301 199 Z M 301 31.675781 "/>
</clipPath>
</defs>
<g id="surface1">
<g clip-path="url(#clip1)" clip-rule="nonzero">
<path style="fill:none;stroke-width:1.00002;stroke-linecap:butt;stroke-linejoin:round;stroke:rgb(29.017639%,32.154846%,38.822937%);stroke-opacity:1;stroke-dasharray:3.9851,2.98883;stroke-miterlimit:10;" d="M 99.169542 35.115388 L 99.169542 240.246264 " transform="matrix(0.998448,0,0,-0.998448,0,271.549168)"/>
</g>
<g clip-path="url(#clip2)" clip-rule="nonzero">
<path style="fill:none;stroke-width:2.00003;stroke-linecap:round;stroke-linejoin:round;stroke:rgb(12.155151%,30.587769%,54.901123%);stroke-opacity:1;stroke-miterlimit:10;" d="M 26.893303 161.350375 L 27.39408 153.482695 L 27.890945 150.223731 L 28.892499 145.615015 L 29.890141 142.078276 L 30.887784 139.097086 L 32.386203 135.255186 L 33.88071 131.914063 L 35.379129 128.913312 L 37.374414 125.294414 L 39.37361 122.011976 L 41.869672 118.256146 L 44.365733 114.805478 L 47.35866 110.971402 L 50.355499 107.411189 L 53.849202 103.534078 L 57.342906 99.899531 L 61.333475 95.995033 L 65.327956 92.313538 L 69.819301 88.389479 L 74.811425 84.261979 L 79.803548 80.345744 L 85.292536 76.245631 L 91.282301 71.989024 L 97.272066 67.924122 L 103.762609 63.714463 L 110.750016 59.371785 L 118.238201 54.91565 L 126.22325 50.361707 L 134.709077 45.717781 L 143.194904 41.253821 L 152.177595 36.699878 L 155.174434 35.221021 " transform="matrix(0.998448,0,0,-0.998448,0,271.549168)"/>
</g>
<g clip-path="url(#clip3)" clip-rule="nonzero">
<path style="fill:none;stroke-width:2.00003;stroke-linecap:round;stroke-linejoin:round;stroke:rgb(12.155151%,30.587769%,54.901123%);stroke-opacity:1;stroke-miterlimit:10;" d="M 26.893303 224.467869 L 27.39408 216.600189 L 27.890945 213.341224 L 28.892499 208.732509 L 29.890141 205.19577 L 30.887784 202.21458 L 32.386203 198.37268 L 33.88071 195.027644 L 35.379129 192.026893 L 37.374414 188.411907 L 39.37361 185.129469 L 41.869672 181.37364 L 44.365733 177.922972 L 47.35866 174.088896 L 50.355499 170.528683 L 53.849202 166.651571 L 57.342906 163.017024 L 61.333475 159.112527 L 65.327956 155.427119 L 69.819301 151.506972 L 74.811425 147.379472 L 79.803548 143.463238 L 85.292536 139.363124 L 91.282301 135.106518 L 97.272066 131.041615 L 103.762609 126.831956 L 110.750016 122.489279 L 118.238201 118.033144 L 126.22325 113.479201 L 134.709077 108.835274 L 143.194904 104.371315 L 152.177595 99.817372 L 161.661064 95.185182 L 171.645311 90.482571 L 182.126422 85.717363 L 193.605175 80.678292 L 205.584705 75.60401 L 218.065013 70.490605 L 226.050063 67.309887 " transform="matrix(0.998448,0,0,-0.998448,0,271.549168)"/>
</g>
<g clip-path="url(#clip4)" clip-rule="nonzero">
<path style="fill:none;stroke-width:2.00003;stroke-linecap:round;stroke-linejoin:round;stroke:rgb(12.155151%,30.587769%,54.901123%);stroke-opacity:1;stroke-miterlimit:10;" d="M 45.363376 239.725925 L 48.356302 235.99357 L 51.353141 232.511603 L 54.846845 228.708826 L 58.340548 225.136876 L 62.331117 221.291063 L 66.325598 217.656516 L 70.816944 213.779404 L 75.809067 209.698852 L 80.80119 205.821741 L 86.290178 201.756838 L 92.283855 197.53153 L 98.273621 193.501839 L 104.760251 189.315654 L 111.747658 185.000362 L 119.235843 180.571614 L 127.220892 176.041145 L 135.706719 171.41678 L 144.693323 166.718081 L 154.176792 161.945048 L 164.157126 157.11333 L 174.638237 152.222927 L 185.620125 147.281664 L 197.102791 142.297366 L 209.082321 137.270032 L 221.558717 132.207487 L 226.050063 130.427381 " transform="matrix(0.998448,0,0,-0.998448,0,271.549168)"/>
</g>
<path style="fill:none;stroke-width:1.00002;stroke-linecap:round;stroke-linejoin:round;stroke:rgb(29.017639%,32.154846%,38.822937%);stroke-opacity:1;stroke-miterlimit:10;" d="M 26.893303 35.115388 C 95.421538 35.115388 163.57419 35.115388 231.359084 35.115388 " transform="matrix(0.998448,0,0,-0.998448,0,271.549168)"/>
<path style="fill-rule:nonzero;fill:rgb(29.017639%,32.154846%,38.822937%);fill-opacity:1;stroke-width:1.00002;stroke-linecap:round;stroke-linejoin:round;stroke:rgb(29.017639%,32.154846%,38.822937%);stroke-opacity:1;stroke-miterlimit:10;" d="M 226.957721 37.318025 L 231.359084 35.115388 L 226.957721 32.916663 Z M 226.957721 37.318025 " transform="matrix(0.998448,0,0,-0.998448,0,271.549168)"/>
<path style="fill:none;stroke-width:1.00002;stroke-linecap:round;stroke-linejoin:round;stroke:rgb(29.017639%,32.154846%,38.822937%);stroke-opacity:1;stroke-miterlimit:10;" d="M 26.893303 35.115388 C 26.893303 103.494955 26.893303 171.498939 26.893303 239.12734 " transform="matrix(0.998448,0,0,-0.998448,0,271.549168)"/>
<path style="fill-rule:nonzero;fill:rgb(29.017639%,32.154846%,38.822937%);fill-opacity:1;stroke-width:1.00002;stroke-linecap:round;stroke-linejoin:round;stroke:rgb(29.017639%,32.154846%,38.822937%);stroke-opacity:1;stroke-miterlimit:10;" d="M 24.694578 234.72989 L 26.893303 239.12734 L 29.09594 234.72989 Z M 24.694578 234.72989 " transform="matrix(0.998448,0,0,-0.998448,0,271.549168)"/>
<g style="fill:rgb(11.399841%,14.099121%,19.999695%);fill-opacity:1;">
  <use xlink:href="#glyph0-1" x="236.108974" y="245.305962"/>
</g>
<g style="fill:rgb(11.399841%,14.099121%,19.999695%);fill-opacity:1;">
  <use xlink:href="#glyph1-1" x="3.667299" y="26.59694"/>
</g>
<g style="fill:rgb(11.399841%,14.099121%,19.999695%);fill-opacity:1;">
  <use xlink:href="#glyph0-2" x="17.345038" y="26.59694"/>
</g>
<g style="fill:rgb(11.399841%,14.099121%,19.999695%);fill-opacity:1;">
  <use xlink:href="#glyph2-1" x="103.825606" y="45.100177"/>
</g>
<g style="fill:rgb(11.399841%,14.099121%,19.999695%);fill-opacity:1;">
  <use xlink:href="#glyph2-2" x="111.096963" y="45.100177"/>
</g>
<g style="fill:rgb(11.399841%,14.099121%,19.999695%);fill-opacity:1;">
  <use xlink:href="#glyph2-3" x="120.427378" y="45.100177"/>
</g>
<g style="fill:rgb(11.399841%,14.099121%,19.999695%);fill-opacity:1;">
  <use xlink:href="#glyph2-4" x="125.430788" y="45.100177"/>
  <use xlink:href="#glyph2-3" x="127.917572" y="45.100177"/>
</g>
<g style="fill:rgb(11.399841%,14.099121%,19.999695%);fill-opacity:1;">
  <use xlink:href="#glyph2-5" x="132.920983" y="45.100177"/>
</g>
<g style="fill:rgb(85.099792%,46.699524%,2.398682%);fill-opacity:1;">
  <use xlink:href="#glyph3-1" x="135.89775" y="89.135725"/>
  <use xlink:href="#glyph3-2" x="146.342314" y="89.135725"/>
  <use xlink:href="#glyph3-3" x="156.786879" y="89.135725"/>
  <use xlink:href="#glyph3-4" x="167.231443" y="89.135725"/>
  <use xlink:href="#glyph3-5" x="177.676007" y="89.135725"/>
  <use xlink:href="#glyph3-6" x="188.120571" y="89.135725"/>
  <use xlink:href="#glyph3-7" x="198.565135" y="89.135725"/>
</g>
<g style="fill:rgb(11.399841%,14.099121%,19.999695%);fill-opacity:1;">
  <use xlink:href="#glyph4-1" x="47.509148" y="13.545229"/>
</g>
<g style="fill:rgb(11.399841%,14.099121%,19.999695%);fill-opacity:1;">
  <use xlink:href="#glyph5-1" x="58.948366" y="13.545229"/>
</g>
<g style="fill:rgb(11.399841%,14.099121%,19.999695%);fill-opacity:1;">
  <use xlink:href="#glyph4-2" x="64.027471" y="13.545229"/>
</g>
<g style="fill:rgb(11.399841%,14.099121%,19.999695%);fill-opacity:1;">
  <use xlink:href="#glyph6-1" x="75.466689" y="13.545229"/>
</g>
<g style="fill:rgb(11.399841%,14.099121%,19.999695%);fill-opacity:1;">
  <use xlink:href="#glyph6-2" x="84.389279" y="13.545229"/>
</g>
<g style="fill:rgb(11.399841%,14.099121%,19.999695%);fill-opacity:1;">
  <use xlink:href="#glyph6-3" x="95.119265" y="13.545229"/>
</g>
<g style="fill:rgb(11.399841%,14.099121%,19.999695%);fill-opacity:1;">
  <use xlink:href="#glyph6-4" x="103.424138" y="13.545229"/>
</g>
<g style="fill:rgb(11.399841%,14.099121%,19.999695%);fill-opacity:1;">
  <use xlink:href="#glyph6-5" x="113.524967" y="13.545229"/>
</g>
<g style="fill:rgb(11.399841%,14.099121%,19.999695%);fill-opacity:1;">
  <use xlink:href="#glyph6-6" x="119.245636" y="14.111349"/>
</g>
<path style="fill:none;stroke-width:0.5958;stroke-linecap:butt;stroke-linejoin:miter;stroke:rgb(11.399841%,14.099121%,19.999695%);stroke-opacity:1;stroke-miterlimit:10;" d="M 6.804568 -191.446718 L 12.004044 -191.446718 " transform="matrix(0.998448,0,0,-0.998448,119.3974,-185.981612)"/>
<g style="fill:rgb(11.399841%,14.099121%,19.999695%);fill-opacity:1;">
  <use xlink:href="#glyph6-7" x="126.189841" y="13.545229"/>
</g>
<g style="fill:rgb(11.399841%,14.099121%,19.999695%);fill-opacity:1;">
  <use xlink:href="#glyph4-3" x="131.382769" y="13.545229"/>
  <use xlink:href="#glyph4-4" x="142.821987" y="13.545229"/>
  <use xlink:href="#glyph4-5" x="154.261205" y="13.545229"/>
  <use xlink:href="#glyph4-6" x="165.700423" y="13.545229"/>
  <use xlink:href="#glyph4-7" x="177.139641" y="13.545229"/>
  <use xlink:href="#glyph4-8" x="188.578859" y="13.545229"/>
  <use xlink:href="#glyph4-9" x="200.018077" y="13.545229"/>
</g>
<g style="fill:rgb(28.999329%,32.199097%,38.798523%);fill-opacity:1;">
  <use xlink:href="#glyph3-8" x="46.167234" y="265.751181"/>
  <use xlink:href="#glyph3-9" x="56.611798" y="265.751181"/>
  <use xlink:href="#glyph3-8" x="67.056363" y="265.751181"/>
  <use xlink:href="#glyph3-10" x="77.500927" y="265.751181"/>
  <use xlink:href="#glyph3-11" x="87.945491" y="265.751181"/>
  <use xlink:href="#glyph3-12" x="98.390055" y="265.751181"/>
  <use xlink:href="#glyph3-9" x="108.834619" y="265.751181"/>
  <use xlink:href="#glyph3-5" x="119.279183" y="265.751181"/>
  <use xlink:href="#glyph3-13" x="129.723748" y="265.751181"/>
</g>
<g style="fill:rgb(28.999329%,32.199097%,38.798523%);fill-opacity:1;">
  <use xlink:href="#glyph7-1" x="142.779053" y="265.751181"/>
</g>
<g style="fill:rgb(28.999329%,32.199097%,38.798523%);fill-opacity:1;">
  <use xlink:href="#glyph3-14" x="150.132623" y="265.751181"/>
  <use xlink:href="#glyph3-15" x="160.577187" y="265.751181"/>
  <use xlink:href="#glyph3-16" x="171.021751" y="265.751181"/>
  <use xlink:href="#glyph3-8" x="181.466315" y="265.751181"/>
  <use xlink:href="#glyph3-5" x="191.910879" y="265.751181"/>
  <use xlink:href="#glyph3-6" x="202.355443" y="265.751181"/>
</g>
<path style="fill:none;stroke-width:2.40002;stroke-linecap:round;stroke-linejoin:round;stroke:rgb(85.096741%,46.665955%,2.351379%);stroke-opacity:1;stroke-miterlimit:10;" d="M 75.077462 82.454486 L 123.261622 50.897695 " transform="matrix(0.998448,0,0,-0.998448,0,271.549168)"/>
<path style="fill:none;stroke-width:2.40002;stroke-linecap:round;stroke-linejoin:round;stroke:rgb(85.096741%,46.665955%,2.351379%);stroke-opacity:1;stroke-miterlimit:10;" d="M 75.077462 145.57198 L 123.261622 114.011277 " transform="matrix(0.998448,0,0,-0.998448,0,271.549168)"/>
<path style="fill:none;stroke-width:2.40002;stroke-linecap:round;stroke-linejoin:round;stroke:rgb(85.096741%,46.665955%,2.351379%);stroke-opacity:1;stroke-miterlimit:10;" d="M 75.077462 208.689473 L 123.261622 177.12877 " transform="matrix(0.998448,0,0,-0.998448,0,271.549168)"/>
<path style="fill-rule:nonzero;fill:rgb(85.096741%,46.665955%,2.351379%);fill-opacity:1;stroke-width:1.00002;stroke-linecap:butt;stroke-linejoin:round;stroke:rgb(85.096741%,46.665955%,2.351379%);stroke-opacity:1;stroke-miterlimit:10;" d="M 0.000182364 -2.499663 C 0.661365 -2.499663 1.299073 -2.237538 1.768552 -1.768059 C 2.238031 -1.29858 2.500156 -0.660872 2.500156 0.000310765 C 2.500156 0.661493 2.238031 1.299202 1.768552 1.76868 C 1.299073 2.238159 0.661365 2.500285 0.000182364 2.500285 C -0.661 2.500285 -1.298709 2.238159 -1.768187 1.76868 C -2.237666 1.299202 -2.499792 0.661493 -2.499792 0.000310765 C -2.499792 -0.660872 -2.237666 -1.29858 -1.768187 -1.768059 C -1.298709 -2.237538 -0.661 -2.499663 0.000182364 -2.499663 Z M 0.000182364 -2.499663 " transform="matrix(0.998448,0,0,-0.998448,99.015443,204.976873)"/>
<path style="fill-rule:nonzero;fill:rgb(85.096741%,46.665955%,2.351379%);fill-opacity:1;stroke-width:1.00002;stroke-linecap:butt;stroke-linejoin:round;stroke:rgb(85.096741%,46.665955%,2.351379%);stroke-opacity:1;stroke-miterlimit:10;" d="M 0.000182364 -2.49944 C 0.661365 -2.49944 1.299073 -2.237314 1.768552 -1.767835 C 2.238031 -1.298357 2.500156 -0.660648 2.500156 0.000534333 C 2.500156 0.661717 2.238031 1.299425 1.768552 1.768904 C 1.299073 2.238383 0.661365 2.500508 0.000182364 2.500508 C -0.661 2.500508 -1.298709 2.238383 -1.768187 1.768904 C -2.237666 1.299425 -2.499792 0.661717 -2.499792 0.000534333 C -2.499792 -0.660648 -2.237666 -1.298357 -1.768187 -1.767835 C -1.298709 -2.237314 -0.661 -2.49944 0.000182364 -2.49944 Z M 0.000182364 -2.49944 " transform="matrix(0.998448,0,0,-0.998448,99.015443,141.957565)"/>
<path style="fill-rule:nonzero;fill:rgb(85.096741%,46.665955%,2.351379%);fill-opacity:1;stroke-width:1.00002;stroke-linecap:butt;stroke-linejoin:round;stroke:rgb(85.096741%,46.665955%,2.351379%);stroke-opacity:1;stroke-miterlimit:10;" d="M 0.000182364 -2.499206 C 0.661365 -2.499206 1.299073 -2.23708 1.768552 -1.767602 C 2.238031 -1.298123 2.500156 -0.664327 2.500156 0.000767901 C 2.500156 0.66195 2.238031 1.299659 1.768552 1.769138 C 1.299073 2.238616 0.661365 2.500742 0.000182364 2.500742 C -0.661 2.500742 -1.298709 2.238616 -1.768187 1.769138 C -2.237666 1.299659 -2.499792 0.66195 -2.499792 0.000767901 C -2.499792 -0.664327 -2.237666 -1.298123 -1.768187 -1.767602 C -1.298709 -2.23708 -0.661 -2.499206 0.000182364 -2.499206 Z M 0.000182364 -2.499206 " transform="matrix(0.998448,0,0,-0.998448,99.015443,78.938267)"/>
<g clip-path="url(#clip5)" clip-rule="nonzero">
<path style="fill:none;stroke-width:1.00002;stroke-linecap:butt;stroke-linejoin:round;stroke:rgb(29.017639%,32.154846%,38.822937%);stroke-opacity:1;stroke-dasharray:3.9851,2.98883;stroke-miterlimit:10;" d="M 354.284246 35.115388 L 354.284246 240.246264 " transform="matrix(0.998448,0,0,-0.998448,0,271.549168)"/>
</g>
<g clip-path="url(#clip6)" clip-rule="nonzero">
<path style="fill:none;stroke-width:2.00003;stroke-linecap:round;stroke-linejoin:round;stroke:rgb(12.155151%,30.587769%,54.901123%);stroke-opacity:1;stroke-miterlimit:10;" d="M 290.040004 129.793584 L 291.534511 125.576101 L 293.533708 120.505732 L 295.528992 115.97135 L 297.524276 111.898623 L 299.523473 108.213215 L 301.518757 104.864267 L 303.514042 101.812656 L 305.513238 99.011433 L 308.0093 95.830716 L 310.505361 92.947334 L 312.997511 90.329991 L 315.493572 87.935649 L 317.989634 85.740837 L 320.986472 83.338671 L 323.979399 81.151683 L 326.976238 79.156398 L 330.469941 77.032008 L 333.963645 75.107145 L 337.457349 73.350512 L 341.45183 71.523458 L 345.442398 69.864633 L 349.933744 68.166686 L 354.925867 66.464825 L 359.91799 64.931195 L 365.406978 63.409302 L 371.400656 61.914795 L 377.887286 60.467235 L 384.874693 59.070536 L 392.362878 57.736435 L 400.848705 56.394508 L 409.831397 55.13474 L 419.815643 53.902359 L 430.797531 52.709101 L 442.777062 51.566703 L 456.251099 50.451691 L 471.227468 49.375802 L 487.698345 48.350774 L 489.196764 48.268615 " transform="matrix(0.998448,0,0,-0.998448,0,271.549168)"/>
</g>
<g clip-path="url(#clip7)" clip-rule="nonzero">
<path style="fill:none;stroke-width:2.00003;stroke-linecap:round;stroke-linejoin:round;stroke:rgb(12.155151%,30.587769%,54.901123%);stroke-opacity:1;stroke-miterlimit:10;" d="M 290.040004 224.467869 L 291.534511 216.032902 L 293.032931 208.321715 L 295.032127 199.002564 L 297.027411 190.638019 L 299.022696 183.083325 L 301.01798 176.228936 L 303.017177 169.980958 L 305.012461 164.265055 L 307.007745 159.010806 L 309.006942 154.171264 L 311.002226 149.691655 L 312.997511 145.540681 L 315.493572 140.751999 L 317.989634 136.366286 L 320.485695 132.324857 L 322.981757 128.596414 L 325.477818 125.145746 L 327.97388 121.937641 L 330.966806 118.377428 L 333.963645 115.098902 L 336.956572 112.066853 L 339.95341 109.257805 L 342.946337 106.648286 L 346.44004 103.82359 L 349.933744 101.217983 L 353.427448 98.796256 L 357.421929 96.241509 L 361.41641 93.886291 L 365.406978 91.703216 L 369.902237 89.430157 L 374.393582 87.337064 L 379.385705 85.193112 L 384.377829 83.213477 L 389.866817 81.21428 L 395.856582 79.211171 L 401.846347 77.376292 L 408.33689 75.55315 L 415.324297 73.757394 L 422.808569 72.004674 L 430.797531 70.298901 L 439.283358 68.651813 L 448.26605 67.071235 L 458.250296 65.47892 L 468.731407 63.968764 L 480.21016 62.478169 L 489.196764 61.41793 " transform="matrix(0.998448,0,0,-0.998448,0,271.549168)"/>
</g>
<g clip-path="url(#clip8)" clip-rule="nonzero">
<path style="fill:none;stroke-width:2.00003;stroke-linecap:round;stroke-linejoin:round;stroke:rgb(12.155151%,30.587769%,54.901123%);stroke-opacity:1;stroke-miterlimit:10;" d="M 302.516399 239.678977 L 304.515596 230.915375 L 306.51088 222.867729 L 308.506165 215.457791 L 310.505361 208.611227 L 312.500646 202.26544 L 314.49593 196.369571 L 316.991991 189.554305 L 319.488053 183.29459 L 321.984115 177.523915 L 324.480176 172.183595 L 326.976238 167.230595 L 329.472299 162.62188 L 331.964448 158.32615 L 334.46051 154.308195 L 337.457349 149.820762 L 340.450275 145.658051 L 343.447114 141.788764 L 346.44004 138.177691 L 349.436879 134.805269 L 352.429806 131.648025 L 355.923509 128.205182 L 359.417213 125.00099 L 362.914829 122.011976 L 366.408533 119.210753 L 370.399101 116.225651 L 374.393582 113.447902 L 378.388063 110.85012 L 382.879409 108.127144 L 387.370755 105.595872 L 392.362878 102.978528 L 397.355001 100.548976 L 402.347124 98.287654 L 407.836112 95.971559 L 413.825878 93.635903 L 419.815643 91.472389 L 426.306185 89.30105 L 433.293593 87.141448 L 440.281 85.146164 L 447.765272 83.174353 L 455.754234 81.233842 L 464.240061 79.336365 L 473.222753 77.493662 L 482.706222 75.70573 L 489.196764 74.563332 " transform="matrix(0.998448,0,0,-0.998448,0,271.549168)"/>
</g>
<path style="fill:none;stroke-width:1.00002;stroke-linecap:round;stroke-linejoin:round;stroke:rgb(29.017639%,32.154846%,38.822937%);stroke-opacity:1;stroke-miterlimit:10;" d="M 290.040004 35.115388 C 358.568239 35.115388 426.720891 35.115388 494.501873 35.115388 " transform="matrix(0.998448,0,0,-0.998448,0,271.549168)"/>
<path style="fill-rule:nonzero;fill:rgb(29.017639%,32.154846%,38.822937%);fill-opacity:1;stroke-width:1.00002;stroke-linecap:round;stroke-linejoin:round;stroke:rgb(29.017639%,32.154846%,38.822937%);stroke-opacity:1;stroke-miterlimit:10;" d="M 490.100511 37.318025 L 494.501873 35.115388 L 490.100511 32.916663 Z M 490.100511 37.318025 " transform="matrix(0.998448,0,0,-0.998448,0,271.549168)"/>
<path style="fill:none;stroke-width:1.00002;stroke-linecap:round;stroke-linejoin:round;stroke:rgb(29.017639%,32.154846%,38.822937%);stroke-opacity:1;stroke-miterlimit:10;" d="M 290.040004 35.115388 C 290.040004 103.494955 290.040004 171.498939 290.040004 239.12734 " transform="matrix(0.998448,0,0,-0.998448,0,271.549168)"/>
<path style="fill-rule:nonzero;fill:rgb(29.017639%,32.154846%,38.822937%);fill-opacity:1;stroke-width:1.00002;stroke-linecap:round;stroke-linejoin:round;stroke:rgb(29.017639%,32.154846%,38.822937%);stroke-opacity:1;stroke-miterlimit:10;" d="M 287.837367 234.72989 L 290.040004 239.12734 L 292.238729 234.72989 Z M 287.837367 234.72989 " transform="matrix(0.998448,0,0,-0.998448,0,271.549168)"/>
<g style="fill:rgb(11.399841%,14.099121%,19.999695%);fill-opacity:1;">
  <use xlink:href="#glyph0-1" x="498.845557" y="245.305962"/>
</g>
<g style="fill:rgb(11.399841%,14.099121%,19.999695%);fill-opacity:1;">
  <use xlink:href="#glyph1-1" x="266.401885" y="26.59694"/>
</g>
<g style="fill:rgb(11.399841%,14.099121%,19.999695%);fill-opacity:1;">
  <use xlink:href="#glyph0-2" x="280.079623" y="26.59694"/>
</g>
<g style="fill:rgb(11.399841%,14.099121%,19.999695%);fill-opacity:1;">
  <use xlink:href="#glyph2-1" x="358.544651" y="45.04027"/>
</g>
<g style="fill:rgb(11.399841%,14.099121%,19.999695%);fill-opacity:1;">
  <use xlink:href="#glyph2-2" x="365.816009" y="45.04027"/>
</g>
<g style="fill:rgb(11.399841%,14.099121%,19.999695%);fill-opacity:1;">
  <use xlink:href="#glyph2-3" x="375.146423" y="45.04027"/>
</g>
<g style="fill:rgb(85.099792%,46.699524%,2.398682%);fill-opacity:1;">
  <use xlink:href="#glyph3-8" x="395.426319" y="120.128547"/>
  <use xlink:href="#glyph3-17" x="405.870884" y="120.128547"/>
  <use xlink:href="#glyph3-9" x="416.315448" y="120.128547"/>
  <use xlink:href="#glyph3-11" x="426.760012" y="120.128547"/>
  <use xlink:href="#glyph3-3" x="437.204576" y="120.128547"/>
  <use xlink:href="#glyph3-4" x="447.64914" y="120.128547"/>
  <use xlink:href="#glyph3-17" x="458.093705" y="120.128547"/>
  <use xlink:href="#glyph3-7" x="468.538269" y="120.128547"/>
</g>
<g style="fill:rgb(11.399841%,14.099121%,19.999695%);fill-opacity:1;">
  <use xlink:href="#glyph4-1" x="314.563019" y="14.980997"/>
</g>
<g style="fill:rgb(11.399841%,14.099121%,19.999695%);fill-opacity:1;">
  <use xlink:href="#glyph5-2" x="326.002238" y="14.980997"/>
</g>
<g style="fill:rgb(11.399841%,14.099121%,19.999695%);fill-opacity:1;">
  <use xlink:href="#glyph4-2" x="331.722346" y="14.980997"/>
</g>
<g style="fill:rgb(11.399841%,14.099121%,19.999695%);fill-opacity:1;">
  <use xlink:href="#glyph6-1" x="343.161564" y="14.980997"/>
</g>
<g style="fill:rgb(11.399841%,14.099121%,19.999695%);fill-opacity:1;">
  <use xlink:href="#glyph6-2" x="352.084154" y="14.980997"/>
</g>
<g style="fill:rgb(11.399841%,14.099121%,19.999695%);fill-opacity:1;">
  <use xlink:href="#glyph6-3" x="362.81414" y="14.980997"/>
</g>
<g style="fill:rgb(11.399841%,14.099121%,19.999695%);fill-opacity:1;">
  <use xlink:href="#glyph6-8" x="368.579506" y="14.980997"/>
  <use xlink:href="#glyph6-9" x="373.132315" y="14.980997"/>
</g>
<g style="fill:rgb(11.399841%,14.099121%,19.999695%);fill-opacity:1;">
  <use xlink:href="#glyph6-4" x="381.39143" y="14.980997"/>
</g>
<g style="fill:rgb(11.399841%,14.099121%,19.999695%);fill-opacity:1;">
  <use xlink:href="#glyph6-7" x="391.49226" y="14.980997"/>
</g>
<g style="fill:rgb(11.399841%,14.099121%,19.999695%);fill-opacity:1;">
  <use xlink:href="#glyph6-10" x="396.685665" y="14.980997"/>
</g>
<g style="fill:rgb(11.399841%,14.099121%,19.999695%);fill-opacity:1;">
  <use xlink:href="#glyph4-3" x="401.239283" y="14.980997"/>
  <use xlink:href="#glyph4-5" x="412.678501" y="14.980997"/>
  <use xlink:href="#glyph4-6" x="424.117719" y="14.980997"/>
  <use xlink:href="#glyph4-7" x="435.556937" y="14.980997"/>
  <use xlink:href="#glyph4-8" x="446.996155" y="14.980997"/>
  <use xlink:href="#glyph4-9" x="458.435373" y="14.980997"/>
</g>
<g style="fill:rgb(28.999329%,32.199097%,38.798523%);fill-opacity:1;">
  <use xlink:href="#glyph3-17" x="319.347582" y="265.762164"/>
  <use xlink:href="#glyph3-18" x="329.792146" y="265.762164"/>
  <use xlink:href="#glyph3-8" x="340.23671" y="265.762164"/>
  <use xlink:href="#glyph3-11" x="350.681275" y="265.762164"/>
  <use xlink:href="#glyph3-17" x="361.125839" y="265.762164"/>
  <use xlink:href="#glyph3-14" x="371.570403" y="265.762164"/>
  <use xlink:href="#glyph3-12" x="382.014967" y="265.762164"/>
  <use xlink:href="#glyph3-9" x="392.459531" y="265.762164"/>
  <use xlink:href="#glyph3-5" x="402.904095" y="265.762164"/>
  <use xlink:href="#glyph3-13" x="413.34866" y="265.762164"/>
</g>
<g style="fill:rgb(28.999329%,32.199097%,38.798523%);fill-opacity:1;">
  <use xlink:href="#glyph7-1" x="426.404165" y="265.762164"/>
</g>
<g style="fill:rgb(28.999329%,32.199097%,38.798523%);fill-opacity:1;">
  <use xlink:href="#glyph3-9" x="433.756736" y="265.762164"/>
  <use xlink:href="#glyph3-15" x="444.2013" y="265.762164"/>
  <use xlink:href="#glyph3-8" x="454.645864" y="265.762164"/>
</g>
<path style="fill:none;stroke-width:2.40002;stroke-linecap:round;stroke-linejoin:round;stroke:rgb(85.096741%,46.665955%,2.351379%);stroke-opacity:1;stroke-miterlimit:10;" d="M 330.192167 74.563332 L 378.376326 58.784937 " transform="matrix(0.998448,0,0,-0.998448,0,271.549168)"/>
<path style="fill:none;stroke-width:2.40002;stroke-linecap:round;stroke-linejoin:round;stroke:rgb(85.096741%,46.665955%,2.351379%);stroke-opacity:1;stroke-miterlimit:10;" d="M 330.192167 114.011277 L 378.376326 82.454486 " transform="matrix(0.998448,0,0,-0.998448,0,271.549168)"/>
<path style="fill:none;stroke-width:2.40002;stroke-linecap:round;stroke-linejoin:round;stroke:rgb(85.096741%,46.665955%,2.351379%);stroke-opacity:1;stroke-miterlimit:10;" d="M 330.192167 153.463133 L 378.376326 106.124035 " transform="matrix(0.998448,0,0,-0.998448,0,271.549168)"/>
<path style="fill-rule:nonzero;fill:rgb(85.096741%,46.665955%,2.351379%);fill-opacity:1;stroke-width:1.00002;stroke-linecap:butt;stroke-linejoin:round;stroke:rgb(85.096741%,46.665955%,2.351379%);stroke-opacity:1;stroke-miterlimit:10;" d="M 0.00137642 -2.499663 C 0.662559 -2.499663 1.300267 -2.237538 1.765834 -1.768059 C 2.235312 -1.29858 2.50135 -0.660872 2.50135 0.000310765 C 2.50135 0.661493 2.235312 1.299202 1.765834 1.76868 C 1.300267 2.238159 0.662559 2.500285 0.00137642 2.500285 C -0.663718 2.500285 -1.297515 2.238159 -1.766993 1.76868 C -2.236472 1.299202 -2.498597 0.661493 -2.498597 0.000310765 C -2.498597 -0.660872 -2.236472 -1.29858 -1.766993 -1.768059 C -1.297515 -2.237538 -0.663718 -2.499663 0.00137642 -2.499663 Z M 0.00137642 -2.499663 " transform="matrix(0.998448,0,0,-0.998448,353.733001,204.976873)"/>
<path style="fill-rule:nonzero;fill:rgb(85.096741%,46.665955%,2.351379%);fill-opacity:1;stroke-width:1.00002;stroke-linecap:butt;stroke-linejoin:round;stroke:rgb(85.096741%,46.665955%,2.351379%);stroke-opacity:1;stroke-miterlimit:10;" d="M 0.00137642 -2.501492 C 0.662559 -2.501492 1.300267 -2.235455 1.765834 -1.765976 C 2.235312 -1.30041 2.50135 -0.662701 2.50135 -0.00151861 C 2.50135 0.663576 2.235312 1.297372 1.765834 1.766851 C 1.300267 2.23633 0.662559 2.502368 0.00137642 2.502368 C -0.663718 2.502368 -1.297515 2.23633 -1.766993 1.766851 C -2.236472 1.297372 -2.498597 0.663576 -2.498597 -0.00151861 C -2.498597 -0.662701 -2.236472 -1.30041 -1.766993 -1.765976 C -1.297515 -2.235455 -0.663718 -2.501492 0.00137642 -2.501492 Z M 0.00137642 -2.501492 " transform="matrix(0.998448,0,0,-0.998448,353.733001,173.467234)"/>
<path style="fill-rule:nonzero;fill:rgb(85.096741%,46.665955%,2.351379%);fill-opacity:1;stroke-width:1.00002;stroke-linecap:butt;stroke-linejoin:round;stroke:rgb(85.096741%,46.665955%,2.351379%);stroke-opacity:1;stroke-miterlimit:10;" d="M 0.00137642 -2.49944 C 0.662559 -2.49944 1.300267 -2.237314 1.765834 -1.767835 C 2.235312 -1.298357 2.50135 -0.660648 2.50135 0.000534333 C 2.50135 0.661717 2.235312 1.299425 1.765834 1.768904 C 1.300267 2.238383 0.662559 2.500508 0.00137642 2.500508 C -0.663718 2.500508 -1.297515 2.238383 -1.766993 1.768904 C -2.236472 1.299425 -2.498597 0.661717 -2.498597 0.000534333 C -2.498597 -0.660648 -2.236472 -1.298357 -1.766993 -1.767835 C -1.297515 -2.237314 -0.663718 -2.49944 0.00137642 -2.49944 Z M 0.00137642 -2.49944 " transform="matrix(0.998448,0,0,-0.998448,353.733001,141.957565)"/>
</g>
</svg>
